M48
; DRILL file {KiCad 7.0.9} date Mon Nov  4 23:33:08 2024
; FORMAT={-:-/ absolute / metric / decimal}
; #@! TF.CreationDate,2024-11-04T23:33:08+09:00
; #@! TF.GenerationSoftware,Kicad,Pcbnew,7.0.9
; #@! TF.FileFunction,MixedPlating,1,2
FMAT,2
METRIC
; #@! TA.AperFunction,Plated,PTH,ViaDrill
T1C0.400
; #@! TA.AperFunction,Plated,PTH,ComponentDrill
T2C0.500
; #@! TA.AperFunction,Plated,PTH,ComponentDrill
T3C0.800
; #@! TA.AperFunction,Plated,PTH,ComponentDrill
T4C0.950
; #@! TA.AperFunction,Plated,PTH,ComponentDrill
T5C1.000
; #@! TA.AperFunction,Plated,PTH,ComponentDrill
T6C1.100
; #@! TA.AperFunction,Plated,PTH,ComponentDrill
T7C1.200
; #@! TA.AperFunction,Plated,PTH,ComponentDrill
T8C1.600
; #@! TA.AperFunction,Plated,PTH,ComponentDrill
T9C3.200
; #@! TA.AperFunction,Plated,PTH,ComponentDrill
T10C4.500
%
G90
G05
T1
X0.7Y79.3
X0.7Y69.3
X0.7Y64.3
X0.7Y59.3
X0.7Y54.3
X0.7Y49.3
X0.7Y44.3
X0.7Y39.3
X0.7Y34.3
X0.7Y29.3
X0.7Y24.3
X0.7Y19.3
X3.4Y79.3
X3.4Y69.3
X3.4Y64.3
X3.4Y59.3
X3.4Y54.3
X3.4Y49.3
X3.4Y44.3
X3.4Y39.3
X3.4Y34.3
X3.4Y29.3
X3.4Y24.3
X3.4Y19.3
X3.4Y14.3
X3.4Y9.3
X8.4Y99.3
X8.4Y94.3
X8.4Y79.3
X8.4Y49.3
X8.4Y44.3
X8.4Y39.3
X8.4Y34.3
X8.4Y29.3
X8.4Y24.3
X8.4Y19.3
X8.4Y14.3
X8.4Y9.3
X8.4Y4.3
X8.4Y0.4
X9.8Y55.0
X11.3Y64.3
X11.3Y59.3
X13.4Y99.3
X13.4Y94.3
X13.4Y79.3
X13.4Y74.3
X13.4Y69.3
X13.4Y65.5
X13.4Y55.0
X13.4Y49.3
X13.4Y44.3
X13.4Y39.3
X13.4Y34.3
X13.4Y29.3
X13.4Y24.3
X13.4Y19.3
X13.4Y0.4
X14.7Y14.3
X15.5Y69.3
X18.3Y74.3
X18.4Y99.3
X18.4Y94.3
X18.4Y83.9
X18.4Y79.3
X18.4Y55.0
X18.4Y49.3
X18.4Y44.3
X18.4Y39.3
X18.4Y34.3
X18.4Y29.3
X18.4Y24.3
X18.4Y19.3
X18.4Y14.3
X18.4Y0.4
X23.4Y99.3
X23.4Y94.3
X23.4Y89.3
X23.4Y55.0
X23.4Y49.3
X23.4Y44.3
X23.4Y39.3
X23.4Y34.3
X23.4Y29.3
X23.4Y24.3
X23.4Y19.3
X23.4Y14.3
X23.4Y4.3
X23.4Y0.4
X23.8Y59.3
X26.2Y64.3
X28.4Y68.1
X28.4Y64.3
X28.4Y59.3
X28.4Y49.3
X28.4Y44.3
X28.4Y39.3
X28.4Y34.3
X28.4Y29.3
X28.4Y24.3
X28.4Y19.3
X28.4Y9.3
X28.4Y4.3
X28.4Y0.4
X28.5Y55.1
X31.3Y72.7
X31.3Y68.1
X31.3Y64.3
X31.3Y59.3
X33.198Y19.298
X33.4Y14.3
X33.4Y9.3
X33.4Y4.3
X33.4Y0.4
X34.5Y64.3
X34.5Y60.4
X34.7Y49.9
X34.7Y46.7
X34.752Y20.852
X35.5Y82.6
X35.5Y78.8
X35.5Y76.3
X35.9Y44.3
X35.9Y39.3
X35.9Y32.4
X36.0Y57.3
X36.0Y54.3
X36.0Y50.1
X38.4Y99.3
X38.4Y89.3
X38.4Y84.3
X38.4Y79.3
X38.4Y76.3
X38.4Y60.2
X38.4Y54.3
X38.4Y50.1
X38.4Y39.3
X38.4Y35.0
X38.4Y29.3
X38.4Y24.3
X38.4Y9.3
X38.4Y4.3
X38.4Y0.4
X38.7Y64.0
X43.3Y65.6
X43.4Y99.3
X43.4Y94.3
X43.4Y89.3
X43.4Y84.3
X43.4Y79.3
X43.4Y76.3
X43.4Y59.3
X43.4Y54.3
X43.4Y51.1
X43.4Y39.3
X43.4Y36.3
X43.4Y29.3
X43.4Y24.3
X43.4Y9.3
X43.4Y4.3
X43.4Y0.4
X44.738Y66.3
X45.387Y68.2
X56.2Y92.0
T2
X1.4Y96.5
X1.4Y3.5
X2.103Y98.197
X2.103Y94.803
X2.103Y5.197
X2.103Y1.803
X3.8Y98.9
X3.8Y94.1
X3.8Y5.9
X3.8Y1.1
X5.497Y98.197
X5.497Y94.803
X5.497Y5.197
X5.497Y1.803
X6.2Y96.5
X6.2Y3.5
X94.4Y96.5
X94.4Y3.5
X95.103Y98.197
X95.103Y94.803
X95.103Y5.197
X95.103Y1.803
X96.8Y98.9
X96.8Y94.1
X96.8Y5.9
X96.8Y1.1
X98.497Y98.197
X98.497Y94.803
X98.497Y5.197
X98.497Y1.803
X99.2Y96.5
X99.2Y3.5
T3
X30.797Y80.6
X31.85Y88.5
X35.797Y80.6
X39.35Y86.7
T4
X3.5Y75.25
X3.5Y66.8
X6.0Y75.25
X6.0Y66.8
X8.5Y75.25
X8.5Y66.8
X11.0Y75.25
X11.0Y66.8
X12.45Y4.1
X14.95Y4.1
T5
X3.5Y56.8
X3.5Y16.8
X6.04Y56.8
X6.04Y16.8
X8.58Y56.8
X8.58Y16.8
X11.12Y56.8
X11.12Y16.8
X12.425Y10.1
X13.66Y56.8
X13.66Y16.8
X14.965Y10.1
X16.2Y56.8
X16.2Y16.8
X18.74Y56.8
X18.74Y16.8
X21.28Y56.8
X21.28Y16.8
X32.9Y59.775
X32.9Y57.235
X52.9Y5.5
X52.9Y2.96
T6
X46.1Y51.6
X46.1Y41.4
X46.1Y22.9
X46.1Y12.7
T7
X56.54Y84.1
X65.8Y74.8
X65.8Y67.3
X76.86Y84.1
T8
X58.76Y55.4
X58.76Y26.7
X61.3Y37.6
X61.3Y8.9
T9
X3.8Y96.5
X3.8Y3.5
X96.8Y96.5
X96.8Y3.5
T10
X4.9Y85.4
X12.1Y85.4
X32.0Y94.8
X39.2Y94.8
X65.7Y94.175
X76.7Y94.175
X86.7Y25.7
X86.7Y11.7
X86.9Y54.2
X86.9Y40.8
X93.9Y25.7
X93.9Y11.7
X94.1Y54.2
X94.1Y40.8
T0
M30
