%TF.GenerationSoftware,KiCad,Pcbnew,7.0.9*%
%TF.CreationDate,2024-11-04T23:33:06+09:00*%
%TF.ProjectId,schematic_PWRcutoff,73636865-6d61-4746-9963-5f5057526375,rev?*%
%TF.SameCoordinates,PX4b571c0PY86d97c0*%
%TF.FileFunction,Soldermask,Top*%
%TF.FilePolarity,Negative*%
%FSLAX46Y46*%
G04 Gerber Fmt 4.6, Leading zero omitted, Abs format (unit mm)*
G04 Created by KiCad (PCBNEW 7.0.9) date 2024-11-04 23:33:06*
%MOMM*%
%LPD*%
G01*
G04 APERTURE LIST*
G04 Aperture macros list*
%AMRoundRect*
0 Rectangle with rounded corners*
0 $1 Rounding radius*
0 $2 $3 $4 $5 $6 $7 $8 $9 X,Y pos of 4 corners*
0 Add a 4 corners polygon primitive as box body*
4,1,4,$2,$3,$4,$5,$6,$7,$8,$9,$2,$3,0*
0 Add four circle primitives for the rounded corners*
1,1,$1+$1,$2,$3*
1,1,$1+$1,$4,$5*
1,1,$1+$1,$6,$7*
1,1,$1+$1,$8,$9*
0 Add four rect primitives between the rounded corners*
20,1,$1+$1,$2,$3,$4,$5,0*
20,1,$1+$1,$4,$5,$6,$7,0*
20,1,$1+$1,$6,$7,$8,$9,0*
20,1,$1+$1,$8,$9,$2,$3,0*%
G04 Aperture macros list end*
%ADD10C,1.800000*%
%ADD11R,1.700000X1.700000*%
%ADD12O,1.700000X1.700000*%
%ADD13R,2.400000X2.400000*%
%ADD14C,2.400000*%
%ADD15C,1.600000*%
%ADD16R,1.600000X1.600000*%
%ADD17RoundRect,0.225000X0.375000X-0.225000X0.375000X0.225000X-0.375000X0.225000X-0.375000X-0.225000X0*%
%ADD18RoundRect,0.237500X0.287500X0.237500X-0.287500X0.237500X-0.287500X-0.237500X0.287500X-0.237500X0*%
%ADD19RoundRect,0.237500X-0.287500X-0.237500X0.287500X-0.237500X0.287500X0.237500X-0.287500X0.237500X0*%
%ADD20C,6.000000*%
%ADD21RoundRect,1.500000X1.500000X1.500000X-1.500000X1.500000X-1.500000X-1.500000X1.500000X-1.500000X0*%
%ADD22O,1.700000X1.950000*%
%ADD23RoundRect,0.250000X-0.600000X-0.725000X0.600000X-0.725000X0.600000X0.725000X-0.600000X0.725000X0*%
%ADD24RoundRect,0.237500X-0.250000X-0.237500X0.250000X-0.237500X0.250000X0.237500X-0.250000X0.237500X0*%
%ADD25RoundRect,0.237500X0.250000X0.237500X-0.250000X0.237500X-0.250000X-0.237500X0.250000X-0.237500X0*%
%ADD26C,0.800000*%
%ADD27C,6.400000*%
%ADD28C,3.000000*%
%ADD29RoundRect,0.500000X0.500000X0.500000X-0.500000X0.500000X-0.500000X-0.500000X0.500000X-0.500000X0*%
%ADD30C,2.000000*%
%ADD31RoundRect,0.150000X-0.150000X0.587500X-0.150000X-0.587500X0.150000X-0.587500X0.150000X0.587500X0*%
%ADD32O,2.400000X2.400000*%
G04 APERTURE END LIST*
D10*
%TO.C,RV1*%
X31850000Y88500000D03*
X39350000Y86700000D03*
%TD*%
D11*
%TO.C,J7*%
X52900000Y2960000D03*
D12*
X52900000Y5500000D03*
%TD*%
D13*
%TO.C,C2*%
X65800000Y67300000D03*
D14*
X65800000Y74800000D03*
%TD*%
D15*
%TO.C,C1*%
X35797349Y80600000D03*
D16*
X30797349Y80600000D03*
%TD*%
D17*
%TO.C,D4*%
X37500000Y48650000D03*
X37500000Y45350000D03*
%TD*%
%TO.C,D6*%
X37900000Y19450000D03*
X37900000Y16150000D03*
%TD*%
D18*
%TO.C,D7*%
X44162500Y67500000D03*
X42412500Y67500000D03*
%TD*%
D19*
%TO.C,D3*%
X55775000Y93500000D03*
X54025000Y93500000D03*
%TD*%
D20*
%TO.C,J2*%
X32000000Y94800000D03*
D21*
X39200000Y94800000D03*
%TD*%
D20*
%TO.C,J3*%
X65700000Y94175000D03*
D21*
X76700000Y94175000D03*
%TD*%
D12*
%TO.C,J8*%
X14965000Y10100000D03*
D11*
X12425000Y10100000D03*
%TD*%
D22*
%TO.C,J9*%
X14950000Y4100000D03*
D23*
X12450000Y4100000D03*
%TD*%
D21*
%TO.C,J10*%
X94100000Y54200000D03*
D20*
X86900000Y54200000D03*
%TD*%
D21*
%TO.C,J11*%
X94100000Y40800000D03*
D20*
X86900000Y40800000D03*
%TD*%
D21*
%TO.C,J14*%
X93900000Y25700000D03*
D20*
X86700000Y25700000D03*
%TD*%
D21*
%TO.C,J15*%
X93900000Y11700000D03*
D20*
X86700000Y11700000D03*
%TD*%
D22*
%TO.C,J4*%
X11000000Y75250000D03*
X8500000Y75250000D03*
X6000000Y75250000D03*
D23*
X3500000Y75250000D03*
%TD*%
D22*
%TO.C,J6*%
X11000000Y66800000D03*
X8500000Y66800000D03*
X6000000Y66800000D03*
D23*
X3500000Y66800000D03*
%TD*%
D12*
%TO.C,J13*%
X21280000Y16800000D03*
X18740000Y16800000D03*
X16200000Y16800000D03*
X13660000Y16800000D03*
X11120000Y16800000D03*
X8580000Y16800000D03*
X6040000Y16800000D03*
D11*
X3500000Y16800000D03*
%TD*%
D12*
%TO.C,J5*%
X32900000Y57235000D03*
D11*
X32900000Y59775000D03*
%TD*%
D18*
%TO.C,D5*%
X44162500Y69400000D03*
X42412500Y69400000D03*
%TD*%
D24*
%TO.C,R2*%
X40800000Y73100000D03*
X38975000Y73100000D03*
%TD*%
D25*
%TO.C,R4*%
X59312500Y93500000D03*
X57487500Y93500000D03*
%TD*%
D24*
%TO.C,R3*%
X40800000Y71200000D03*
X38975000Y71200000D03*
%TD*%
D18*
%TO.C,D1*%
X42412500Y73100000D03*
X44162500Y73100000D03*
%TD*%
%TO.C,D2*%
X44162500Y71200000D03*
X42412500Y71200000D03*
%TD*%
D24*
%TO.C,R8*%
X40800000Y67500000D03*
X38975000Y67500000D03*
%TD*%
%TO.C,R5*%
X40800000Y69400000D03*
X38975000Y69400000D03*
%TD*%
D11*
%TO.C,J12*%
X3500000Y56800000D03*
D12*
X6040000Y56800000D03*
X8580000Y56800000D03*
X11120000Y56800000D03*
X13660000Y56800000D03*
X16200000Y56800000D03*
X18740000Y56800000D03*
X21280000Y56800000D03*
%TD*%
D20*
%TO.C,J1*%
X4900000Y85400000D03*
D21*
X12100000Y85400000D03*
%TD*%
D26*
%TO.C,H2*%
X1400000Y3500000D03*
X2102944Y5197056D03*
X2102944Y1802944D03*
X3800000Y5900000D03*
D27*
X3800000Y3500000D03*
D26*
X3800000Y1100000D03*
X5497056Y5197056D03*
X5497056Y1802944D03*
X6200000Y3500000D03*
%TD*%
D28*
%TO.C,K2*%
X58760000Y26700000D03*
X61300000Y8900000D03*
D29*
X46100000Y22900000D03*
D30*
X46100000Y12700000D03*
%TD*%
D26*
%TO.C,H3*%
X99200000Y96500000D03*
X98497056Y94802944D03*
X98497056Y98197056D03*
X96800000Y94100000D03*
D27*
X96800000Y96500000D03*
D26*
X96800000Y98900000D03*
X95102944Y94802944D03*
X95102944Y98197056D03*
X94400000Y96500000D03*
%TD*%
D25*
%TO.C,R10*%
X47037500Y33637500D03*
X45212500Y33637500D03*
%TD*%
D26*
%TO.C,H1*%
X1400000Y96500000D03*
X2102944Y98197056D03*
X2102944Y94802944D03*
X3800000Y98900000D03*
D27*
X3800000Y96500000D03*
D26*
X3800000Y94100000D03*
X5497056Y98197056D03*
X5497056Y94802944D03*
X6200000Y96500000D03*
%TD*%
%TO.C,H4*%
X94400000Y3500000D03*
X95102944Y5197056D03*
X95102944Y1802944D03*
X96800000Y5900000D03*
D27*
X96800000Y3500000D03*
D26*
X96800000Y1100000D03*
X98497056Y5197056D03*
X98497056Y1802944D03*
X99200000Y3500000D03*
%TD*%
D25*
%TO.C,R6*%
X47062500Y64175000D03*
X45237500Y64175000D03*
%TD*%
D31*
%TO.C,Q2*%
X47050000Y31775000D03*
X45150000Y31775000D03*
X46100000Y29900000D03*
%TD*%
D28*
%TO.C,K1*%
X58760000Y55400000D03*
X61300000Y37600000D03*
D29*
X46100000Y51600000D03*
D30*
X46100000Y41400000D03*
%TD*%
D31*
%TO.C,Q1*%
X47050000Y60575000D03*
X45150000Y60575000D03*
X46100000Y58700000D03*
%TD*%
D25*
%TO.C,R7*%
X47050000Y62575000D03*
X45225000Y62575000D03*
%TD*%
%TO.C,R9*%
X47037500Y35237500D03*
X45212500Y35237500D03*
%TD*%
D14*
%TO.C,R1*%
X56540000Y84100000D03*
D32*
X76860000Y84100000D03*
%TD*%
M02*
