%TF.GenerationSoftware,KiCad,Pcbnew,7.0.9*%
%TF.CreationDate,2024-11-04T23:33:08+09:00*%
%TF.ProjectId,schematic_PWRcutoff,73636865-6d61-4746-9963-5f5057526375,rev?*%
%TF.SameCoordinates,PX4b571c0PY86d97c0*%
%TF.FileFunction,Drillmap*%
%TF.FilePolarity,Positive*%
%FSLAX45Y45*%
G04 Gerber Fmt 4.5, Leading zero omitted, Abs format (unit mm)*
G04 Created by KiCad (PCBNEW 7.0.9) date 2024-11-04 23:33:08*
%MOMM*%
%LPD*%
G01*
G04 APERTURE LIST*
%ADD10C,0.100000*%
%ADD11C,0.200000*%
%ADD12C,0.110000*%
%ADD13C,0.120000*%
%ADD14C,0.160000*%
%ADD15C,0.320000*%
%ADD16C,0.450000*%
G04 APERTURE END LIST*
D10*
X10030000Y9650000D02*
G75*
G03*
X9680000Y10000000I-350000J0D01*
G01*
X9680000Y0D02*
G75*
G03*
X10030000Y350000I0J350000D01*
G01*
X30000Y350000D02*
G75*
G03*
X380000Y0I350000J0D01*
G01*
X380000Y10000000D02*
G75*
G03*
X30000Y9650000I0J-350000D01*
G01*
X9680000Y10000000D02*
X380000Y10000000D01*
X380000Y0D02*
X9680000Y0D01*
X30000Y9650000D02*
X30000Y350000D01*
X10030000Y350000D02*
X10030000Y9650000D01*
D11*
D10*
X50000Y7950000D02*
X90000Y7910000D01*
X90000Y7950000D02*
X50000Y7910000D01*
X50000Y6950000D02*
X90000Y6910000D01*
X90000Y6950000D02*
X50000Y6910000D01*
X50000Y6450000D02*
X90000Y6410000D01*
X90000Y6450000D02*
X50000Y6410000D01*
X50000Y5950000D02*
X90000Y5910000D01*
X90000Y5950000D02*
X50000Y5910000D01*
X50000Y5450000D02*
X90000Y5410000D01*
X90000Y5450000D02*
X50000Y5410000D01*
X50000Y4950000D02*
X90000Y4910000D01*
X90000Y4950000D02*
X50000Y4910000D01*
X50000Y4450000D02*
X90000Y4410000D01*
X90000Y4450000D02*
X50000Y4410000D01*
X50000Y3950000D02*
X90000Y3910000D01*
X90000Y3950000D02*
X50000Y3910000D01*
X50000Y3450000D02*
X90000Y3410000D01*
X90000Y3450000D02*
X50000Y3410000D01*
X50000Y2950000D02*
X90000Y2910000D01*
X90000Y2950000D02*
X50000Y2910000D01*
X50000Y2450000D02*
X90000Y2410000D01*
X90000Y2450000D02*
X50000Y2410000D01*
X50000Y1950000D02*
X90000Y1910000D01*
X90000Y1950000D02*
X50000Y1910000D01*
X320000Y7950000D02*
X360000Y7910000D01*
X360000Y7950000D02*
X320000Y7910000D01*
X320000Y6950000D02*
X360000Y6910000D01*
X360000Y6950000D02*
X320000Y6910000D01*
X320000Y6450000D02*
X360000Y6410000D01*
X360000Y6450000D02*
X320000Y6410000D01*
X320000Y5950000D02*
X360000Y5910000D01*
X360000Y5950000D02*
X320000Y5910000D01*
X320000Y5450000D02*
X360000Y5410000D01*
X360000Y5450000D02*
X320000Y5410000D01*
X320000Y4950000D02*
X360000Y4910000D01*
X360000Y4950000D02*
X320000Y4910000D01*
X320000Y4450000D02*
X360000Y4410000D01*
X360000Y4450000D02*
X320000Y4410000D01*
X320000Y3950000D02*
X360000Y3910000D01*
X360000Y3950000D02*
X320000Y3910000D01*
X320000Y3450000D02*
X360000Y3410000D01*
X360000Y3450000D02*
X320000Y3410000D01*
X320000Y2950000D02*
X360000Y2910000D01*
X360000Y2950000D02*
X320000Y2910000D01*
X320000Y2450000D02*
X360000Y2410000D01*
X360000Y2450000D02*
X320000Y2410000D01*
X320000Y1950000D02*
X360000Y1910000D01*
X360000Y1950000D02*
X320000Y1910000D01*
X320000Y1450000D02*
X360000Y1410000D01*
X360000Y1450000D02*
X320000Y1410000D01*
X320000Y950000D02*
X360000Y910000D01*
X360000Y950000D02*
X320000Y910000D01*
X820000Y9950000D02*
X860000Y9910000D01*
X860000Y9950000D02*
X820000Y9910000D01*
X820000Y9450000D02*
X860000Y9410000D01*
X860000Y9450000D02*
X820000Y9410000D01*
X820000Y7950000D02*
X860000Y7910000D01*
X860000Y7950000D02*
X820000Y7910000D01*
X820000Y4950000D02*
X860000Y4910000D01*
X860000Y4950000D02*
X820000Y4910000D01*
X820000Y4450000D02*
X860000Y4410000D01*
X860000Y4450000D02*
X820000Y4410000D01*
X820000Y3950000D02*
X860000Y3910000D01*
X860000Y3950000D02*
X820000Y3910000D01*
X820000Y3450000D02*
X860000Y3410000D01*
X860000Y3450000D02*
X820000Y3410000D01*
X820000Y2950000D02*
X860000Y2910000D01*
X860000Y2950000D02*
X820000Y2910000D01*
X820000Y2450000D02*
X860000Y2410000D01*
X860000Y2450000D02*
X820000Y2410000D01*
X820000Y1950000D02*
X860000Y1910000D01*
X860000Y1950000D02*
X820000Y1910000D01*
X820000Y1450000D02*
X860000Y1410000D01*
X860000Y1450000D02*
X820000Y1410000D01*
X820000Y950000D02*
X860000Y910000D01*
X860000Y950000D02*
X820000Y910000D01*
X820000Y450000D02*
X860000Y410000D01*
X860000Y450000D02*
X820000Y410000D01*
X820000Y60000D02*
X860000Y20000D01*
X860000Y60000D02*
X820000Y20000D01*
X960000Y5520000D02*
X1000000Y5480000D01*
X1000000Y5520000D02*
X960000Y5480000D01*
X1110000Y6450000D02*
X1150000Y6410000D01*
X1150000Y6450000D02*
X1110000Y6410000D01*
X1110000Y5950000D02*
X1150000Y5910000D01*
X1150000Y5950000D02*
X1110000Y5910000D01*
X1320000Y9950000D02*
X1360000Y9910000D01*
X1360000Y9950000D02*
X1320000Y9910000D01*
X1320000Y9450000D02*
X1360000Y9410000D01*
X1360000Y9450000D02*
X1320000Y9410000D01*
X1320000Y7950000D02*
X1360000Y7910000D01*
X1360000Y7950000D02*
X1320000Y7910000D01*
X1320000Y7450000D02*
X1360000Y7410000D01*
X1360000Y7450000D02*
X1320000Y7410000D01*
X1320000Y6950000D02*
X1360000Y6910000D01*
X1360000Y6950000D02*
X1320000Y6910000D01*
X1320000Y6570000D02*
X1360000Y6530000D01*
X1360000Y6570000D02*
X1320000Y6530000D01*
X1320000Y5520000D02*
X1360000Y5480000D01*
X1360000Y5520000D02*
X1320000Y5480000D01*
X1320000Y4950000D02*
X1360000Y4910000D01*
X1360000Y4950000D02*
X1320000Y4910000D01*
X1320000Y4450000D02*
X1360000Y4410000D01*
X1360000Y4450000D02*
X1320000Y4410000D01*
X1320000Y3950000D02*
X1360000Y3910000D01*
X1360000Y3950000D02*
X1320000Y3910000D01*
X1320000Y3450000D02*
X1360000Y3410000D01*
X1360000Y3450000D02*
X1320000Y3410000D01*
X1320000Y2950000D02*
X1360000Y2910000D01*
X1360000Y2950000D02*
X1320000Y2910000D01*
X1320000Y2450000D02*
X1360000Y2410000D01*
X1360000Y2450000D02*
X1320000Y2410000D01*
X1320000Y1950000D02*
X1360000Y1910000D01*
X1360000Y1950000D02*
X1320000Y1910000D01*
X1320000Y60000D02*
X1360000Y20000D01*
X1360000Y60000D02*
X1320000Y20000D01*
X1450000Y1450000D02*
X1490000Y1410000D01*
X1490000Y1450000D02*
X1450000Y1410000D01*
X1530000Y6950000D02*
X1570000Y6910000D01*
X1570000Y6950000D02*
X1530000Y6910000D01*
X1810000Y7450000D02*
X1850000Y7410000D01*
X1850000Y7450000D02*
X1810000Y7410000D01*
X1820000Y9950000D02*
X1860000Y9910000D01*
X1860000Y9950000D02*
X1820000Y9910000D01*
X1820000Y9450000D02*
X1860000Y9410000D01*
X1860000Y9450000D02*
X1820000Y9410000D01*
X1820000Y8410000D02*
X1860000Y8370000D01*
X1860000Y8410000D02*
X1820000Y8370000D01*
X1820000Y7950000D02*
X1860000Y7910000D01*
X1860000Y7950000D02*
X1820000Y7910000D01*
X1820000Y5520000D02*
X1860000Y5480000D01*
X1860000Y5520000D02*
X1820000Y5480000D01*
X1820000Y4950000D02*
X1860000Y4910000D01*
X1860000Y4950000D02*
X1820000Y4910000D01*
X1820000Y4450000D02*
X1860000Y4410000D01*
X1860000Y4450000D02*
X1820000Y4410000D01*
X1820000Y3950000D02*
X1860000Y3910000D01*
X1860000Y3950000D02*
X1820000Y3910000D01*
X1820000Y3450000D02*
X1860000Y3410000D01*
X1860000Y3450000D02*
X1820000Y3410000D01*
X1820000Y2950000D02*
X1860000Y2910000D01*
X1860000Y2950000D02*
X1820000Y2910000D01*
X1820000Y2450000D02*
X1860000Y2410000D01*
X1860000Y2450000D02*
X1820000Y2410000D01*
X1820000Y1950000D02*
X1860000Y1910000D01*
X1860000Y1950000D02*
X1820000Y1910000D01*
X1820000Y1450000D02*
X1860000Y1410000D01*
X1860000Y1450000D02*
X1820000Y1410000D01*
X1820000Y60000D02*
X1860000Y20000D01*
X1860000Y60000D02*
X1820000Y20000D01*
X2320000Y9950000D02*
X2360000Y9910000D01*
X2360000Y9950000D02*
X2320000Y9910000D01*
X2320000Y9450000D02*
X2360000Y9410000D01*
X2360000Y9450000D02*
X2320000Y9410000D01*
X2320000Y8950000D02*
X2360000Y8910000D01*
X2360000Y8950000D02*
X2320000Y8910000D01*
X2320000Y5520000D02*
X2360000Y5480000D01*
X2360000Y5520000D02*
X2320000Y5480000D01*
X2320000Y4950000D02*
X2360000Y4910000D01*
X2360000Y4950000D02*
X2320000Y4910000D01*
X2320000Y4450000D02*
X2360000Y4410000D01*
X2360000Y4450000D02*
X2320000Y4410000D01*
X2320000Y3950000D02*
X2360000Y3910000D01*
X2360000Y3950000D02*
X2320000Y3910000D01*
X2320000Y3450000D02*
X2360000Y3410000D01*
X2360000Y3450000D02*
X2320000Y3410000D01*
X2320000Y2950000D02*
X2360000Y2910000D01*
X2360000Y2950000D02*
X2320000Y2910000D01*
X2320000Y2450000D02*
X2360000Y2410000D01*
X2360000Y2450000D02*
X2320000Y2410000D01*
X2320000Y1950000D02*
X2360000Y1910000D01*
X2360000Y1950000D02*
X2320000Y1910000D01*
X2320000Y1450000D02*
X2360000Y1410000D01*
X2360000Y1450000D02*
X2320000Y1410000D01*
X2320000Y450000D02*
X2360000Y410000D01*
X2360000Y450000D02*
X2320000Y410000D01*
X2320000Y60000D02*
X2360000Y20000D01*
X2360000Y60000D02*
X2320000Y20000D01*
X2360000Y5950000D02*
X2400000Y5910000D01*
X2400000Y5950000D02*
X2360000Y5910000D01*
X2600000Y6450000D02*
X2640000Y6410000D01*
X2640000Y6450000D02*
X2600000Y6410000D01*
X2820000Y6830000D02*
X2860000Y6790000D01*
X2860000Y6830000D02*
X2820000Y6790000D01*
X2820000Y6450000D02*
X2860000Y6410000D01*
X2860000Y6450000D02*
X2820000Y6410000D01*
X2820000Y5950000D02*
X2860000Y5910000D01*
X2860000Y5950000D02*
X2820000Y5910000D01*
X2820000Y4950000D02*
X2860000Y4910000D01*
X2860000Y4950000D02*
X2820000Y4910000D01*
X2820000Y4450000D02*
X2860000Y4410000D01*
X2860000Y4450000D02*
X2820000Y4410000D01*
X2820000Y3950000D02*
X2860000Y3910000D01*
X2860000Y3950000D02*
X2820000Y3910000D01*
X2820000Y3450000D02*
X2860000Y3410000D01*
X2860000Y3450000D02*
X2820000Y3410000D01*
X2820000Y2950000D02*
X2860000Y2910000D01*
X2860000Y2950000D02*
X2820000Y2910000D01*
X2820000Y2450000D02*
X2860000Y2410000D01*
X2860000Y2450000D02*
X2820000Y2410000D01*
X2820000Y1950000D02*
X2860000Y1910000D01*
X2860000Y1950000D02*
X2820000Y1910000D01*
X2820000Y950000D02*
X2860000Y910000D01*
X2860000Y950000D02*
X2820000Y910000D01*
X2820000Y450000D02*
X2860000Y410000D01*
X2860000Y450000D02*
X2820000Y410000D01*
X2820000Y60000D02*
X2860000Y20000D01*
X2860000Y60000D02*
X2820000Y20000D01*
X2830000Y5530000D02*
X2870000Y5490000D01*
X2870000Y5530000D02*
X2830000Y5490000D01*
X3110000Y7290000D02*
X3150000Y7250000D01*
X3150000Y7290000D02*
X3110000Y7250000D01*
X3110000Y6830000D02*
X3150000Y6790000D01*
X3150000Y6830000D02*
X3110000Y6790000D01*
X3110000Y6450000D02*
X3150000Y6410000D01*
X3150000Y6450000D02*
X3110000Y6410000D01*
X3110000Y5950000D02*
X3150000Y5910000D01*
X3150000Y5950000D02*
X3110000Y5910000D01*
X3299754Y1949754D02*
X3339754Y1909754D01*
X3339754Y1949754D02*
X3299754Y1909754D01*
X3320000Y1450000D02*
X3360000Y1410000D01*
X3360000Y1450000D02*
X3320000Y1410000D01*
X3320000Y950000D02*
X3360000Y910000D01*
X3360000Y950000D02*
X3320000Y910000D01*
X3320000Y450000D02*
X3360000Y410000D01*
X3360000Y450000D02*
X3320000Y410000D01*
X3320000Y60000D02*
X3360000Y20000D01*
X3360000Y60000D02*
X3320000Y20000D01*
X3430000Y6450000D02*
X3470000Y6410000D01*
X3470000Y6450000D02*
X3430000Y6410000D01*
X3430000Y6060000D02*
X3470000Y6020000D01*
X3470000Y6060000D02*
X3430000Y6020000D01*
X3450000Y5010000D02*
X3490000Y4970000D01*
X3490000Y5010000D02*
X3450000Y4970000D01*
X3450000Y4690000D02*
X3490000Y4650000D01*
X3490000Y4690000D02*
X3450000Y4650000D01*
X3455246Y2105246D02*
X3495246Y2065246D01*
X3495246Y2105246D02*
X3455246Y2065246D01*
X3530000Y8280000D02*
X3570000Y8240000D01*
X3570000Y8280000D02*
X3530000Y8240000D01*
X3530000Y7900000D02*
X3570000Y7860000D01*
X3570000Y7900000D02*
X3530000Y7860000D01*
X3530000Y7650000D02*
X3570000Y7610000D01*
X3570000Y7650000D02*
X3530000Y7610000D01*
X3570000Y4450000D02*
X3610000Y4410000D01*
X3610000Y4450000D02*
X3570000Y4410000D01*
X3570000Y3950000D02*
X3610000Y3910000D01*
X3610000Y3950000D02*
X3570000Y3910000D01*
X3570000Y3260000D02*
X3610000Y3220000D01*
X3610000Y3260000D02*
X3570000Y3220000D01*
X3580000Y5750000D02*
X3620000Y5710000D01*
X3620000Y5750000D02*
X3580000Y5710000D01*
X3580000Y5450000D02*
X3620000Y5410000D01*
X3620000Y5450000D02*
X3580000Y5410000D01*
X3580000Y5030000D02*
X3620000Y4990000D01*
X3620000Y5030000D02*
X3580000Y4990000D01*
X3820000Y9950000D02*
X3860000Y9910000D01*
X3860000Y9950000D02*
X3820000Y9910000D01*
X3820000Y8950000D02*
X3860000Y8910000D01*
X3860000Y8950000D02*
X3820000Y8910000D01*
X3820000Y8450000D02*
X3860000Y8410000D01*
X3860000Y8450000D02*
X3820000Y8410000D01*
X3820000Y7950000D02*
X3860000Y7910000D01*
X3860000Y7950000D02*
X3820000Y7910000D01*
X3820000Y7650000D02*
X3860000Y7610000D01*
X3860000Y7650000D02*
X3820000Y7610000D01*
X3820000Y6040000D02*
X3860000Y6000000D01*
X3860000Y6040000D02*
X3820000Y6000000D01*
X3820000Y5450000D02*
X3860000Y5410000D01*
X3860000Y5450000D02*
X3820000Y5410000D01*
X3820000Y5030000D02*
X3860000Y4990000D01*
X3860000Y5030000D02*
X3820000Y4990000D01*
X3820000Y3950000D02*
X3860000Y3910000D01*
X3860000Y3950000D02*
X3820000Y3910000D01*
X3820000Y3520000D02*
X3860000Y3480000D01*
X3860000Y3520000D02*
X3820000Y3480000D01*
X3820000Y2950000D02*
X3860000Y2910000D01*
X3860000Y2950000D02*
X3820000Y2910000D01*
X3820000Y2450000D02*
X3860000Y2410000D01*
X3860000Y2450000D02*
X3820000Y2410000D01*
X3820000Y950000D02*
X3860000Y910000D01*
X3860000Y950000D02*
X3820000Y910000D01*
X3820000Y450000D02*
X3860000Y410000D01*
X3860000Y450000D02*
X3820000Y410000D01*
X3820000Y60000D02*
X3860000Y20000D01*
X3860000Y60000D02*
X3820000Y20000D01*
X3850000Y6420000D02*
X3890000Y6380000D01*
X3890000Y6420000D02*
X3850000Y6380000D01*
X4310000Y6580000D02*
X4350000Y6540000D01*
X4350000Y6580000D02*
X4310000Y6540000D01*
X4320000Y9950000D02*
X4360000Y9910000D01*
X4360000Y9950000D02*
X4320000Y9910000D01*
X4320000Y9450000D02*
X4360000Y9410000D01*
X4360000Y9450000D02*
X4320000Y9410000D01*
X4320000Y8950000D02*
X4360000Y8910000D01*
X4360000Y8950000D02*
X4320000Y8910000D01*
X4320000Y8450000D02*
X4360000Y8410000D01*
X4360000Y8450000D02*
X4320000Y8410000D01*
X4320000Y7950000D02*
X4360000Y7910000D01*
X4360000Y7950000D02*
X4320000Y7910000D01*
X4320000Y7650000D02*
X4360000Y7610000D01*
X4360000Y7650000D02*
X4320000Y7610000D01*
X4320000Y5950000D02*
X4360000Y5910000D01*
X4360000Y5950000D02*
X4320000Y5910000D01*
X4320000Y5450000D02*
X4360000Y5410000D01*
X4360000Y5450000D02*
X4320000Y5410000D01*
X4320000Y5130000D02*
X4360000Y5090000D01*
X4360000Y5130000D02*
X4320000Y5090000D01*
X4320000Y3950000D02*
X4360000Y3910000D01*
X4360000Y3950000D02*
X4320000Y3910000D01*
X4320000Y3650000D02*
X4360000Y3610000D01*
X4360000Y3650000D02*
X4320000Y3610000D01*
X4320000Y2950000D02*
X4360000Y2910000D01*
X4360000Y2950000D02*
X4320000Y2910000D01*
X4320000Y2450000D02*
X4360000Y2410000D01*
X4360000Y2450000D02*
X4320000Y2410000D01*
X4320000Y950000D02*
X4360000Y910000D01*
X4360000Y950000D02*
X4320000Y910000D01*
X4320000Y450000D02*
X4360000Y410000D01*
X4360000Y450000D02*
X4320000Y410000D01*
X4320000Y60000D02*
X4360000Y20000D01*
X4360000Y60000D02*
X4320000Y20000D01*
X4453800Y6650000D02*
X4493800Y6610000D01*
X4493800Y6650000D02*
X4453800Y6610000D01*
X4518750Y6840000D02*
X4558750Y6800000D01*
X4558750Y6840000D02*
X4518750Y6800000D01*
X5600000Y9220000D02*
X5640000Y9180000D01*
X5640000Y9220000D02*
X5600000Y9180000D01*
X165000Y9650000D02*
G75*
G03*
X165000Y9650000I-25000J0D01*
G01*
X165000Y350000D02*
G75*
G03*
X165000Y350000I-25000J0D01*
G01*
X235294Y9819706D02*
G75*
G03*
X235294Y9819706I-25000J0D01*
G01*
X235294Y9480294D02*
G75*
G03*
X235294Y9480294I-25000J0D01*
G01*
X235294Y519706D02*
G75*
G03*
X235294Y519706I-25000J0D01*
G01*
X235294Y180294D02*
G75*
G03*
X235294Y180294I-25000J0D01*
G01*
X405000Y9890000D02*
G75*
G03*
X405000Y9890000I-25000J0D01*
G01*
X405000Y9410000D02*
G75*
G03*
X405000Y9410000I-25000J0D01*
G01*
X405000Y590000D02*
G75*
G03*
X405000Y590000I-25000J0D01*
G01*
X405000Y110000D02*
G75*
G03*
X405000Y110000I-25000J0D01*
G01*
X574706Y9819706D02*
G75*
G03*
X574706Y9819706I-25000J0D01*
G01*
X574706Y9480294D02*
G75*
G03*
X574706Y9480294I-25000J0D01*
G01*
X574706Y519706D02*
G75*
G03*
X574706Y519706I-25000J0D01*
G01*
X574706Y180294D02*
G75*
G03*
X574706Y180294I-25000J0D01*
G01*
X645000Y9650000D02*
G75*
G03*
X645000Y9650000I-25000J0D01*
G01*
X645000Y350000D02*
G75*
G03*
X645000Y350000I-25000J0D01*
G01*
X9465000Y9650000D02*
G75*
G03*
X9465000Y9650000I-25000J0D01*
G01*
X9465000Y350000D02*
G75*
G03*
X9465000Y350000I-25000J0D01*
G01*
X9535294Y9819706D02*
G75*
G03*
X9535294Y9819706I-25000J0D01*
G01*
X9535294Y9480294D02*
G75*
G03*
X9535294Y9480294I-25000J0D01*
G01*
X9535294Y519706D02*
G75*
G03*
X9535294Y519706I-25000J0D01*
G01*
X9535294Y180294D02*
G75*
G03*
X9535294Y180294I-25000J0D01*
G01*
X9705000Y9890000D02*
G75*
G03*
X9705000Y9890000I-25000J0D01*
G01*
X9705000Y9410000D02*
G75*
G03*
X9705000Y9410000I-25000J0D01*
G01*
X9705000Y590000D02*
G75*
G03*
X9705000Y590000I-25000J0D01*
G01*
X9705000Y110000D02*
G75*
G03*
X9705000Y110000I-25000J0D01*
G01*
X9874706Y9819706D02*
G75*
G03*
X9874706Y9819706I-25000J0D01*
G01*
X9874706Y9480294D02*
G75*
G03*
X9874706Y9480294I-25000J0D01*
G01*
X9874706Y519706D02*
G75*
G03*
X9874706Y519706I-25000J0D01*
G01*
X9874706Y180294D02*
G75*
G03*
X9874706Y180294I-25000J0D01*
G01*
X9945000Y9650000D02*
G75*
G03*
X9945000Y9650000I-25000J0D01*
G01*
X9945000Y350000D02*
G75*
G03*
X9945000Y350000I-25000J0D01*
G01*
X3079735Y8100000D02*
X3079735Y8020000D01*
X3039735Y8060000D02*
X3119735Y8060000D01*
X3185000Y8890000D02*
X3185000Y8810000D01*
X3145000Y8850000D02*
X3225000Y8850000D01*
X3579735Y8100000D02*
X3579735Y8020000D01*
X3539735Y8060000D02*
X3619735Y8060000D01*
X3935000Y8710000D02*
X3935000Y8630000D01*
X3895000Y8670000D02*
X3975000Y8670000D01*
X383588Y7491412D02*
X383588Y7558588D01*
X316412Y7558588D01*
X316412Y7491412D01*
X383588Y7491412D01*
X383588Y6646412D02*
X383588Y6713588D01*
X316412Y6713588D01*
X316412Y6646412D01*
X383588Y6646412D01*
X633588Y7491412D02*
X633588Y7558588D01*
X566412Y7558588D01*
X566412Y7491412D01*
X633588Y7491412D01*
X633588Y6646412D02*
X633588Y6713588D01*
X566412Y6713588D01*
X566412Y6646412D01*
X633588Y6646412D01*
X883588Y7491412D02*
X883588Y7558588D01*
X816412Y7558588D01*
X816412Y7491412D01*
X883588Y7491412D01*
X883588Y6646412D02*
X883588Y6713588D01*
X816412Y6713588D01*
X816412Y6646412D01*
X883588Y6646412D01*
X1133588Y7491412D02*
X1133588Y7558588D01*
X1066412Y7558588D01*
X1066412Y7491412D01*
X1133588Y7491412D01*
X1133588Y6646412D02*
X1133588Y6713588D01*
X1066412Y6713588D01*
X1066412Y6646412D01*
X1133588Y6646412D01*
X1278588Y376412D02*
X1278588Y443588D01*
X1211412Y443588D01*
X1211412Y376412D01*
X1278588Y376412D01*
X1528588Y376412D02*
X1528588Y443588D01*
X1461412Y443588D01*
X1461412Y376412D01*
X1528588Y376412D01*
X350000Y5630000D02*
X400000Y5680000D01*
X350000Y5730000D01*
X300000Y5680000D01*
X350000Y5630000D01*
X350000Y1630000D02*
X400000Y1680000D01*
X350000Y1730000D01*
X300000Y1680000D01*
X350000Y1630000D01*
X604000Y5630000D02*
X654000Y5680000D01*
X604000Y5730000D01*
X554000Y5680000D01*
X604000Y5630000D01*
X604000Y1630000D02*
X654000Y1680000D01*
X604000Y1730000D01*
X554000Y1680000D01*
X604000Y1630000D01*
X858000Y5630000D02*
X908000Y5680000D01*
X858000Y5730000D01*
X808000Y5680000D01*
X858000Y5630000D01*
X858000Y1630000D02*
X908000Y1680000D01*
X858000Y1730000D01*
X808000Y1680000D01*
X858000Y1630000D01*
X1112000Y5630000D02*
X1162000Y5680000D01*
X1112000Y5730000D01*
X1062000Y5680000D01*
X1112000Y5630000D01*
X1112000Y1630000D02*
X1162000Y1680000D01*
X1112000Y1730000D01*
X1062000Y1680000D01*
X1112000Y1630000D01*
X1242500Y960000D02*
X1292500Y1010000D01*
X1242500Y1060000D01*
X1192500Y1010000D01*
X1242500Y960000D01*
X1366000Y5630000D02*
X1416000Y5680000D01*
X1366000Y5730000D01*
X1316000Y5680000D01*
X1366000Y5630000D01*
X1366000Y1630000D02*
X1416000Y1680000D01*
X1366000Y1730000D01*
X1316000Y1680000D01*
X1366000Y1630000D01*
X1496500Y960000D02*
X1546500Y1010000D01*
X1496500Y1060000D01*
X1446500Y1010000D01*
X1496500Y960000D01*
X1620000Y5630000D02*
X1670000Y5680000D01*
X1620000Y5730000D01*
X1570000Y5680000D01*
X1620000Y5630000D01*
X1620000Y1630000D02*
X1670000Y1680000D01*
X1620000Y1730000D01*
X1570000Y1680000D01*
X1620000Y1630000D01*
X1874000Y5630000D02*
X1924000Y5680000D01*
X1874000Y5730000D01*
X1824000Y5680000D01*
X1874000Y5630000D01*
X1874000Y1630000D02*
X1924000Y1680000D01*
X1874000Y1730000D01*
X1824000Y1680000D01*
X1874000Y1630000D01*
X2128000Y5630000D02*
X2178000Y5680000D01*
X2128000Y5730000D01*
X2078000Y5680000D01*
X2128000Y5630000D01*
X2128000Y1630000D02*
X2178000Y1680000D01*
X2128000Y1730000D01*
X2078000Y1680000D01*
X2128000Y1630000D01*
X3290000Y5927500D02*
X3340000Y5977500D01*
X3290000Y6027500D01*
X3240000Y5977500D01*
X3290000Y5927500D01*
X3290000Y5673500D02*
X3340000Y5723500D01*
X3290000Y5773500D01*
X3240000Y5723500D01*
X3290000Y5673500D01*
X5290000Y500000D02*
X5340000Y550000D01*
X5290000Y600000D01*
X5240000Y550000D01*
X5290000Y500000D01*
X5290000Y246000D02*
X5340000Y296000D01*
X5290000Y346000D01*
X5240000Y296000D01*
X5290000Y246000D01*
D12*
X4555000Y5215000D02*
X4665000Y5105000D01*
X4665000Y5215000D02*
X4555000Y5105000D01*
X4665000Y5160000D02*
G75*
G03*
X4665000Y5160000I-55000J0D01*
G01*
X4555000Y4195000D02*
X4665000Y4085000D01*
X4665000Y4195000D02*
X4555000Y4085000D01*
X4665000Y4140000D02*
G75*
G03*
X4665000Y4140000I-55000J0D01*
G01*
X4555000Y2345000D02*
X4665000Y2235000D01*
X4665000Y2345000D02*
X4555000Y2235000D01*
X4665000Y2290000D02*
G75*
G03*
X4665000Y2290000I-55000J0D01*
G01*
X4555000Y1325000D02*
X4665000Y1215000D01*
X4665000Y1325000D02*
X4555000Y1215000D01*
X4665000Y1270000D02*
G75*
G03*
X4665000Y1270000I-55000J0D01*
G01*
D13*
X5594000Y8470000D02*
X5714000Y8350000D01*
X5714000Y8470000D02*
X5594000Y8350000D01*
X5654000Y8470000D02*
X5654000Y8350000D01*
X5594000Y8410000D02*
X5714000Y8410000D01*
X6520000Y7540000D02*
X6640000Y7420000D01*
X6640000Y7540000D02*
X6520000Y7420000D01*
X6580000Y7540000D02*
X6580000Y7420000D01*
X6520000Y7480000D02*
X6640000Y7480000D01*
X6520000Y6790000D02*
X6640000Y6670000D01*
X6640000Y6790000D02*
X6520000Y6670000D01*
X6580000Y6790000D02*
X6580000Y6670000D01*
X6520000Y6730000D02*
X6640000Y6730000D01*
X7626000Y8470000D02*
X7746000Y8350000D01*
X7746000Y8470000D02*
X7626000Y8350000D01*
X7686000Y8470000D02*
X7686000Y8350000D01*
X7626000Y8410000D02*
X7746000Y8410000D01*
D14*
X5796000Y5620000D02*
X5956000Y5460000D01*
X5956000Y5620000D02*
X5796000Y5460000D01*
X5932569Y5483431D02*
X5932569Y5596569D01*
X5819431Y5596569D01*
X5819431Y5483431D01*
X5932569Y5483431D01*
X5796000Y2750000D02*
X5956000Y2590000D01*
X5956000Y2750000D02*
X5796000Y2590000D01*
X5932569Y2613431D02*
X5932569Y2726569D01*
X5819431Y2726569D01*
X5819431Y2613431D01*
X5932569Y2613431D01*
X6050000Y3840000D02*
X6210000Y3680000D01*
X6210000Y3840000D02*
X6050000Y3680000D01*
X6186569Y3703431D02*
X6186569Y3816569D01*
X6073431Y3816569D01*
X6073431Y3703431D01*
X6186569Y3703431D01*
X6050000Y970000D02*
X6210000Y810000D01*
X6210000Y970000D02*
X6050000Y810000D01*
X6186569Y833431D02*
X6186569Y946569D01*
X6073431Y946569D01*
X6073431Y833431D01*
X6186569Y833431D01*
D15*
X220000Y9810000D02*
X540000Y9490000D01*
X540000Y9810000D02*
X220000Y9490000D01*
X380000Y9490000D02*
X540000Y9650000D01*
X380000Y9810000D01*
X220000Y9650000D01*
X380000Y9490000D01*
X220000Y510000D02*
X540000Y190000D01*
X540000Y510000D02*
X220000Y190000D01*
X380000Y190000D02*
X540000Y350000D01*
X380000Y510000D01*
X220000Y350000D01*
X380000Y190000D01*
X9520000Y9810000D02*
X9840000Y9490000D01*
X9840000Y9810000D02*
X9520000Y9490000D01*
X9680000Y9490000D02*
X9840000Y9650000D01*
X9680000Y9810000D01*
X9520000Y9650000D01*
X9680000Y9490000D01*
X9520000Y510000D02*
X9840000Y190000D01*
X9840000Y510000D02*
X9520000Y190000D01*
X9680000Y190000D02*
X9840000Y350000D01*
X9680000Y510000D01*
X9520000Y350000D01*
X9680000Y190000D01*
D16*
X490000Y8765000D02*
X490000Y8315000D01*
X265000Y8540000D02*
X715000Y8540000D01*
X715000Y8540000D02*
G75*
G03*
X715000Y8540000I-225000J0D01*
G01*
X1210000Y8765000D02*
X1210000Y8315000D01*
X985000Y8540000D02*
X1435000Y8540000D01*
X1435000Y8540000D02*
G75*
G03*
X1435000Y8540000I-225000J0D01*
G01*
X3200000Y9705000D02*
X3200000Y9255000D01*
X2975000Y9480000D02*
X3425000Y9480000D01*
X3425000Y9480000D02*
G75*
G03*
X3425000Y9480000I-225000J0D01*
G01*
X3920000Y9705000D02*
X3920000Y9255000D01*
X3695000Y9480000D02*
X4145000Y9480000D01*
X4145000Y9480000D02*
G75*
G03*
X4145000Y9480000I-225000J0D01*
G01*
X6570000Y9642500D02*
X6570000Y9192500D01*
X6345000Y9417500D02*
X6795000Y9417500D01*
X6795000Y9417500D02*
G75*
G03*
X6795000Y9417500I-225000J0D01*
G01*
X7670000Y9642500D02*
X7670000Y9192500D01*
X7445000Y9417500D02*
X7895000Y9417500D01*
X7895000Y9417500D02*
G75*
G03*
X7895000Y9417500I-225000J0D01*
G01*
X8670000Y2795000D02*
X8670000Y2345000D01*
X8445000Y2570000D02*
X8895000Y2570000D01*
X8895000Y2570000D02*
G75*
G03*
X8895000Y2570000I-225000J0D01*
G01*
X8670000Y1395000D02*
X8670000Y945000D01*
X8445000Y1170000D02*
X8895000Y1170000D01*
X8895000Y1170000D02*
G75*
G03*
X8895000Y1170000I-225000J0D01*
G01*
X8690000Y5645000D02*
X8690000Y5195000D01*
X8465000Y5420000D02*
X8915000Y5420000D01*
X8915000Y5420000D02*
G75*
G03*
X8915000Y5420000I-225000J0D01*
G01*
X8690000Y4305000D02*
X8690000Y3855000D01*
X8465000Y4080000D02*
X8915000Y4080000D01*
X8915000Y4080000D02*
G75*
G03*
X8915000Y4080000I-225000J0D01*
G01*
X9390000Y2795000D02*
X9390000Y2345000D01*
X9165000Y2570000D02*
X9615000Y2570000D01*
X9615000Y2570000D02*
G75*
G03*
X9615000Y2570000I-225000J0D01*
G01*
X9390000Y1395000D02*
X9390000Y945000D01*
X9165000Y1170000D02*
X9615000Y1170000D01*
X9615000Y1170000D02*
G75*
G03*
X9615000Y1170000I-225000J0D01*
G01*
X9410000Y5645000D02*
X9410000Y5195000D01*
X9185000Y5420000D02*
X9635000Y5420000D01*
X9635000Y5420000D02*
G75*
G03*
X9635000Y5420000I-225000J0D01*
G01*
X9410000Y4305000D02*
X9410000Y3855000D01*
X9185000Y4080000D02*
X9635000Y4080000D01*
X9635000Y4080000D02*
G75*
G03*
X9635000Y4080000I-225000J0D01*
G01*
D11*
X285777Y-316484D02*
X285777Y-116484D01*
X285777Y-116484D02*
X333396Y-116484D01*
X333396Y-116484D02*
X361967Y-126008D01*
X361967Y-126008D02*
X381015Y-145055D01*
X381015Y-145055D02*
X390539Y-164103D01*
X390539Y-164103D02*
X400062Y-202198D01*
X400062Y-202198D02*
X400062Y-230769D01*
X400062Y-230769D02*
X390539Y-268865D01*
X390539Y-268865D02*
X381015Y-287912D01*
X381015Y-287912D02*
X361967Y-306960D01*
X361967Y-306960D02*
X333396Y-316484D01*
X333396Y-316484D02*
X285777Y-316484D01*
X485777Y-316484D02*
X485777Y-183150D01*
X485777Y-221246D02*
X495301Y-202198D01*
X495301Y-202198D02*
X504824Y-192674D01*
X504824Y-192674D02*
X523872Y-183150D01*
X523872Y-183150D02*
X542920Y-183150D01*
X609586Y-316484D02*
X609586Y-183150D01*
X609586Y-116484D02*
X600063Y-126008D01*
X600063Y-126008D02*
X609586Y-135531D01*
X609586Y-135531D02*
X619110Y-126008D01*
X619110Y-126008D02*
X609586Y-116484D01*
X609586Y-116484D02*
X609586Y-135531D01*
X733396Y-316484D02*
X714348Y-306960D01*
X714348Y-306960D02*
X704824Y-287912D01*
X704824Y-287912D02*
X704824Y-116484D01*
X838158Y-316484D02*
X819110Y-306960D01*
X819110Y-306960D02*
X809586Y-287912D01*
X809586Y-287912D02*
X809586Y-116484D01*
X1066729Y-316484D02*
X1066729Y-116484D01*
X1066729Y-116484D02*
X1133396Y-259341D01*
X1133396Y-259341D02*
X1200063Y-116484D01*
X1200063Y-116484D02*
X1200063Y-316484D01*
X1381015Y-316484D02*
X1381015Y-211722D01*
X1381015Y-211722D02*
X1371491Y-192674D01*
X1371491Y-192674D02*
X1352444Y-183150D01*
X1352444Y-183150D02*
X1314348Y-183150D01*
X1314348Y-183150D02*
X1295301Y-192674D01*
X1381015Y-306960D02*
X1361967Y-316484D01*
X1361967Y-316484D02*
X1314348Y-316484D01*
X1314348Y-316484D02*
X1295301Y-306960D01*
X1295301Y-306960D02*
X1285777Y-287912D01*
X1285777Y-287912D02*
X1285777Y-268865D01*
X1285777Y-268865D02*
X1295301Y-249817D01*
X1295301Y-249817D02*
X1314348Y-240293D01*
X1314348Y-240293D02*
X1361967Y-240293D01*
X1361967Y-240293D02*
X1381015Y-230769D01*
X1476253Y-183150D02*
X1476253Y-383150D01*
X1476253Y-192674D02*
X1495301Y-183150D01*
X1495301Y-183150D02*
X1533396Y-183150D01*
X1533396Y-183150D02*
X1552443Y-192674D01*
X1552443Y-192674D02*
X1561967Y-202198D01*
X1561967Y-202198D02*
X1571491Y-221246D01*
X1571491Y-221246D02*
X1571491Y-278389D01*
X1571491Y-278389D02*
X1561967Y-297436D01*
X1561967Y-297436D02*
X1552443Y-306960D01*
X1552443Y-306960D02*
X1533396Y-316484D01*
X1533396Y-316484D02*
X1495301Y-316484D01*
X1495301Y-316484D02*
X1476253Y-306960D01*
X1657205Y-297436D02*
X1666729Y-306960D01*
X1666729Y-306960D02*
X1657205Y-316484D01*
X1657205Y-316484D02*
X1647682Y-306960D01*
X1647682Y-306960D02*
X1657205Y-297436D01*
X1657205Y-297436D02*
X1657205Y-316484D01*
X1657205Y-192674D02*
X1666729Y-202198D01*
X1666729Y-202198D02*
X1657205Y-211722D01*
X1657205Y-211722D02*
X1647682Y-202198D01*
X1647682Y-202198D02*
X1657205Y-192674D01*
X1657205Y-192674D02*
X1657205Y-211722D01*
D10*
X-15000Y-625000D02*
X25000Y-665000D01*
X25000Y-625000D02*
X-15000Y-665000D01*
D11*
X323872Y-536484D02*
X342920Y-536484D01*
X342920Y-536484D02*
X361967Y-546008D01*
X361967Y-546008D02*
X371491Y-555531D01*
X371491Y-555531D02*
X381015Y-574579D01*
X381015Y-574579D02*
X390539Y-612674D01*
X390539Y-612674D02*
X390539Y-660293D01*
X390539Y-660293D02*
X381015Y-698389D01*
X381015Y-698389D02*
X371491Y-717436D01*
X371491Y-717436D02*
X361967Y-726960D01*
X361967Y-726960D02*
X342920Y-736484D01*
X342920Y-736484D02*
X323872Y-736484D01*
X323872Y-736484D02*
X304824Y-726960D01*
X304824Y-726960D02*
X295301Y-717436D01*
X295301Y-717436D02*
X285777Y-698389D01*
X285777Y-698389D02*
X276253Y-660293D01*
X276253Y-660293D02*
X276253Y-612674D01*
X276253Y-612674D02*
X285777Y-574579D01*
X285777Y-574579D02*
X295301Y-555531D01*
X295301Y-555531D02*
X304824Y-546008D01*
X304824Y-546008D02*
X323872Y-536484D01*
X476253Y-717436D02*
X485777Y-726960D01*
X485777Y-726960D02*
X476253Y-736484D01*
X476253Y-736484D02*
X466729Y-726960D01*
X466729Y-726960D02*
X476253Y-717436D01*
X476253Y-717436D02*
X476253Y-736484D01*
X657205Y-603150D02*
X657205Y-736484D01*
X609586Y-526960D02*
X561967Y-669817D01*
X561967Y-669817D02*
X685777Y-669817D01*
X800062Y-536484D02*
X819110Y-536484D01*
X819110Y-536484D02*
X838158Y-546008D01*
X838158Y-546008D02*
X847682Y-555531D01*
X847682Y-555531D02*
X857205Y-574579D01*
X857205Y-574579D02*
X866729Y-612674D01*
X866729Y-612674D02*
X866729Y-660293D01*
X866729Y-660293D02*
X857205Y-698389D01*
X857205Y-698389D02*
X847682Y-717436D01*
X847682Y-717436D02*
X838158Y-726960D01*
X838158Y-726960D02*
X819110Y-736484D01*
X819110Y-736484D02*
X800062Y-736484D01*
X800062Y-736484D02*
X781015Y-726960D01*
X781015Y-726960D02*
X771491Y-717436D01*
X771491Y-717436D02*
X761967Y-698389D01*
X761967Y-698389D02*
X752443Y-660293D01*
X752443Y-660293D02*
X752443Y-612674D01*
X752443Y-612674D02*
X761967Y-574579D01*
X761967Y-574579D02*
X771491Y-555531D01*
X771491Y-555531D02*
X781015Y-546008D01*
X781015Y-546008D02*
X800062Y-536484D01*
X990539Y-536484D02*
X1009586Y-536484D01*
X1009586Y-536484D02*
X1028634Y-546008D01*
X1028634Y-546008D02*
X1038158Y-555531D01*
X1038158Y-555531D02*
X1047682Y-574579D01*
X1047682Y-574579D02*
X1057205Y-612674D01*
X1057205Y-612674D02*
X1057205Y-660293D01*
X1057205Y-660293D02*
X1047682Y-698389D01*
X1047682Y-698389D02*
X1038158Y-717436D01*
X1038158Y-717436D02*
X1028634Y-726960D01*
X1028634Y-726960D02*
X1009586Y-736484D01*
X1009586Y-736484D02*
X990539Y-736484D01*
X990539Y-736484D02*
X971491Y-726960D01*
X971491Y-726960D02*
X961967Y-717436D01*
X961967Y-717436D02*
X952443Y-698389D01*
X952443Y-698389D02*
X942920Y-660293D01*
X942920Y-660293D02*
X942920Y-612674D01*
X942920Y-612674D02*
X952443Y-574579D01*
X952443Y-574579D02*
X961967Y-555531D01*
X961967Y-555531D02*
X971491Y-546008D01*
X971491Y-546008D02*
X990539Y-536484D01*
X1142920Y-736484D02*
X1142920Y-603150D01*
X1142920Y-622198D02*
X1152444Y-612674D01*
X1152444Y-612674D02*
X1171491Y-603150D01*
X1171491Y-603150D02*
X1200063Y-603150D01*
X1200063Y-603150D02*
X1219110Y-612674D01*
X1219110Y-612674D02*
X1228634Y-631722D01*
X1228634Y-631722D02*
X1228634Y-736484D01*
X1228634Y-631722D02*
X1238158Y-612674D01*
X1238158Y-612674D02*
X1257205Y-603150D01*
X1257205Y-603150D02*
X1285777Y-603150D01*
X1285777Y-603150D02*
X1304825Y-612674D01*
X1304825Y-612674D02*
X1314348Y-631722D01*
X1314348Y-631722D02*
X1314348Y-736484D01*
X1409586Y-736484D02*
X1409586Y-603150D01*
X1409586Y-622198D02*
X1419110Y-612674D01*
X1419110Y-612674D02*
X1438158Y-603150D01*
X1438158Y-603150D02*
X1466729Y-603150D01*
X1466729Y-603150D02*
X1485777Y-612674D01*
X1485777Y-612674D02*
X1495301Y-631722D01*
X1495301Y-631722D02*
X1495301Y-736484D01*
X1495301Y-631722D02*
X1504824Y-612674D01*
X1504824Y-612674D02*
X1523872Y-603150D01*
X1523872Y-603150D02*
X1552443Y-603150D01*
X1552443Y-603150D02*
X1571491Y-612674D01*
X1571491Y-612674D02*
X1581015Y-631722D01*
X1581015Y-631722D02*
X1581015Y-736484D01*
X1971491Y-526960D02*
X1800063Y-784103D01*
X2228634Y-536484D02*
X2247682Y-536484D01*
X2247682Y-536484D02*
X2266729Y-546008D01*
X2266729Y-546008D02*
X2276253Y-555531D01*
X2276253Y-555531D02*
X2285777Y-574579D01*
X2285777Y-574579D02*
X2295301Y-612674D01*
X2295301Y-612674D02*
X2295301Y-660293D01*
X2295301Y-660293D02*
X2285777Y-698389D01*
X2285777Y-698389D02*
X2276253Y-717436D01*
X2276253Y-717436D02*
X2266729Y-726960D01*
X2266729Y-726960D02*
X2247682Y-736484D01*
X2247682Y-736484D02*
X2228634Y-736484D01*
X2228634Y-736484D02*
X2209587Y-726960D01*
X2209587Y-726960D02*
X2200063Y-717436D01*
X2200063Y-717436D02*
X2190539Y-698389D01*
X2190539Y-698389D02*
X2181015Y-660293D01*
X2181015Y-660293D02*
X2181015Y-612674D01*
X2181015Y-612674D02*
X2190539Y-574579D01*
X2190539Y-574579D02*
X2200063Y-555531D01*
X2200063Y-555531D02*
X2209587Y-546008D01*
X2209587Y-546008D02*
X2228634Y-536484D01*
X2381015Y-717436D02*
X2390539Y-726960D01*
X2390539Y-726960D02*
X2381015Y-736484D01*
X2381015Y-736484D02*
X2371491Y-726960D01*
X2371491Y-726960D02*
X2381015Y-717436D01*
X2381015Y-717436D02*
X2381015Y-736484D01*
X2514348Y-536484D02*
X2533396Y-536484D01*
X2533396Y-536484D02*
X2552444Y-546008D01*
X2552444Y-546008D02*
X2561968Y-555531D01*
X2561968Y-555531D02*
X2571491Y-574579D01*
X2571491Y-574579D02*
X2581015Y-612674D01*
X2581015Y-612674D02*
X2581015Y-660293D01*
X2581015Y-660293D02*
X2571491Y-698389D01*
X2571491Y-698389D02*
X2561968Y-717436D01*
X2561968Y-717436D02*
X2552444Y-726960D01*
X2552444Y-726960D02*
X2533396Y-736484D01*
X2533396Y-736484D02*
X2514348Y-736484D01*
X2514348Y-736484D02*
X2495301Y-726960D01*
X2495301Y-726960D02*
X2485777Y-717436D01*
X2485777Y-717436D02*
X2476253Y-698389D01*
X2476253Y-698389D02*
X2466729Y-660293D01*
X2466729Y-660293D02*
X2466729Y-612674D01*
X2466729Y-612674D02*
X2476253Y-574579D01*
X2476253Y-574579D02*
X2485777Y-555531D01*
X2485777Y-555531D02*
X2495301Y-546008D01*
X2495301Y-546008D02*
X2514348Y-536484D01*
X2771491Y-736484D02*
X2657206Y-736484D01*
X2714348Y-736484D02*
X2714348Y-536484D01*
X2714348Y-536484D02*
X2695301Y-565055D01*
X2695301Y-565055D02*
X2676253Y-584103D01*
X2676253Y-584103D02*
X2657206Y-593627D01*
X2952444Y-536484D02*
X2857206Y-536484D01*
X2857206Y-536484D02*
X2847682Y-631722D01*
X2847682Y-631722D02*
X2857206Y-622198D01*
X2857206Y-622198D02*
X2876253Y-612674D01*
X2876253Y-612674D02*
X2923872Y-612674D01*
X2923872Y-612674D02*
X2942920Y-622198D01*
X2942920Y-622198D02*
X2952444Y-631722D01*
X2952444Y-631722D02*
X2961967Y-650770D01*
X2961967Y-650770D02*
X2961967Y-698389D01*
X2961967Y-698389D02*
X2952444Y-717436D01*
X2952444Y-717436D02*
X2942920Y-726960D01*
X2942920Y-726960D02*
X2923872Y-736484D01*
X2923872Y-736484D02*
X2876253Y-736484D01*
X2876253Y-736484D02*
X2857206Y-726960D01*
X2857206Y-726960D02*
X2847682Y-717436D01*
X3028634Y-536484D02*
X3161967Y-536484D01*
X3161967Y-536484D02*
X3076253Y-736484D01*
X3228634Y-536484D02*
X3228634Y-574579D01*
X3304825Y-536484D02*
X3304825Y-574579D01*
X3600063Y-812674D02*
X3590539Y-803150D01*
X3590539Y-803150D02*
X3571491Y-774579D01*
X3571491Y-774579D02*
X3561968Y-755531D01*
X3561968Y-755531D02*
X3552444Y-726960D01*
X3552444Y-726960D02*
X3542920Y-679341D01*
X3542920Y-679341D02*
X3542920Y-641246D01*
X3542920Y-641246D02*
X3552444Y-593627D01*
X3552444Y-593627D02*
X3561968Y-565055D01*
X3561968Y-565055D02*
X3571491Y-546008D01*
X3571491Y-546008D02*
X3590539Y-517436D01*
X3590539Y-517436D02*
X3600063Y-507912D01*
X3781015Y-736484D02*
X3666729Y-736484D01*
X3723872Y-736484D02*
X3723872Y-536484D01*
X3723872Y-536484D02*
X3704825Y-565055D01*
X3704825Y-565055D02*
X3685777Y-584103D01*
X3685777Y-584103D02*
X3666729Y-593627D01*
X3952444Y-536484D02*
X3914348Y-536484D01*
X3914348Y-536484D02*
X3895301Y-546008D01*
X3895301Y-546008D02*
X3885777Y-555531D01*
X3885777Y-555531D02*
X3866729Y-584103D01*
X3866729Y-584103D02*
X3857206Y-622198D01*
X3857206Y-622198D02*
X3857206Y-698389D01*
X3857206Y-698389D02*
X3866729Y-717436D01*
X3866729Y-717436D02*
X3876253Y-726960D01*
X3876253Y-726960D02*
X3895301Y-736484D01*
X3895301Y-736484D02*
X3933396Y-736484D01*
X3933396Y-736484D02*
X3952444Y-726960D01*
X3952444Y-726960D02*
X3961968Y-717436D01*
X3961968Y-717436D02*
X3971491Y-698389D01*
X3971491Y-698389D02*
X3971491Y-650770D01*
X3971491Y-650770D02*
X3961968Y-631722D01*
X3961968Y-631722D02*
X3952444Y-622198D01*
X3952444Y-622198D02*
X3933396Y-612674D01*
X3933396Y-612674D02*
X3895301Y-612674D01*
X3895301Y-612674D02*
X3876253Y-622198D01*
X3876253Y-622198D02*
X3866729Y-631722D01*
X3866729Y-631722D02*
X3857206Y-650770D01*
X4142920Y-603150D02*
X4142920Y-736484D01*
X4095301Y-526960D02*
X4047682Y-669817D01*
X4047682Y-669817D02*
X4171491Y-669817D01*
X4400063Y-736484D02*
X4400063Y-536484D01*
X4485777Y-736484D02*
X4485777Y-631722D01*
X4485777Y-631722D02*
X4476253Y-612674D01*
X4476253Y-612674D02*
X4457206Y-603150D01*
X4457206Y-603150D02*
X4428634Y-603150D01*
X4428634Y-603150D02*
X4409587Y-612674D01*
X4409587Y-612674D02*
X4400063Y-622198D01*
X4609587Y-736484D02*
X4590539Y-726960D01*
X4590539Y-726960D02*
X4581015Y-717436D01*
X4581015Y-717436D02*
X4571492Y-698389D01*
X4571492Y-698389D02*
X4571492Y-641246D01*
X4571492Y-641246D02*
X4581015Y-622198D01*
X4581015Y-622198D02*
X4590539Y-612674D01*
X4590539Y-612674D02*
X4609587Y-603150D01*
X4609587Y-603150D02*
X4638158Y-603150D01*
X4638158Y-603150D02*
X4657206Y-612674D01*
X4657206Y-612674D02*
X4666730Y-622198D01*
X4666730Y-622198D02*
X4676253Y-641246D01*
X4676253Y-641246D02*
X4676253Y-698389D01*
X4676253Y-698389D02*
X4666730Y-717436D01*
X4666730Y-717436D02*
X4657206Y-726960D01*
X4657206Y-726960D02*
X4638158Y-736484D01*
X4638158Y-736484D02*
X4609587Y-736484D01*
X4790539Y-736484D02*
X4771492Y-726960D01*
X4771492Y-726960D02*
X4761968Y-707912D01*
X4761968Y-707912D02*
X4761968Y-536484D01*
X4942920Y-726960D02*
X4923873Y-736484D01*
X4923873Y-736484D02*
X4885777Y-736484D01*
X4885777Y-736484D02*
X4866730Y-726960D01*
X4866730Y-726960D02*
X4857206Y-707912D01*
X4857206Y-707912D02*
X4857206Y-631722D01*
X4857206Y-631722D02*
X4866730Y-612674D01*
X4866730Y-612674D02*
X4885777Y-603150D01*
X4885777Y-603150D02*
X4923873Y-603150D01*
X4923873Y-603150D02*
X4942920Y-612674D01*
X4942920Y-612674D02*
X4952444Y-631722D01*
X4952444Y-631722D02*
X4952444Y-650770D01*
X4952444Y-650770D02*
X4857206Y-669817D01*
X5028634Y-726960D02*
X5047682Y-736484D01*
X5047682Y-736484D02*
X5085777Y-736484D01*
X5085777Y-736484D02*
X5104825Y-726960D01*
X5104825Y-726960D02*
X5114349Y-707912D01*
X5114349Y-707912D02*
X5114349Y-698389D01*
X5114349Y-698389D02*
X5104825Y-679341D01*
X5104825Y-679341D02*
X5085777Y-669817D01*
X5085777Y-669817D02*
X5057206Y-669817D01*
X5057206Y-669817D02*
X5038158Y-660293D01*
X5038158Y-660293D02*
X5028634Y-641246D01*
X5028634Y-641246D02*
X5028634Y-631722D01*
X5028634Y-631722D02*
X5038158Y-612674D01*
X5038158Y-612674D02*
X5057206Y-603150D01*
X5057206Y-603150D02*
X5085777Y-603150D01*
X5085777Y-603150D02*
X5104825Y-612674D01*
X5181015Y-812674D02*
X5190539Y-803150D01*
X5190539Y-803150D02*
X5209587Y-774579D01*
X5209587Y-774579D02*
X5219111Y-755531D01*
X5219111Y-755531D02*
X5228634Y-726960D01*
X5228634Y-726960D02*
X5238158Y-679341D01*
X5238158Y-679341D02*
X5238158Y-641246D01*
X5238158Y-641246D02*
X5228634Y-593627D01*
X5228634Y-593627D02*
X5219111Y-565055D01*
X5219111Y-565055D02*
X5209587Y-546008D01*
X5209587Y-546008D02*
X5190539Y-517436D01*
X5190539Y-517436D02*
X5181015Y-507912D01*
D10*
X25000Y-909000D02*
G75*
G03*
X25000Y-909000I-25000J0D01*
G01*
D11*
X323872Y-800484D02*
X342920Y-800484D01*
X342920Y-800484D02*
X361967Y-810008D01*
X361967Y-810008D02*
X371491Y-819531D01*
X371491Y-819531D02*
X381015Y-838579D01*
X381015Y-838579D02*
X390539Y-876674D01*
X390539Y-876674D02*
X390539Y-924293D01*
X390539Y-924293D02*
X381015Y-962388D01*
X381015Y-962388D02*
X371491Y-981436D01*
X371491Y-981436D02*
X361967Y-990960D01*
X361967Y-990960D02*
X342920Y-1000484D01*
X342920Y-1000484D02*
X323872Y-1000484D01*
X323872Y-1000484D02*
X304824Y-990960D01*
X304824Y-990960D02*
X295301Y-981436D01*
X295301Y-981436D02*
X285777Y-962388D01*
X285777Y-962388D02*
X276253Y-924293D01*
X276253Y-924293D02*
X276253Y-876674D01*
X276253Y-876674D02*
X285777Y-838579D01*
X285777Y-838579D02*
X295301Y-819531D01*
X295301Y-819531D02*
X304824Y-810008D01*
X304824Y-810008D02*
X323872Y-800484D01*
X476253Y-981436D02*
X485777Y-990960D01*
X485777Y-990960D02*
X476253Y-1000484D01*
X476253Y-1000484D02*
X466729Y-990960D01*
X466729Y-990960D02*
X476253Y-981436D01*
X476253Y-981436D02*
X476253Y-1000484D01*
X666729Y-800484D02*
X571491Y-800484D01*
X571491Y-800484D02*
X561967Y-895722D01*
X561967Y-895722D02*
X571491Y-886198D01*
X571491Y-886198D02*
X590539Y-876674D01*
X590539Y-876674D02*
X638158Y-876674D01*
X638158Y-876674D02*
X657205Y-886198D01*
X657205Y-886198D02*
X666729Y-895722D01*
X666729Y-895722D02*
X676253Y-914769D01*
X676253Y-914769D02*
X676253Y-962388D01*
X676253Y-962388D02*
X666729Y-981436D01*
X666729Y-981436D02*
X657205Y-990960D01*
X657205Y-990960D02*
X638158Y-1000484D01*
X638158Y-1000484D02*
X590539Y-1000484D01*
X590539Y-1000484D02*
X571491Y-990960D01*
X571491Y-990960D02*
X561967Y-981436D01*
X800062Y-800484D02*
X819110Y-800484D01*
X819110Y-800484D02*
X838158Y-810008D01*
X838158Y-810008D02*
X847682Y-819531D01*
X847682Y-819531D02*
X857205Y-838579D01*
X857205Y-838579D02*
X866729Y-876674D01*
X866729Y-876674D02*
X866729Y-924293D01*
X866729Y-924293D02*
X857205Y-962388D01*
X857205Y-962388D02*
X847682Y-981436D01*
X847682Y-981436D02*
X838158Y-990960D01*
X838158Y-990960D02*
X819110Y-1000484D01*
X819110Y-1000484D02*
X800062Y-1000484D01*
X800062Y-1000484D02*
X781015Y-990960D01*
X781015Y-990960D02*
X771491Y-981436D01*
X771491Y-981436D02*
X761967Y-962388D01*
X761967Y-962388D02*
X752443Y-924293D01*
X752443Y-924293D02*
X752443Y-876674D01*
X752443Y-876674D02*
X761967Y-838579D01*
X761967Y-838579D02*
X771491Y-819531D01*
X771491Y-819531D02*
X781015Y-810008D01*
X781015Y-810008D02*
X800062Y-800484D01*
X990539Y-800484D02*
X1009586Y-800484D01*
X1009586Y-800484D02*
X1028634Y-810008D01*
X1028634Y-810008D02*
X1038158Y-819531D01*
X1038158Y-819531D02*
X1047682Y-838579D01*
X1047682Y-838579D02*
X1057205Y-876674D01*
X1057205Y-876674D02*
X1057205Y-924293D01*
X1057205Y-924293D02*
X1047682Y-962388D01*
X1047682Y-962388D02*
X1038158Y-981436D01*
X1038158Y-981436D02*
X1028634Y-990960D01*
X1028634Y-990960D02*
X1009586Y-1000484D01*
X1009586Y-1000484D02*
X990539Y-1000484D01*
X990539Y-1000484D02*
X971491Y-990960D01*
X971491Y-990960D02*
X961967Y-981436D01*
X961967Y-981436D02*
X952443Y-962388D01*
X952443Y-962388D02*
X942920Y-924293D01*
X942920Y-924293D02*
X942920Y-876674D01*
X942920Y-876674D02*
X952443Y-838579D01*
X952443Y-838579D02*
X961967Y-819531D01*
X961967Y-819531D02*
X971491Y-810008D01*
X971491Y-810008D02*
X990539Y-800484D01*
X1142920Y-1000484D02*
X1142920Y-867150D01*
X1142920Y-886198D02*
X1152444Y-876674D01*
X1152444Y-876674D02*
X1171491Y-867150D01*
X1171491Y-867150D02*
X1200063Y-867150D01*
X1200063Y-867150D02*
X1219110Y-876674D01*
X1219110Y-876674D02*
X1228634Y-895722D01*
X1228634Y-895722D02*
X1228634Y-1000484D01*
X1228634Y-895722D02*
X1238158Y-876674D01*
X1238158Y-876674D02*
X1257205Y-867150D01*
X1257205Y-867150D02*
X1285777Y-867150D01*
X1285777Y-867150D02*
X1304825Y-876674D01*
X1304825Y-876674D02*
X1314348Y-895722D01*
X1314348Y-895722D02*
X1314348Y-1000484D01*
X1409586Y-1000484D02*
X1409586Y-867150D01*
X1409586Y-886198D02*
X1419110Y-876674D01*
X1419110Y-876674D02*
X1438158Y-867150D01*
X1438158Y-867150D02*
X1466729Y-867150D01*
X1466729Y-867150D02*
X1485777Y-876674D01*
X1485777Y-876674D02*
X1495301Y-895722D01*
X1495301Y-895722D02*
X1495301Y-1000484D01*
X1495301Y-895722D02*
X1504824Y-876674D01*
X1504824Y-876674D02*
X1523872Y-867150D01*
X1523872Y-867150D02*
X1552443Y-867150D01*
X1552443Y-867150D02*
X1571491Y-876674D01*
X1571491Y-876674D02*
X1581015Y-895722D01*
X1581015Y-895722D02*
X1581015Y-1000484D01*
X1971491Y-790960D02*
X1800063Y-1048103D01*
X2228634Y-800484D02*
X2247682Y-800484D01*
X2247682Y-800484D02*
X2266729Y-810008D01*
X2266729Y-810008D02*
X2276253Y-819531D01*
X2276253Y-819531D02*
X2285777Y-838579D01*
X2285777Y-838579D02*
X2295301Y-876674D01*
X2295301Y-876674D02*
X2295301Y-924293D01*
X2295301Y-924293D02*
X2285777Y-962388D01*
X2285777Y-962388D02*
X2276253Y-981436D01*
X2276253Y-981436D02*
X2266729Y-990960D01*
X2266729Y-990960D02*
X2247682Y-1000484D01*
X2247682Y-1000484D02*
X2228634Y-1000484D01*
X2228634Y-1000484D02*
X2209587Y-990960D01*
X2209587Y-990960D02*
X2200063Y-981436D01*
X2200063Y-981436D02*
X2190539Y-962388D01*
X2190539Y-962388D02*
X2181015Y-924293D01*
X2181015Y-924293D02*
X2181015Y-876674D01*
X2181015Y-876674D02*
X2190539Y-838579D01*
X2190539Y-838579D02*
X2200063Y-819531D01*
X2200063Y-819531D02*
X2209587Y-810008D01*
X2209587Y-810008D02*
X2228634Y-800484D01*
X2381015Y-981436D02*
X2390539Y-990960D01*
X2390539Y-990960D02*
X2381015Y-1000484D01*
X2381015Y-1000484D02*
X2371491Y-990960D01*
X2371491Y-990960D02*
X2381015Y-981436D01*
X2381015Y-981436D02*
X2381015Y-1000484D01*
X2514348Y-800484D02*
X2533396Y-800484D01*
X2533396Y-800484D02*
X2552444Y-810008D01*
X2552444Y-810008D02*
X2561968Y-819531D01*
X2561968Y-819531D02*
X2571491Y-838579D01*
X2571491Y-838579D02*
X2581015Y-876674D01*
X2581015Y-876674D02*
X2581015Y-924293D01*
X2581015Y-924293D02*
X2571491Y-962388D01*
X2571491Y-962388D02*
X2561968Y-981436D01*
X2561968Y-981436D02*
X2552444Y-990960D01*
X2552444Y-990960D02*
X2533396Y-1000484D01*
X2533396Y-1000484D02*
X2514348Y-1000484D01*
X2514348Y-1000484D02*
X2495301Y-990960D01*
X2495301Y-990960D02*
X2485777Y-981436D01*
X2485777Y-981436D02*
X2476253Y-962388D01*
X2476253Y-962388D02*
X2466729Y-924293D01*
X2466729Y-924293D02*
X2466729Y-876674D01*
X2466729Y-876674D02*
X2476253Y-838579D01*
X2476253Y-838579D02*
X2485777Y-819531D01*
X2485777Y-819531D02*
X2495301Y-810008D01*
X2495301Y-810008D02*
X2514348Y-800484D01*
X2771491Y-1000484D02*
X2657206Y-1000484D01*
X2714348Y-1000484D02*
X2714348Y-800484D01*
X2714348Y-800484D02*
X2695301Y-829055D01*
X2695301Y-829055D02*
X2676253Y-848103D01*
X2676253Y-848103D02*
X2657206Y-857627D01*
X2866729Y-1000484D02*
X2904825Y-1000484D01*
X2904825Y-1000484D02*
X2923872Y-990960D01*
X2923872Y-990960D02*
X2933396Y-981436D01*
X2933396Y-981436D02*
X2952444Y-952865D01*
X2952444Y-952865D02*
X2961967Y-914769D01*
X2961967Y-914769D02*
X2961967Y-838579D01*
X2961967Y-838579D02*
X2952444Y-819531D01*
X2952444Y-819531D02*
X2942920Y-810008D01*
X2942920Y-810008D02*
X2923872Y-800484D01*
X2923872Y-800484D02*
X2885777Y-800484D01*
X2885777Y-800484D02*
X2866729Y-810008D01*
X2866729Y-810008D02*
X2857206Y-819531D01*
X2857206Y-819531D02*
X2847682Y-838579D01*
X2847682Y-838579D02*
X2847682Y-886198D01*
X2847682Y-886198D02*
X2857206Y-905246D01*
X2857206Y-905246D02*
X2866729Y-914769D01*
X2866729Y-914769D02*
X2885777Y-924293D01*
X2885777Y-924293D02*
X2923872Y-924293D01*
X2923872Y-924293D02*
X2942920Y-914769D01*
X2942920Y-914769D02*
X2952444Y-905246D01*
X2952444Y-905246D02*
X2961967Y-886198D01*
X3028634Y-800484D02*
X3161967Y-800484D01*
X3161967Y-800484D02*
X3076253Y-1000484D01*
X3228634Y-800484D02*
X3228634Y-838579D01*
X3304825Y-800484D02*
X3304825Y-838579D01*
X3600063Y-1076674D02*
X3590539Y-1067150D01*
X3590539Y-1067150D02*
X3571491Y-1038579D01*
X3571491Y-1038579D02*
X3561968Y-1019531D01*
X3561968Y-1019531D02*
X3552444Y-990960D01*
X3552444Y-990960D02*
X3542920Y-943341D01*
X3542920Y-943341D02*
X3542920Y-905246D01*
X3542920Y-905246D02*
X3552444Y-857627D01*
X3552444Y-857627D02*
X3561968Y-829055D01*
X3561968Y-829055D02*
X3571491Y-810008D01*
X3571491Y-810008D02*
X3590539Y-781436D01*
X3590539Y-781436D02*
X3600063Y-771912D01*
X3657206Y-800484D02*
X3781015Y-800484D01*
X3781015Y-800484D02*
X3714348Y-876674D01*
X3714348Y-876674D02*
X3742920Y-876674D01*
X3742920Y-876674D02*
X3761968Y-886198D01*
X3761968Y-886198D02*
X3771491Y-895722D01*
X3771491Y-895722D02*
X3781015Y-914769D01*
X3781015Y-914769D02*
X3781015Y-962388D01*
X3781015Y-962388D02*
X3771491Y-981436D01*
X3771491Y-981436D02*
X3761968Y-990960D01*
X3761968Y-990960D02*
X3742920Y-1000484D01*
X3742920Y-1000484D02*
X3685777Y-1000484D01*
X3685777Y-1000484D02*
X3666729Y-990960D01*
X3666729Y-990960D02*
X3657206Y-981436D01*
X3857206Y-819531D02*
X3866729Y-810008D01*
X3866729Y-810008D02*
X3885777Y-800484D01*
X3885777Y-800484D02*
X3933396Y-800484D01*
X3933396Y-800484D02*
X3952444Y-810008D01*
X3952444Y-810008D02*
X3961968Y-819531D01*
X3961968Y-819531D02*
X3971491Y-838579D01*
X3971491Y-838579D02*
X3971491Y-857627D01*
X3971491Y-857627D02*
X3961968Y-886198D01*
X3961968Y-886198D02*
X3847682Y-1000484D01*
X3847682Y-1000484D02*
X3971491Y-1000484D01*
X4209587Y-1000484D02*
X4209587Y-800484D01*
X4295301Y-1000484D02*
X4295301Y-895722D01*
X4295301Y-895722D02*
X4285777Y-876674D01*
X4285777Y-876674D02*
X4266730Y-867150D01*
X4266730Y-867150D02*
X4238158Y-867150D01*
X4238158Y-867150D02*
X4219111Y-876674D01*
X4219111Y-876674D02*
X4209587Y-886198D01*
X4419111Y-1000484D02*
X4400063Y-990960D01*
X4400063Y-990960D02*
X4390539Y-981436D01*
X4390539Y-981436D02*
X4381015Y-962388D01*
X4381015Y-962388D02*
X4381015Y-905246D01*
X4381015Y-905246D02*
X4390539Y-886198D01*
X4390539Y-886198D02*
X4400063Y-876674D01*
X4400063Y-876674D02*
X4419111Y-867150D01*
X4419111Y-867150D02*
X4447682Y-867150D01*
X4447682Y-867150D02*
X4466730Y-876674D01*
X4466730Y-876674D02*
X4476253Y-886198D01*
X4476253Y-886198D02*
X4485777Y-905246D01*
X4485777Y-905246D02*
X4485777Y-962388D01*
X4485777Y-962388D02*
X4476253Y-981436D01*
X4476253Y-981436D02*
X4466730Y-990960D01*
X4466730Y-990960D02*
X4447682Y-1000484D01*
X4447682Y-1000484D02*
X4419111Y-1000484D01*
X4600063Y-1000484D02*
X4581015Y-990960D01*
X4581015Y-990960D02*
X4571492Y-971912D01*
X4571492Y-971912D02*
X4571492Y-800484D01*
X4752444Y-990960D02*
X4733396Y-1000484D01*
X4733396Y-1000484D02*
X4695301Y-1000484D01*
X4695301Y-1000484D02*
X4676253Y-990960D01*
X4676253Y-990960D02*
X4666730Y-971912D01*
X4666730Y-971912D02*
X4666730Y-895722D01*
X4666730Y-895722D02*
X4676253Y-876674D01*
X4676253Y-876674D02*
X4695301Y-867150D01*
X4695301Y-867150D02*
X4733396Y-867150D01*
X4733396Y-867150D02*
X4752444Y-876674D01*
X4752444Y-876674D02*
X4761968Y-895722D01*
X4761968Y-895722D02*
X4761968Y-914769D01*
X4761968Y-914769D02*
X4666730Y-933817D01*
X4838158Y-990960D02*
X4857206Y-1000484D01*
X4857206Y-1000484D02*
X4895301Y-1000484D01*
X4895301Y-1000484D02*
X4914349Y-990960D01*
X4914349Y-990960D02*
X4923873Y-971912D01*
X4923873Y-971912D02*
X4923873Y-962388D01*
X4923873Y-962388D02*
X4914349Y-943341D01*
X4914349Y-943341D02*
X4895301Y-933817D01*
X4895301Y-933817D02*
X4866730Y-933817D01*
X4866730Y-933817D02*
X4847682Y-924293D01*
X4847682Y-924293D02*
X4838158Y-905246D01*
X4838158Y-905246D02*
X4838158Y-895722D01*
X4838158Y-895722D02*
X4847682Y-876674D01*
X4847682Y-876674D02*
X4866730Y-867150D01*
X4866730Y-867150D02*
X4895301Y-867150D01*
X4895301Y-867150D02*
X4914349Y-876674D01*
X4990539Y-1076674D02*
X5000063Y-1067150D01*
X5000063Y-1067150D02*
X5019111Y-1038579D01*
X5019111Y-1038579D02*
X5028634Y-1019531D01*
X5028634Y-1019531D02*
X5038158Y-990960D01*
X5038158Y-990960D02*
X5047682Y-943341D01*
X5047682Y-943341D02*
X5047682Y-905246D01*
X5047682Y-905246D02*
X5038158Y-857627D01*
X5038158Y-857627D02*
X5028634Y-829055D01*
X5028634Y-829055D02*
X5019111Y-810008D01*
X5019111Y-810008D02*
X5000063Y-781436D01*
X5000063Y-781436D02*
X4990539Y-771912D01*
D10*
X-15000Y-1133000D02*
X-15000Y-1213000D01*
X-55000Y-1173000D02*
X25000Y-1173000D01*
D11*
X323872Y-1064484D02*
X342920Y-1064484D01*
X342920Y-1064484D02*
X361967Y-1074008D01*
X361967Y-1074008D02*
X371491Y-1083531D01*
X371491Y-1083531D02*
X381015Y-1102579D01*
X381015Y-1102579D02*
X390539Y-1140674D01*
X390539Y-1140674D02*
X390539Y-1188293D01*
X390539Y-1188293D02*
X381015Y-1226389D01*
X381015Y-1226389D02*
X371491Y-1245436D01*
X371491Y-1245436D02*
X361967Y-1254960D01*
X361967Y-1254960D02*
X342920Y-1264484D01*
X342920Y-1264484D02*
X323872Y-1264484D01*
X323872Y-1264484D02*
X304824Y-1254960D01*
X304824Y-1254960D02*
X295301Y-1245436D01*
X295301Y-1245436D02*
X285777Y-1226389D01*
X285777Y-1226389D02*
X276253Y-1188293D01*
X276253Y-1188293D02*
X276253Y-1140674D01*
X276253Y-1140674D02*
X285777Y-1102579D01*
X285777Y-1102579D02*
X295301Y-1083531D01*
X295301Y-1083531D02*
X304824Y-1074008D01*
X304824Y-1074008D02*
X323872Y-1064484D01*
X476253Y-1245436D02*
X485777Y-1254960D01*
X485777Y-1254960D02*
X476253Y-1264484D01*
X476253Y-1264484D02*
X466729Y-1254960D01*
X466729Y-1254960D02*
X476253Y-1245436D01*
X476253Y-1245436D02*
X476253Y-1264484D01*
X600063Y-1150198D02*
X581015Y-1140674D01*
X581015Y-1140674D02*
X571491Y-1131150D01*
X571491Y-1131150D02*
X561967Y-1112103D01*
X561967Y-1112103D02*
X561967Y-1102579D01*
X561967Y-1102579D02*
X571491Y-1083531D01*
X571491Y-1083531D02*
X581015Y-1074008D01*
X581015Y-1074008D02*
X600063Y-1064484D01*
X600063Y-1064484D02*
X638158Y-1064484D01*
X638158Y-1064484D02*
X657205Y-1074008D01*
X657205Y-1074008D02*
X666729Y-1083531D01*
X666729Y-1083531D02*
X676253Y-1102579D01*
X676253Y-1102579D02*
X676253Y-1112103D01*
X676253Y-1112103D02*
X666729Y-1131150D01*
X666729Y-1131150D02*
X657205Y-1140674D01*
X657205Y-1140674D02*
X638158Y-1150198D01*
X638158Y-1150198D02*
X600063Y-1150198D01*
X600063Y-1150198D02*
X581015Y-1159722D01*
X581015Y-1159722D02*
X571491Y-1169246D01*
X571491Y-1169246D02*
X561967Y-1188293D01*
X561967Y-1188293D02*
X561967Y-1226389D01*
X561967Y-1226389D02*
X571491Y-1245436D01*
X571491Y-1245436D02*
X581015Y-1254960D01*
X581015Y-1254960D02*
X600063Y-1264484D01*
X600063Y-1264484D02*
X638158Y-1264484D01*
X638158Y-1264484D02*
X657205Y-1254960D01*
X657205Y-1254960D02*
X666729Y-1245436D01*
X666729Y-1245436D02*
X676253Y-1226389D01*
X676253Y-1226389D02*
X676253Y-1188293D01*
X676253Y-1188293D02*
X666729Y-1169246D01*
X666729Y-1169246D02*
X657205Y-1159722D01*
X657205Y-1159722D02*
X638158Y-1150198D01*
X800062Y-1064484D02*
X819110Y-1064484D01*
X819110Y-1064484D02*
X838158Y-1074008D01*
X838158Y-1074008D02*
X847682Y-1083531D01*
X847682Y-1083531D02*
X857205Y-1102579D01*
X857205Y-1102579D02*
X866729Y-1140674D01*
X866729Y-1140674D02*
X866729Y-1188293D01*
X866729Y-1188293D02*
X857205Y-1226389D01*
X857205Y-1226389D02*
X847682Y-1245436D01*
X847682Y-1245436D02*
X838158Y-1254960D01*
X838158Y-1254960D02*
X819110Y-1264484D01*
X819110Y-1264484D02*
X800062Y-1264484D01*
X800062Y-1264484D02*
X781015Y-1254960D01*
X781015Y-1254960D02*
X771491Y-1245436D01*
X771491Y-1245436D02*
X761967Y-1226389D01*
X761967Y-1226389D02*
X752443Y-1188293D01*
X752443Y-1188293D02*
X752443Y-1140674D01*
X752443Y-1140674D02*
X761967Y-1102579D01*
X761967Y-1102579D02*
X771491Y-1083531D01*
X771491Y-1083531D02*
X781015Y-1074008D01*
X781015Y-1074008D02*
X800062Y-1064484D01*
X990539Y-1064484D02*
X1009586Y-1064484D01*
X1009586Y-1064484D02*
X1028634Y-1074008D01*
X1028634Y-1074008D02*
X1038158Y-1083531D01*
X1038158Y-1083531D02*
X1047682Y-1102579D01*
X1047682Y-1102579D02*
X1057205Y-1140674D01*
X1057205Y-1140674D02*
X1057205Y-1188293D01*
X1057205Y-1188293D02*
X1047682Y-1226389D01*
X1047682Y-1226389D02*
X1038158Y-1245436D01*
X1038158Y-1245436D02*
X1028634Y-1254960D01*
X1028634Y-1254960D02*
X1009586Y-1264484D01*
X1009586Y-1264484D02*
X990539Y-1264484D01*
X990539Y-1264484D02*
X971491Y-1254960D01*
X971491Y-1254960D02*
X961967Y-1245436D01*
X961967Y-1245436D02*
X952443Y-1226389D01*
X952443Y-1226389D02*
X942920Y-1188293D01*
X942920Y-1188293D02*
X942920Y-1140674D01*
X942920Y-1140674D02*
X952443Y-1102579D01*
X952443Y-1102579D02*
X961967Y-1083531D01*
X961967Y-1083531D02*
X971491Y-1074008D01*
X971491Y-1074008D02*
X990539Y-1064484D01*
X1142920Y-1264484D02*
X1142920Y-1131150D01*
X1142920Y-1150198D02*
X1152444Y-1140674D01*
X1152444Y-1140674D02*
X1171491Y-1131150D01*
X1171491Y-1131150D02*
X1200063Y-1131150D01*
X1200063Y-1131150D02*
X1219110Y-1140674D01*
X1219110Y-1140674D02*
X1228634Y-1159722D01*
X1228634Y-1159722D02*
X1228634Y-1264484D01*
X1228634Y-1159722D02*
X1238158Y-1140674D01*
X1238158Y-1140674D02*
X1257205Y-1131150D01*
X1257205Y-1131150D02*
X1285777Y-1131150D01*
X1285777Y-1131150D02*
X1304825Y-1140674D01*
X1304825Y-1140674D02*
X1314348Y-1159722D01*
X1314348Y-1159722D02*
X1314348Y-1264484D01*
X1409586Y-1264484D02*
X1409586Y-1131150D01*
X1409586Y-1150198D02*
X1419110Y-1140674D01*
X1419110Y-1140674D02*
X1438158Y-1131150D01*
X1438158Y-1131150D02*
X1466729Y-1131150D01*
X1466729Y-1131150D02*
X1485777Y-1140674D01*
X1485777Y-1140674D02*
X1495301Y-1159722D01*
X1495301Y-1159722D02*
X1495301Y-1264484D01*
X1495301Y-1159722D02*
X1504824Y-1140674D01*
X1504824Y-1140674D02*
X1523872Y-1131150D01*
X1523872Y-1131150D02*
X1552443Y-1131150D01*
X1552443Y-1131150D02*
X1571491Y-1140674D01*
X1571491Y-1140674D02*
X1581015Y-1159722D01*
X1581015Y-1159722D02*
X1581015Y-1264484D01*
X1971491Y-1054960D02*
X1800063Y-1312103D01*
X2228634Y-1064484D02*
X2247682Y-1064484D01*
X2247682Y-1064484D02*
X2266729Y-1074008D01*
X2266729Y-1074008D02*
X2276253Y-1083531D01*
X2276253Y-1083531D02*
X2285777Y-1102579D01*
X2285777Y-1102579D02*
X2295301Y-1140674D01*
X2295301Y-1140674D02*
X2295301Y-1188293D01*
X2295301Y-1188293D02*
X2285777Y-1226389D01*
X2285777Y-1226389D02*
X2276253Y-1245436D01*
X2276253Y-1245436D02*
X2266729Y-1254960D01*
X2266729Y-1254960D02*
X2247682Y-1264484D01*
X2247682Y-1264484D02*
X2228634Y-1264484D01*
X2228634Y-1264484D02*
X2209587Y-1254960D01*
X2209587Y-1254960D02*
X2200063Y-1245436D01*
X2200063Y-1245436D02*
X2190539Y-1226389D01*
X2190539Y-1226389D02*
X2181015Y-1188293D01*
X2181015Y-1188293D02*
X2181015Y-1140674D01*
X2181015Y-1140674D02*
X2190539Y-1102579D01*
X2190539Y-1102579D02*
X2200063Y-1083531D01*
X2200063Y-1083531D02*
X2209587Y-1074008D01*
X2209587Y-1074008D02*
X2228634Y-1064484D01*
X2381015Y-1245436D02*
X2390539Y-1254960D01*
X2390539Y-1254960D02*
X2381015Y-1264484D01*
X2381015Y-1264484D02*
X2371491Y-1254960D01*
X2371491Y-1254960D02*
X2381015Y-1245436D01*
X2381015Y-1245436D02*
X2381015Y-1264484D01*
X2514348Y-1064484D02*
X2533396Y-1064484D01*
X2533396Y-1064484D02*
X2552444Y-1074008D01*
X2552444Y-1074008D02*
X2561968Y-1083531D01*
X2561968Y-1083531D02*
X2571491Y-1102579D01*
X2571491Y-1102579D02*
X2581015Y-1140674D01*
X2581015Y-1140674D02*
X2581015Y-1188293D01*
X2581015Y-1188293D02*
X2571491Y-1226389D01*
X2571491Y-1226389D02*
X2561968Y-1245436D01*
X2561968Y-1245436D02*
X2552444Y-1254960D01*
X2552444Y-1254960D02*
X2533396Y-1264484D01*
X2533396Y-1264484D02*
X2514348Y-1264484D01*
X2514348Y-1264484D02*
X2495301Y-1254960D01*
X2495301Y-1254960D02*
X2485777Y-1245436D01*
X2485777Y-1245436D02*
X2476253Y-1226389D01*
X2476253Y-1226389D02*
X2466729Y-1188293D01*
X2466729Y-1188293D02*
X2466729Y-1140674D01*
X2466729Y-1140674D02*
X2476253Y-1102579D01*
X2476253Y-1102579D02*
X2485777Y-1083531D01*
X2485777Y-1083531D02*
X2495301Y-1074008D01*
X2495301Y-1074008D02*
X2514348Y-1064484D01*
X2647682Y-1064484D02*
X2771491Y-1064484D01*
X2771491Y-1064484D02*
X2704825Y-1140674D01*
X2704825Y-1140674D02*
X2733396Y-1140674D01*
X2733396Y-1140674D02*
X2752444Y-1150198D01*
X2752444Y-1150198D02*
X2761968Y-1159722D01*
X2761968Y-1159722D02*
X2771491Y-1178770D01*
X2771491Y-1178770D02*
X2771491Y-1226389D01*
X2771491Y-1226389D02*
X2761968Y-1245436D01*
X2761968Y-1245436D02*
X2752444Y-1254960D01*
X2752444Y-1254960D02*
X2733396Y-1264484D01*
X2733396Y-1264484D02*
X2676253Y-1264484D01*
X2676253Y-1264484D02*
X2657206Y-1254960D01*
X2657206Y-1254960D02*
X2647682Y-1245436D01*
X2961967Y-1264484D02*
X2847682Y-1264484D01*
X2904825Y-1264484D02*
X2904825Y-1064484D01*
X2904825Y-1064484D02*
X2885777Y-1093055D01*
X2885777Y-1093055D02*
X2866729Y-1112103D01*
X2866729Y-1112103D02*
X2847682Y-1121627D01*
X3142920Y-1064484D02*
X3047682Y-1064484D01*
X3047682Y-1064484D02*
X3038158Y-1159722D01*
X3038158Y-1159722D02*
X3047682Y-1150198D01*
X3047682Y-1150198D02*
X3066729Y-1140674D01*
X3066729Y-1140674D02*
X3114348Y-1140674D01*
X3114348Y-1140674D02*
X3133396Y-1150198D01*
X3133396Y-1150198D02*
X3142920Y-1159722D01*
X3142920Y-1159722D02*
X3152444Y-1178770D01*
X3152444Y-1178770D02*
X3152444Y-1226389D01*
X3152444Y-1226389D02*
X3142920Y-1245436D01*
X3142920Y-1245436D02*
X3133396Y-1254960D01*
X3133396Y-1254960D02*
X3114348Y-1264484D01*
X3114348Y-1264484D02*
X3066729Y-1264484D01*
X3066729Y-1264484D02*
X3047682Y-1254960D01*
X3047682Y-1254960D02*
X3038158Y-1245436D01*
X3228634Y-1064484D02*
X3228634Y-1102579D01*
X3304825Y-1064484D02*
X3304825Y-1102579D01*
X3600063Y-1340674D02*
X3590539Y-1331150D01*
X3590539Y-1331150D02*
X3571491Y-1302579D01*
X3571491Y-1302579D02*
X3561968Y-1283531D01*
X3561968Y-1283531D02*
X3552444Y-1254960D01*
X3552444Y-1254960D02*
X3542920Y-1207341D01*
X3542920Y-1207341D02*
X3542920Y-1169246D01*
X3542920Y-1169246D02*
X3552444Y-1121627D01*
X3552444Y-1121627D02*
X3561968Y-1093055D01*
X3561968Y-1093055D02*
X3571491Y-1074008D01*
X3571491Y-1074008D02*
X3590539Y-1045436D01*
X3590539Y-1045436D02*
X3600063Y-1035912D01*
X3761968Y-1131150D02*
X3761968Y-1264484D01*
X3714348Y-1054960D02*
X3666729Y-1197817D01*
X3666729Y-1197817D02*
X3790539Y-1197817D01*
X4019110Y-1264484D02*
X4019110Y-1064484D01*
X4104825Y-1264484D02*
X4104825Y-1159722D01*
X4104825Y-1159722D02*
X4095301Y-1140674D01*
X4095301Y-1140674D02*
X4076253Y-1131150D01*
X4076253Y-1131150D02*
X4047682Y-1131150D01*
X4047682Y-1131150D02*
X4028634Y-1140674D01*
X4028634Y-1140674D02*
X4019110Y-1150198D01*
X4228634Y-1264484D02*
X4209587Y-1254960D01*
X4209587Y-1254960D02*
X4200063Y-1245436D01*
X4200063Y-1245436D02*
X4190539Y-1226389D01*
X4190539Y-1226389D02*
X4190539Y-1169246D01*
X4190539Y-1169246D02*
X4200063Y-1150198D01*
X4200063Y-1150198D02*
X4209587Y-1140674D01*
X4209587Y-1140674D02*
X4228634Y-1131150D01*
X4228634Y-1131150D02*
X4257206Y-1131150D01*
X4257206Y-1131150D02*
X4276253Y-1140674D01*
X4276253Y-1140674D02*
X4285777Y-1150198D01*
X4285777Y-1150198D02*
X4295301Y-1169246D01*
X4295301Y-1169246D02*
X4295301Y-1226389D01*
X4295301Y-1226389D02*
X4285777Y-1245436D01*
X4285777Y-1245436D02*
X4276253Y-1254960D01*
X4276253Y-1254960D02*
X4257206Y-1264484D01*
X4257206Y-1264484D02*
X4228634Y-1264484D01*
X4409587Y-1264484D02*
X4390539Y-1254960D01*
X4390539Y-1254960D02*
X4381015Y-1235912D01*
X4381015Y-1235912D02*
X4381015Y-1064484D01*
X4561968Y-1254960D02*
X4542920Y-1264484D01*
X4542920Y-1264484D02*
X4504825Y-1264484D01*
X4504825Y-1264484D02*
X4485777Y-1254960D01*
X4485777Y-1254960D02*
X4476253Y-1235912D01*
X4476253Y-1235912D02*
X4476253Y-1159722D01*
X4476253Y-1159722D02*
X4485777Y-1140674D01*
X4485777Y-1140674D02*
X4504825Y-1131150D01*
X4504825Y-1131150D02*
X4542920Y-1131150D01*
X4542920Y-1131150D02*
X4561968Y-1140674D01*
X4561968Y-1140674D02*
X4571492Y-1159722D01*
X4571492Y-1159722D02*
X4571492Y-1178770D01*
X4571492Y-1178770D02*
X4476253Y-1197817D01*
X4647682Y-1254960D02*
X4666730Y-1264484D01*
X4666730Y-1264484D02*
X4704825Y-1264484D01*
X4704825Y-1264484D02*
X4723873Y-1254960D01*
X4723873Y-1254960D02*
X4733396Y-1235912D01*
X4733396Y-1235912D02*
X4733396Y-1226389D01*
X4733396Y-1226389D02*
X4723873Y-1207341D01*
X4723873Y-1207341D02*
X4704825Y-1197817D01*
X4704825Y-1197817D02*
X4676253Y-1197817D01*
X4676253Y-1197817D02*
X4657206Y-1188293D01*
X4657206Y-1188293D02*
X4647682Y-1169246D01*
X4647682Y-1169246D02*
X4647682Y-1159722D01*
X4647682Y-1159722D02*
X4657206Y-1140674D01*
X4657206Y-1140674D02*
X4676253Y-1131150D01*
X4676253Y-1131150D02*
X4704825Y-1131150D01*
X4704825Y-1131150D02*
X4723873Y-1140674D01*
X4800063Y-1340674D02*
X4809587Y-1331150D01*
X4809587Y-1331150D02*
X4828634Y-1302579D01*
X4828634Y-1302579D02*
X4838158Y-1283531D01*
X4838158Y-1283531D02*
X4847682Y-1254960D01*
X4847682Y-1254960D02*
X4857206Y-1207341D01*
X4857206Y-1207341D02*
X4857206Y-1169246D01*
X4857206Y-1169246D02*
X4847682Y-1121627D01*
X4847682Y-1121627D02*
X4838158Y-1093055D01*
X4838158Y-1093055D02*
X4828634Y-1074008D01*
X4828634Y-1074008D02*
X4809587Y-1045436D01*
X4809587Y-1045436D02*
X4800063Y-1035912D01*
D10*
X11088Y-1470588D02*
X11088Y-1403412D01*
X-56088Y-1403412D01*
X-56088Y-1470588D01*
X11088Y-1470588D01*
D11*
X323872Y-1328484D02*
X342920Y-1328484D01*
X342920Y-1328484D02*
X361967Y-1338008D01*
X361967Y-1338008D02*
X371491Y-1347531D01*
X371491Y-1347531D02*
X381015Y-1366579D01*
X381015Y-1366579D02*
X390539Y-1404674D01*
X390539Y-1404674D02*
X390539Y-1452293D01*
X390539Y-1452293D02*
X381015Y-1490388D01*
X381015Y-1490388D02*
X371491Y-1509436D01*
X371491Y-1509436D02*
X361967Y-1518960D01*
X361967Y-1518960D02*
X342920Y-1528484D01*
X342920Y-1528484D02*
X323872Y-1528484D01*
X323872Y-1528484D02*
X304824Y-1518960D01*
X304824Y-1518960D02*
X295301Y-1509436D01*
X295301Y-1509436D02*
X285777Y-1490388D01*
X285777Y-1490388D02*
X276253Y-1452293D01*
X276253Y-1452293D02*
X276253Y-1404674D01*
X276253Y-1404674D02*
X285777Y-1366579D01*
X285777Y-1366579D02*
X295301Y-1347531D01*
X295301Y-1347531D02*
X304824Y-1338008D01*
X304824Y-1338008D02*
X323872Y-1328484D01*
X476253Y-1509436D02*
X485777Y-1518960D01*
X485777Y-1518960D02*
X476253Y-1528484D01*
X476253Y-1528484D02*
X466729Y-1518960D01*
X466729Y-1518960D02*
X476253Y-1509436D01*
X476253Y-1509436D02*
X476253Y-1528484D01*
X581015Y-1528484D02*
X619110Y-1528484D01*
X619110Y-1528484D02*
X638158Y-1518960D01*
X638158Y-1518960D02*
X647682Y-1509436D01*
X647682Y-1509436D02*
X666729Y-1480865D01*
X666729Y-1480865D02*
X676253Y-1442769D01*
X676253Y-1442769D02*
X676253Y-1366579D01*
X676253Y-1366579D02*
X666729Y-1347531D01*
X666729Y-1347531D02*
X657205Y-1338008D01*
X657205Y-1338008D02*
X638158Y-1328484D01*
X638158Y-1328484D02*
X600063Y-1328484D01*
X600063Y-1328484D02*
X581015Y-1338008D01*
X581015Y-1338008D02*
X571491Y-1347531D01*
X571491Y-1347531D02*
X561967Y-1366579D01*
X561967Y-1366579D02*
X561967Y-1414198D01*
X561967Y-1414198D02*
X571491Y-1433246D01*
X571491Y-1433246D02*
X581015Y-1442769D01*
X581015Y-1442769D02*
X600063Y-1452293D01*
X600063Y-1452293D02*
X638158Y-1452293D01*
X638158Y-1452293D02*
X657205Y-1442769D01*
X657205Y-1442769D02*
X666729Y-1433246D01*
X666729Y-1433246D02*
X676253Y-1414198D01*
X857205Y-1328484D02*
X761967Y-1328484D01*
X761967Y-1328484D02*
X752443Y-1423722D01*
X752443Y-1423722D02*
X761967Y-1414198D01*
X761967Y-1414198D02*
X781015Y-1404674D01*
X781015Y-1404674D02*
X828634Y-1404674D01*
X828634Y-1404674D02*
X847682Y-1414198D01*
X847682Y-1414198D02*
X857205Y-1423722D01*
X857205Y-1423722D02*
X866729Y-1442769D01*
X866729Y-1442769D02*
X866729Y-1490388D01*
X866729Y-1490388D02*
X857205Y-1509436D01*
X857205Y-1509436D02*
X847682Y-1518960D01*
X847682Y-1518960D02*
X828634Y-1528484D01*
X828634Y-1528484D02*
X781015Y-1528484D01*
X781015Y-1528484D02*
X761967Y-1518960D01*
X761967Y-1518960D02*
X752443Y-1509436D01*
X990539Y-1328484D02*
X1009586Y-1328484D01*
X1009586Y-1328484D02*
X1028634Y-1338008D01*
X1028634Y-1338008D02*
X1038158Y-1347531D01*
X1038158Y-1347531D02*
X1047682Y-1366579D01*
X1047682Y-1366579D02*
X1057205Y-1404674D01*
X1057205Y-1404674D02*
X1057205Y-1452293D01*
X1057205Y-1452293D02*
X1047682Y-1490388D01*
X1047682Y-1490388D02*
X1038158Y-1509436D01*
X1038158Y-1509436D02*
X1028634Y-1518960D01*
X1028634Y-1518960D02*
X1009586Y-1528484D01*
X1009586Y-1528484D02*
X990539Y-1528484D01*
X990539Y-1528484D02*
X971491Y-1518960D01*
X971491Y-1518960D02*
X961967Y-1509436D01*
X961967Y-1509436D02*
X952443Y-1490388D01*
X952443Y-1490388D02*
X942920Y-1452293D01*
X942920Y-1452293D02*
X942920Y-1404674D01*
X942920Y-1404674D02*
X952443Y-1366579D01*
X952443Y-1366579D02*
X961967Y-1347531D01*
X961967Y-1347531D02*
X971491Y-1338008D01*
X971491Y-1338008D02*
X990539Y-1328484D01*
X1142920Y-1528484D02*
X1142920Y-1395150D01*
X1142920Y-1414198D02*
X1152444Y-1404674D01*
X1152444Y-1404674D02*
X1171491Y-1395150D01*
X1171491Y-1395150D02*
X1200063Y-1395150D01*
X1200063Y-1395150D02*
X1219110Y-1404674D01*
X1219110Y-1404674D02*
X1228634Y-1423722D01*
X1228634Y-1423722D02*
X1228634Y-1528484D01*
X1228634Y-1423722D02*
X1238158Y-1404674D01*
X1238158Y-1404674D02*
X1257205Y-1395150D01*
X1257205Y-1395150D02*
X1285777Y-1395150D01*
X1285777Y-1395150D02*
X1304825Y-1404674D01*
X1304825Y-1404674D02*
X1314348Y-1423722D01*
X1314348Y-1423722D02*
X1314348Y-1528484D01*
X1409586Y-1528484D02*
X1409586Y-1395150D01*
X1409586Y-1414198D02*
X1419110Y-1404674D01*
X1419110Y-1404674D02*
X1438158Y-1395150D01*
X1438158Y-1395150D02*
X1466729Y-1395150D01*
X1466729Y-1395150D02*
X1485777Y-1404674D01*
X1485777Y-1404674D02*
X1495301Y-1423722D01*
X1495301Y-1423722D02*
X1495301Y-1528484D01*
X1495301Y-1423722D02*
X1504824Y-1404674D01*
X1504824Y-1404674D02*
X1523872Y-1395150D01*
X1523872Y-1395150D02*
X1552443Y-1395150D01*
X1552443Y-1395150D02*
X1571491Y-1404674D01*
X1571491Y-1404674D02*
X1581015Y-1423722D01*
X1581015Y-1423722D02*
X1581015Y-1528484D01*
X1971491Y-1318960D02*
X1800063Y-1576103D01*
X2228634Y-1328484D02*
X2247682Y-1328484D01*
X2247682Y-1328484D02*
X2266729Y-1338008D01*
X2266729Y-1338008D02*
X2276253Y-1347531D01*
X2276253Y-1347531D02*
X2285777Y-1366579D01*
X2285777Y-1366579D02*
X2295301Y-1404674D01*
X2295301Y-1404674D02*
X2295301Y-1452293D01*
X2295301Y-1452293D02*
X2285777Y-1490388D01*
X2285777Y-1490388D02*
X2276253Y-1509436D01*
X2276253Y-1509436D02*
X2266729Y-1518960D01*
X2266729Y-1518960D02*
X2247682Y-1528484D01*
X2247682Y-1528484D02*
X2228634Y-1528484D01*
X2228634Y-1528484D02*
X2209587Y-1518960D01*
X2209587Y-1518960D02*
X2200063Y-1509436D01*
X2200063Y-1509436D02*
X2190539Y-1490388D01*
X2190539Y-1490388D02*
X2181015Y-1452293D01*
X2181015Y-1452293D02*
X2181015Y-1404674D01*
X2181015Y-1404674D02*
X2190539Y-1366579D01*
X2190539Y-1366579D02*
X2200063Y-1347531D01*
X2200063Y-1347531D02*
X2209587Y-1338008D01*
X2209587Y-1338008D02*
X2228634Y-1328484D01*
X2381015Y-1509436D02*
X2390539Y-1518960D01*
X2390539Y-1518960D02*
X2381015Y-1528484D01*
X2381015Y-1528484D02*
X2371491Y-1518960D01*
X2371491Y-1518960D02*
X2381015Y-1509436D01*
X2381015Y-1509436D02*
X2381015Y-1528484D01*
X2514348Y-1328484D02*
X2533396Y-1328484D01*
X2533396Y-1328484D02*
X2552444Y-1338008D01*
X2552444Y-1338008D02*
X2561968Y-1347531D01*
X2561968Y-1347531D02*
X2571491Y-1366579D01*
X2571491Y-1366579D02*
X2581015Y-1404674D01*
X2581015Y-1404674D02*
X2581015Y-1452293D01*
X2581015Y-1452293D02*
X2571491Y-1490388D01*
X2571491Y-1490388D02*
X2561968Y-1509436D01*
X2561968Y-1509436D02*
X2552444Y-1518960D01*
X2552444Y-1518960D02*
X2533396Y-1528484D01*
X2533396Y-1528484D02*
X2514348Y-1528484D01*
X2514348Y-1528484D02*
X2495301Y-1518960D01*
X2495301Y-1518960D02*
X2485777Y-1509436D01*
X2485777Y-1509436D02*
X2476253Y-1490388D01*
X2476253Y-1490388D02*
X2466729Y-1452293D01*
X2466729Y-1452293D02*
X2466729Y-1404674D01*
X2466729Y-1404674D02*
X2476253Y-1366579D01*
X2476253Y-1366579D02*
X2485777Y-1347531D01*
X2485777Y-1347531D02*
X2495301Y-1338008D01*
X2495301Y-1338008D02*
X2514348Y-1328484D01*
X2647682Y-1328484D02*
X2771491Y-1328484D01*
X2771491Y-1328484D02*
X2704825Y-1404674D01*
X2704825Y-1404674D02*
X2733396Y-1404674D01*
X2733396Y-1404674D02*
X2752444Y-1414198D01*
X2752444Y-1414198D02*
X2761968Y-1423722D01*
X2761968Y-1423722D02*
X2771491Y-1442769D01*
X2771491Y-1442769D02*
X2771491Y-1490388D01*
X2771491Y-1490388D02*
X2761968Y-1509436D01*
X2761968Y-1509436D02*
X2752444Y-1518960D01*
X2752444Y-1518960D02*
X2733396Y-1528484D01*
X2733396Y-1528484D02*
X2676253Y-1528484D01*
X2676253Y-1528484D02*
X2657206Y-1518960D01*
X2657206Y-1518960D02*
X2647682Y-1509436D01*
X2838158Y-1328484D02*
X2971491Y-1328484D01*
X2971491Y-1328484D02*
X2885777Y-1528484D01*
X3133396Y-1395150D02*
X3133396Y-1528484D01*
X3085777Y-1318960D02*
X3038158Y-1461817D01*
X3038158Y-1461817D02*
X3161967Y-1461817D01*
X3228634Y-1328484D02*
X3228634Y-1366579D01*
X3304825Y-1328484D02*
X3304825Y-1366579D01*
X3600063Y-1604674D02*
X3590539Y-1595150D01*
X3590539Y-1595150D02*
X3571491Y-1566579D01*
X3571491Y-1566579D02*
X3561968Y-1547531D01*
X3561968Y-1547531D02*
X3552444Y-1518960D01*
X3552444Y-1518960D02*
X3542920Y-1471341D01*
X3542920Y-1471341D02*
X3542920Y-1433246D01*
X3542920Y-1433246D02*
X3552444Y-1385627D01*
X3552444Y-1385627D02*
X3561968Y-1357055D01*
X3561968Y-1357055D02*
X3571491Y-1338008D01*
X3571491Y-1338008D02*
X3590539Y-1309436D01*
X3590539Y-1309436D02*
X3600063Y-1299912D01*
X3781015Y-1528484D02*
X3666729Y-1528484D01*
X3723872Y-1528484D02*
X3723872Y-1328484D01*
X3723872Y-1328484D02*
X3704825Y-1357055D01*
X3704825Y-1357055D02*
X3685777Y-1376103D01*
X3685777Y-1376103D02*
X3666729Y-1385627D01*
X3904825Y-1328484D02*
X3923872Y-1328484D01*
X3923872Y-1328484D02*
X3942920Y-1338008D01*
X3942920Y-1338008D02*
X3952444Y-1347531D01*
X3952444Y-1347531D02*
X3961968Y-1366579D01*
X3961968Y-1366579D02*
X3971491Y-1404674D01*
X3971491Y-1404674D02*
X3971491Y-1452293D01*
X3971491Y-1452293D02*
X3961968Y-1490388D01*
X3961968Y-1490388D02*
X3952444Y-1509436D01*
X3952444Y-1509436D02*
X3942920Y-1518960D01*
X3942920Y-1518960D02*
X3923872Y-1528484D01*
X3923872Y-1528484D02*
X3904825Y-1528484D01*
X3904825Y-1528484D02*
X3885777Y-1518960D01*
X3885777Y-1518960D02*
X3876253Y-1509436D01*
X3876253Y-1509436D02*
X3866729Y-1490388D01*
X3866729Y-1490388D02*
X3857206Y-1452293D01*
X3857206Y-1452293D02*
X3857206Y-1404674D01*
X3857206Y-1404674D02*
X3866729Y-1366579D01*
X3866729Y-1366579D02*
X3876253Y-1347531D01*
X3876253Y-1347531D02*
X3885777Y-1338008D01*
X3885777Y-1338008D02*
X3904825Y-1328484D01*
X4209587Y-1528484D02*
X4209587Y-1328484D01*
X4295301Y-1528484D02*
X4295301Y-1423722D01*
X4295301Y-1423722D02*
X4285777Y-1404674D01*
X4285777Y-1404674D02*
X4266730Y-1395150D01*
X4266730Y-1395150D02*
X4238158Y-1395150D01*
X4238158Y-1395150D02*
X4219111Y-1404674D01*
X4219111Y-1404674D02*
X4209587Y-1414198D01*
X4419111Y-1528484D02*
X4400063Y-1518960D01*
X4400063Y-1518960D02*
X4390539Y-1509436D01*
X4390539Y-1509436D02*
X4381015Y-1490388D01*
X4381015Y-1490388D02*
X4381015Y-1433246D01*
X4381015Y-1433246D02*
X4390539Y-1414198D01*
X4390539Y-1414198D02*
X4400063Y-1404674D01*
X4400063Y-1404674D02*
X4419111Y-1395150D01*
X4419111Y-1395150D02*
X4447682Y-1395150D01*
X4447682Y-1395150D02*
X4466730Y-1404674D01*
X4466730Y-1404674D02*
X4476253Y-1414198D01*
X4476253Y-1414198D02*
X4485777Y-1433246D01*
X4485777Y-1433246D02*
X4485777Y-1490388D01*
X4485777Y-1490388D02*
X4476253Y-1509436D01*
X4476253Y-1509436D02*
X4466730Y-1518960D01*
X4466730Y-1518960D02*
X4447682Y-1528484D01*
X4447682Y-1528484D02*
X4419111Y-1528484D01*
X4600063Y-1528484D02*
X4581015Y-1518960D01*
X4581015Y-1518960D02*
X4571492Y-1499912D01*
X4571492Y-1499912D02*
X4571492Y-1328484D01*
X4752444Y-1518960D02*
X4733396Y-1528484D01*
X4733396Y-1528484D02*
X4695301Y-1528484D01*
X4695301Y-1528484D02*
X4676253Y-1518960D01*
X4676253Y-1518960D02*
X4666730Y-1499912D01*
X4666730Y-1499912D02*
X4666730Y-1423722D01*
X4666730Y-1423722D02*
X4676253Y-1404674D01*
X4676253Y-1404674D02*
X4695301Y-1395150D01*
X4695301Y-1395150D02*
X4733396Y-1395150D01*
X4733396Y-1395150D02*
X4752444Y-1404674D01*
X4752444Y-1404674D02*
X4761968Y-1423722D01*
X4761968Y-1423722D02*
X4761968Y-1442769D01*
X4761968Y-1442769D02*
X4666730Y-1461817D01*
X4838158Y-1518960D02*
X4857206Y-1528484D01*
X4857206Y-1528484D02*
X4895301Y-1528484D01*
X4895301Y-1528484D02*
X4914349Y-1518960D01*
X4914349Y-1518960D02*
X4923873Y-1499912D01*
X4923873Y-1499912D02*
X4923873Y-1490388D01*
X4923873Y-1490388D02*
X4914349Y-1471341D01*
X4914349Y-1471341D02*
X4895301Y-1461817D01*
X4895301Y-1461817D02*
X4866730Y-1461817D01*
X4866730Y-1461817D02*
X4847682Y-1452293D01*
X4847682Y-1452293D02*
X4838158Y-1433246D01*
X4838158Y-1433246D02*
X4838158Y-1423722D01*
X4838158Y-1423722D02*
X4847682Y-1404674D01*
X4847682Y-1404674D02*
X4866730Y-1395150D01*
X4866730Y-1395150D02*
X4895301Y-1395150D01*
X4895301Y-1395150D02*
X4914349Y-1404674D01*
X4990539Y-1604674D02*
X5000063Y-1595150D01*
X5000063Y-1595150D02*
X5019111Y-1566579D01*
X5019111Y-1566579D02*
X5028634Y-1547531D01*
X5028634Y-1547531D02*
X5038158Y-1518960D01*
X5038158Y-1518960D02*
X5047682Y-1471341D01*
X5047682Y-1471341D02*
X5047682Y-1433246D01*
X5047682Y-1433246D02*
X5038158Y-1385627D01*
X5038158Y-1385627D02*
X5028634Y-1357055D01*
X5028634Y-1357055D02*
X5019111Y-1338008D01*
X5019111Y-1338008D02*
X5000063Y-1309436D01*
X5000063Y-1309436D02*
X4990539Y-1299912D01*
D10*
X-25000Y-1751000D02*
X25000Y-1701000D01*
X-25000Y-1651000D01*
X-75000Y-1701000D01*
X-25000Y-1751000D01*
D11*
X390539Y-1792484D02*
X276253Y-1792484D01*
X333396Y-1792484D02*
X333396Y-1592484D01*
X333396Y-1592484D02*
X314348Y-1621055D01*
X314348Y-1621055D02*
X295301Y-1640103D01*
X295301Y-1640103D02*
X276253Y-1649627D01*
X476253Y-1773436D02*
X485777Y-1782960D01*
X485777Y-1782960D02*
X476253Y-1792484D01*
X476253Y-1792484D02*
X466729Y-1782960D01*
X466729Y-1782960D02*
X476253Y-1773436D01*
X476253Y-1773436D02*
X476253Y-1792484D01*
X609586Y-1592484D02*
X628634Y-1592484D01*
X628634Y-1592484D02*
X647682Y-1602008D01*
X647682Y-1602008D02*
X657205Y-1611531D01*
X657205Y-1611531D02*
X666729Y-1630579D01*
X666729Y-1630579D02*
X676253Y-1668674D01*
X676253Y-1668674D02*
X676253Y-1716293D01*
X676253Y-1716293D02*
X666729Y-1754388D01*
X666729Y-1754388D02*
X657205Y-1773436D01*
X657205Y-1773436D02*
X647682Y-1782960D01*
X647682Y-1782960D02*
X628634Y-1792484D01*
X628634Y-1792484D02*
X609586Y-1792484D01*
X609586Y-1792484D02*
X590539Y-1782960D01*
X590539Y-1782960D02*
X581015Y-1773436D01*
X581015Y-1773436D02*
X571491Y-1754388D01*
X571491Y-1754388D02*
X561967Y-1716293D01*
X561967Y-1716293D02*
X561967Y-1668674D01*
X561967Y-1668674D02*
X571491Y-1630579D01*
X571491Y-1630579D02*
X581015Y-1611531D01*
X581015Y-1611531D02*
X590539Y-1602008D01*
X590539Y-1602008D02*
X609586Y-1592484D01*
X800062Y-1592484D02*
X819110Y-1592484D01*
X819110Y-1592484D02*
X838158Y-1602008D01*
X838158Y-1602008D02*
X847682Y-1611531D01*
X847682Y-1611531D02*
X857205Y-1630579D01*
X857205Y-1630579D02*
X866729Y-1668674D01*
X866729Y-1668674D02*
X866729Y-1716293D01*
X866729Y-1716293D02*
X857205Y-1754388D01*
X857205Y-1754388D02*
X847682Y-1773436D01*
X847682Y-1773436D02*
X838158Y-1782960D01*
X838158Y-1782960D02*
X819110Y-1792484D01*
X819110Y-1792484D02*
X800062Y-1792484D01*
X800062Y-1792484D02*
X781015Y-1782960D01*
X781015Y-1782960D02*
X771491Y-1773436D01*
X771491Y-1773436D02*
X761967Y-1754388D01*
X761967Y-1754388D02*
X752443Y-1716293D01*
X752443Y-1716293D02*
X752443Y-1668674D01*
X752443Y-1668674D02*
X761967Y-1630579D01*
X761967Y-1630579D02*
X771491Y-1611531D01*
X771491Y-1611531D02*
X781015Y-1602008D01*
X781015Y-1602008D02*
X800062Y-1592484D01*
X990539Y-1592484D02*
X1009586Y-1592484D01*
X1009586Y-1592484D02*
X1028634Y-1602008D01*
X1028634Y-1602008D02*
X1038158Y-1611531D01*
X1038158Y-1611531D02*
X1047682Y-1630579D01*
X1047682Y-1630579D02*
X1057205Y-1668674D01*
X1057205Y-1668674D02*
X1057205Y-1716293D01*
X1057205Y-1716293D02*
X1047682Y-1754388D01*
X1047682Y-1754388D02*
X1038158Y-1773436D01*
X1038158Y-1773436D02*
X1028634Y-1782960D01*
X1028634Y-1782960D02*
X1009586Y-1792484D01*
X1009586Y-1792484D02*
X990539Y-1792484D01*
X990539Y-1792484D02*
X971491Y-1782960D01*
X971491Y-1782960D02*
X961967Y-1773436D01*
X961967Y-1773436D02*
X952443Y-1754388D01*
X952443Y-1754388D02*
X942920Y-1716293D01*
X942920Y-1716293D02*
X942920Y-1668674D01*
X942920Y-1668674D02*
X952443Y-1630579D01*
X952443Y-1630579D02*
X961967Y-1611531D01*
X961967Y-1611531D02*
X971491Y-1602008D01*
X971491Y-1602008D02*
X990539Y-1592484D01*
X1142920Y-1792484D02*
X1142920Y-1659150D01*
X1142920Y-1678198D02*
X1152444Y-1668674D01*
X1152444Y-1668674D02*
X1171491Y-1659150D01*
X1171491Y-1659150D02*
X1200063Y-1659150D01*
X1200063Y-1659150D02*
X1219110Y-1668674D01*
X1219110Y-1668674D02*
X1228634Y-1687722D01*
X1228634Y-1687722D02*
X1228634Y-1792484D01*
X1228634Y-1687722D02*
X1238158Y-1668674D01*
X1238158Y-1668674D02*
X1257205Y-1659150D01*
X1257205Y-1659150D02*
X1285777Y-1659150D01*
X1285777Y-1659150D02*
X1304825Y-1668674D01*
X1304825Y-1668674D02*
X1314348Y-1687722D01*
X1314348Y-1687722D02*
X1314348Y-1792484D01*
X1409586Y-1792484D02*
X1409586Y-1659150D01*
X1409586Y-1678198D02*
X1419110Y-1668674D01*
X1419110Y-1668674D02*
X1438158Y-1659150D01*
X1438158Y-1659150D02*
X1466729Y-1659150D01*
X1466729Y-1659150D02*
X1485777Y-1668674D01*
X1485777Y-1668674D02*
X1495301Y-1687722D01*
X1495301Y-1687722D02*
X1495301Y-1792484D01*
X1495301Y-1687722D02*
X1504824Y-1668674D01*
X1504824Y-1668674D02*
X1523872Y-1659150D01*
X1523872Y-1659150D02*
X1552443Y-1659150D01*
X1552443Y-1659150D02*
X1571491Y-1668674D01*
X1571491Y-1668674D02*
X1581015Y-1687722D01*
X1581015Y-1687722D02*
X1581015Y-1792484D01*
X1971491Y-1582960D02*
X1800063Y-1840103D01*
X2228634Y-1592484D02*
X2247682Y-1592484D01*
X2247682Y-1592484D02*
X2266729Y-1602008D01*
X2266729Y-1602008D02*
X2276253Y-1611531D01*
X2276253Y-1611531D02*
X2285777Y-1630579D01*
X2285777Y-1630579D02*
X2295301Y-1668674D01*
X2295301Y-1668674D02*
X2295301Y-1716293D01*
X2295301Y-1716293D02*
X2285777Y-1754388D01*
X2285777Y-1754388D02*
X2276253Y-1773436D01*
X2276253Y-1773436D02*
X2266729Y-1782960D01*
X2266729Y-1782960D02*
X2247682Y-1792484D01*
X2247682Y-1792484D02*
X2228634Y-1792484D01*
X2228634Y-1792484D02*
X2209587Y-1782960D01*
X2209587Y-1782960D02*
X2200063Y-1773436D01*
X2200063Y-1773436D02*
X2190539Y-1754388D01*
X2190539Y-1754388D02*
X2181015Y-1716293D01*
X2181015Y-1716293D02*
X2181015Y-1668674D01*
X2181015Y-1668674D02*
X2190539Y-1630579D01*
X2190539Y-1630579D02*
X2200063Y-1611531D01*
X2200063Y-1611531D02*
X2209587Y-1602008D01*
X2209587Y-1602008D02*
X2228634Y-1592484D01*
X2381015Y-1773436D02*
X2390539Y-1782960D01*
X2390539Y-1782960D02*
X2381015Y-1792484D01*
X2381015Y-1792484D02*
X2371491Y-1782960D01*
X2371491Y-1782960D02*
X2381015Y-1773436D01*
X2381015Y-1773436D02*
X2381015Y-1792484D01*
X2514348Y-1592484D02*
X2533396Y-1592484D01*
X2533396Y-1592484D02*
X2552444Y-1602008D01*
X2552444Y-1602008D02*
X2561968Y-1611531D01*
X2561968Y-1611531D02*
X2571491Y-1630579D01*
X2571491Y-1630579D02*
X2581015Y-1668674D01*
X2581015Y-1668674D02*
X2581015Y-1716293D01*
X2581015Y-1716293D02*
X2571491Y-1754388D01*
X2571491Y-1754388D02*
X2561968Y-1773436D01*
X2561968Y-1773436D02*
X2552444Y-1782960D01*
X2552444Y-1782960D02*
X2533396Y-1792484D01*
X2533396Y-1792484D02*
X2514348Y-1792484D01*
X2514348Y-1792484D02*
X2495301Y-1782960D01*
X2495301Y-1782960D02*
X2485777Y-1773436D01*
X2485777Y-1773436D02*
X2476253Y-1754388D01*
X2476253Y-1754388D02*
X2466729Y-1716293D01*
X2466729Y-1716293D02*
X2466729Y-1668674D01*
X2466729Y-1668674D02*
X2476253Y-1630579D01*
X2476253Y-1630579D02*
X2485777Y-1611531D01*
X2485777Y-1611531D02*
X2495301Y-1602008D01*
X2495301Y-1602008D02*
X2514348Y-1592484D01*
X2647682Y-1592484D02*
X2771491Y-1592484D01*
X2771491Y-1592484D02*
X2704825Y-1668674D01*
X2704825Y-1668674D02*
X2733396Y-1668674D01*
X2733396Y-1668674D02*
X2752444Y-1678198D01*
X2752444Y-1678198D02*
X2761968Y-1687722D01*
X2761968Y-1687722D02*
X2771491Y-1706769D01*
X2771491Y-1706769D02*
X2771491Y-1754388D01*
X2771491Y-1754388D02*
X2761968Y-1773436D01*
X2761968Y-1773436D02*
X2752444Y-1782960D01*
X2752444Y-1782960D02*
X2733396Y-1792484D01*
X2733396Y-1792484D02*
X2676253Y-1792484D01*
X2676253Y-1792484D02*
X2657206Y-1782960D01*
X2657206Y-1782960D02*
X2647682Y-1773436D01*
X2866729Y-1792484D02*
X2904825Y-1792484D01*
X2904825Y-1792484D02*
X2923872Y-1782960D01*
X2923872Y-1782960D02*
X2933396Y-1773436D01*
X2933396Y-1773436D02*
X2952444Y-1744865D01*
X2952444Y-1744865D02*
X2961967Y-1706769D01*
X2961967Y-1706769D02*
X2961967Y-1630579D01*
X2961967Y-1630579D02*
X2952444Y-1611531D01*
X2952444Y-1611531D02*
X2942920Y-1602008D01*
X2942920Y-1602008D02*
X2923872Y-1592484D01*
X2923872Y-1592484D02*
X2885777Y-1592484D01*
X2885777Y-1592484D02*
X2866729Y-1602008D01*
X2866729Y-1602008D02*
X2857206Y-1611531D01*
X2857206Y-1611531D02*
X2847682Y-1630579D01*
X2847682Y-1630579D02*
X2847682Y-1678198D01*
X2847682Y-1678198D02*
X2857206Y-1697246D01*
X2857206Y-1697246D02*
X2866729Y-1706769D01*
X2866729Y-1706769D02*
X2885777Y-1716293D01*
X2885777Y-1716293D02*
X2923872Y-1716293D01*
X2923872Y-1716293D02*
X2942920Y-1706769D01*
X2942920Y-1706769D02*
X2952444Y-1697246D01*
X2952444Y-1697246D02*
X2961967Y-1678198D01*
X3133396Y-1659150D02*
X3133396Y-1792484D01*
X3085777Y-1582960D02*
X3038158Y-1725817D01*
X3038158Y-1725817D02*
X3161967Y-1725817D01*
X3228634Y-1592484D02*
X3228634Y-1630579D01*
X3304825Y-1592484D02*
X3304825Y-1630579D01*
X3600063Y-1868674D02*
X3590539Y-1859150D01*
X3590539Y-1859150D02*
X3571491Y-1830579D01*
X3571491Y-1830579D02*
X3561968Y-1811531D01*
X3561968Y-1811531D02*
X3552444Y-1782960D01*
X3552444Y-1782960D02*
X3542920Y-1735341D01*
X3542920Y-1735341D02*
X3542920Y-1697246D01*
X3542920Y-1697246D02*
X3552444Y-1649627D01*
X3552444Y-1649627D02*
X3561968Y-1621055D01*
X3561968Y-1621055D02*
X3571491Y-1602008D01*
X3571491Y-1602008D02*
X3590539Y-1573436D01*
X3590539Y-1573436D02*
X3600063Y-1563912D01*
X3666729Y-1611531D02*
X3676253Y-1602008D01*
X3676253Y-1602008D02*
X3695301Y-1592484D01*
X3695301Y-1592484D02*
X3742920Y-1592484D01*
X3742920Y-1592484D02*
X3761968Y-1602008D01*
X3761968Y-1602008D02*
X3771491Y-1611531D01*
X3771491Y-1611531D02*
X3781015Y-1630579D01*
X3781015Y-1630579D02*
X3781015Y-1649627D01*
X3781015Y-1649627D02*
X3771491Y-1678198D01*
X3771491Y-1678198D02*
X3657206Y-1792484D01*
X3657206Y-1792484D02*
X3781015Y-1792484D01*
X3857206Y-1611531D02*
X3866729Y-1602008D01*
X3866729Y-1602008D02*
X3885777Y-1592484D01*
X3885777Y-1592484D02*
X3933396Y-1592484D01*
X3933396Y-1592484D02*
X3952444Y-1602008D01*
X3952444Y-1602008D02*
X3961968Y-1611531D01*
X3961968Y-1611531D02*
X3971491Y-1630579D01*
X3971491Y-1630579D02*
X3971491Y-1649627D01*
X3971491Y-1649627D02*
X3961968Y-1678198D01*
X3961968Y-1678198D02*
X3847682Y-1792484D01*
X3847682Y-1792484D02*
X3971491Y-1792484D01*
X4209587Y-1792484D02*
X4209587Y-1592484D01*
X4295301Y-1792484D02*
X4295301Y-1687722D01*
X4295301Y-1687722D02*
X4285777Y-1668674D01*
X4285777Y-1668674D02*
X4266730Y-1659150D01*
X4266730Y-1659150D02*
X4238158Y-1659150D01*
X4238158Y-1659150D02*
X4219111Y-1668674D01*
X4219111Y-1668674D02*
X4209587Y-1678198D01*
X4419111Y-1792484D02*
X4400063Y-1782960D01*
X4400063Y-1782960D02*
X4390539Y-1773436D01*
X4390539Y-1773436D02*
X4381015Y-1754388D01*
X4381015Y-1754388D02*
X4381015Y-1697246D01*
X4381015Y-1697246D02*
X4390539Y-1678198D01*
X4390539Y-1678198D02*
X4400063Y-1668674D01*
X4400063Y-1668674D02*
X4419111Y-1659150D01*
X4419111Y-1659150D02*
X4447682Y-1659150D01*
X4447682Y-1659150D02*
X4466730Y-1668674D01*
X4466730Y-1668674D02*
X4476253Y-1678198D01*
X4476253Y-1678198D02*
X4485777Y-1697246D01*
X4485777Y-1697246D02*
X4485777Y-1754388D01*
X4485777Y-1754388D02*
X4476253Y-1773436D01*
X4476253Y-1773436D02*
X4466730Y-1782960D01*
X4466730Y-1782960D02*
X4447682Y-1792484D01*
X4447682Y-1792484D02*
X4419111Y-1792484D01*
X4600063Y-1792484D02*
X4581015Y-1782960D01*
X4581015Y-1782960D02*
X4571492Y-1763912D01*
X4571492Y-1763912D02*
X4571492Y-1592484D01*
X4752444Y-1782960D02*
X4733396Y-1792484D01*
X4733396Y-1792484D02*
X4695301Y-1792484D01*
X4695301Y-1792484D02*
X4676253Y-1782960D01*
X4676253Y-1782960D02*
X4666730Y-1763912D01*
X4666730Y-1763912D02*
X4666730Y-1687722D01*
X4666730Y-1687722D02*
X4676253Y-1668674D01*
X4676253Y-1668674D02*
X4695301Y-1659150D01*
X4695301Y-1659150D02*
X4733396Y-1659150D01*
X4733396Y-1659150D02*
X4752444Y-1668674D01*
X4752444Y-1668674D02*
X4761968Y-1687722D01*
X4761968Y-1687722D02*
X4761968Y-1706769D01*
X4761968Y-1706769D02*
X4666730Y-1725817D01*
X4838158Y-1782960D02*
X4857206Y-1792484D01*
X4857206Y-1792484D02*
X4895301Y-1792484D01*
X4895301Y-1792484D02*
X4914349Y-1782960D01*
X4914349Y-1782960D02*
X4923873Y-1763912D01*
X4923873Y-1763912D02*
X4923873Y-1754388D01*
X4923873Y-1754388D02*
X4914349Y-1735341D01*
X4914349Y-1735341D02*
X4895301Y-1725817D01*
X4895301Y-1725817D02*
X4866730Y-1725817D01*
X4866730Y-1725817D02*
X4847682Y-1716293D01*
X4847682Y-1716293D02*
X4838158Y-1697246D01*
X4838158Y-1697246D02*
X4838158Y-1687722D01*
X4838158Y-1687722D02*
X4847682Y-1668674D01*
X4847682Y-1668674D02*
X4866730Y-1659150D01*
X4866730Y-1659150D02*
X4895301Y-1659150D01*
X4895301Y-1659150D02*
X4914349Y-1668674D01*
X4990539Y-1868674D02*
X5000063Y-1859150D01*
X5000063Y-1859150D02*
X5019111Y-1830579D01*
X5019111Y-1830579D02*
X5028634Y-1811531D01*
X5028634Y-1811531D02*
X5038158Y-1782960D01*
X5038158Y-1782960D02*
X5047682Y-1735341D01*
X5047682Y-1735341D02*
X5047682Y-1697246D01*
X5047682Y-1697246D02*
X5038158Y-1649627D01*
X5038158Y-1649627D02*
X5028634Y-1621055D01*
X5028634Y-1621055D02*
X5019111Y-1602008D01*
X5019111Y-1602008D02*
X5000063Y-1573436D01*
X5000063Y-1573436D02*
X4990539Y-1563912D01*
D12*
X-85000Y-1910000D02*
X25000Y-2020000D01*
X25000Y-1910000D02*
X-85000Y-2020000D01*
X25000Y-1965000D02*
G75*
G03*
X25000Y-1965000I-55000J0D01*
G01*
D11*
X390539Y-2056484D02*
X276253Y-2056484D01*
X333396Y-2056484D02*
X333396Y-1856484D01*
X333396Y-1856484D02*
X314348Y-1885055D01*
X314348Y-1885055D02*
X295301Y-1904103D01*
X295301Y-1904103D02*
X276253Y-1913627D01*
X476253Y-2037436D02*
X485777Y-2046960D01*
X485777Y-2046960D02*
X476253Y-2056484D01*
X476253Y-2056484D02*
X466729Y-2046960D01*
X466729Y-2046960D02*
X476253Y-2037436D01*
X476253Y-2037436D02*
X476253Y-2056484D01*
X676253Y-2056484D02*
X561967Y-2056484D01*
X619110Y-2056484D02*
X619110Y-1856484D01*
X619110Y-1856484D02*
X600063Y-1885055D01*
X600063Y-1885055D02*
X581015Y-1904103D01*
X581015Y-1904103D02*
X561967Y-1913627D01*
X800062Y-1856484D02*
X819110Y-1856484D01*
X819110Y-1856484D02*
X838158Y-1866008D01*
X838158Y-1866008D02*
X847682Y-1875531D01*
X847682Y-1875531D02*
X857205Y-1894579D01*
X857205Y-1894579D02*
X866729Y-1932674D01*
X866729Y-1932674D02*
X866729Y-1980293D01*
X866729Y-1980293D02*
X857205Y-2018388D01*
X857205Y-2018388D02*
X847682Y-2037436D01*
X847682Y-2037436D02*
X838158Y-2046960D01*
X838158Y-2046960D02*
X819110Y-2056484D01*
X819110Y-2056484D02*
X800062Y-2056484D01*
X800062Y-2056484D02*
X781015Y-2046960D01*
X781015Y-2046960D02*
X771491Y-2037436D01*
X771491Y-2037436D02*
X761967Y-2018388D01*
X761967Y-2018388D02*
X752443Y-1980293D01*
X752443Y-1980293D02*
X752443Y-1932674D01*
X752443Y-1932674D02*
X761967Y-1894579D01*
X761967Y-1894579D02*
X771491Y-1875531D01*
X771491Y-1875531D02*
X781015Y-1866008D01*
X781015Y-1866008D02*
X800062Y-1856484D01*
X990539Y-1856484D02*
X1009586Y-1856484D01*
X1009586Y-1856484D02*
X1028634Y-1866008D01*
X1028634Y-1866008D02*
X1038158Y-1875531D01*
X1038158Y-1875531D02*
X1047682Y-1894579D01*
X1047682Y-1894579D02*
X1057205Y-1932674D01*
X1057205Y-1932674D02*
X1057205Y-1980293D01*
X1057205Y-1980293D02*
X1047682Y-2018388D01*
X1047682Y-2018388D02*
X1038158Y-2037436D01*
X1038158Y-2037436D02*
X1028634Y-2046960D01*
X1028634Y-2046960D02*
X1009586Y-2056484D01*
X1009586Y-2056484D02*
X990539Y-2056484D01*
X990539Y-2056484D02*
X971491Y-2046960D01*
X971491Y-2046960D02*
X961967Y-2037436D01*
X961967Y-2037436D02*
X952443Y-2018388D01*
X952443Y-2018388D02*
X942920Y-1980293D01*
X942920Y-1980293D02*
X942920Y-1932674D01*
X942920Y-1932674D02*
X952443Y-1894579D01*
X952443Y-1894579D02*
X961967Y-1875531D01*
X961967Y-1875531D02*
X971491Y-1866008D01*
X971491Y-1866008D02*
X990539Y-1856484D01*
X1142920Y-2056484D02*
X1142920Y-1923150D01*
X1142920Y-1942198D02*
X1152444Y-1932674D01*
X1152444Y-1932674D02*
X1171491Y-1923150D01*
X1171491Y-1923150D02*
X1200063Y-1923150D01*
X1200063Y-1923150D02*
X1219110Y-1932674D01*
X1219110Y-1932674D02*
X1228634Y-1951722D01*
X1228634Y-1951722D02*
X1228634Y-2056484D01*
X1228634Y-1951722D02*
X1238158Y-1932674D01*
X1238158Y-1932674D02*
X1257205Y-1923150D01*
X1257205Y-1923150D02*
X1285777Y-1923150D01*
X1285777Y-1923150D02*
X1304825Y-1932674D01*
X1304825Y-1932674D02*
X1314348Y-1951722D01*
X1314348Y-1951722D02*
X1314348Y-2056484D01*
X1409586Y-2056484D02*
X1409586Y-1923150D01*
X1409586Y-1942198D02*
X1419110Y-1932674D01*
X1419110Y-1932674D02*
X1438158Y-1923150D01*
X1438158Y-1923150D02*
X1466729Y-1923150D01*
X1466729Y-1923150D02*
X1485777Y-1932674D01*
X1485777Y-1932674D02*
X1495301Y-1951722D01*
X1495301Y-1951722D02*
X1495301Y-2056484D01*
X1495301Y-1951722D02*
X1504824Y-1932674D01*
X1504824Y-1932674D02*
X1523872Y-1923150D01*
X1523872Y-1923150D02*
X1552443Y-1923150D01*
X1552443Y-1923150D02*
X1571491Y-1932674D01*
X1571491Y-1932674D02*
X1581015Y-1951722D01*
X1581015Y-1951722D02*
X1581015Y-2056484D01*
X1971491Y-1846960D02*
X1800063Y-2104103D01*
X2228634Y-1856484D02*
X2247682Y-1856484D01*
X2247682Y-1856484D02*
X2266729Y-1866008D01*
X2266729Y-1866008D02*
X2276253Y-1875531D01*
X2276253Y-1875531D02*
X2285777Y-1894579D01*
X2285777Y-1894579D02*
X2295301Y-1932674D01*
X2295301Y-1932674D02*
X2295301Y-1980293D01*
X2295301Y-1980293D02*
X2285777Y-2018388D01*
X2285777Y-2018388D02*
X2276253Y-2037436D01*
X2276253Y-2037436D02*
X2266729Y-2046960D01*
X2266729Y-2046960D02*
X2247682Y-2056484D01*
X2247682Y-2056484D02*
X2228634Y-2056484D01*
X2228634Y-2056484D02*
X2209587Y-2046960D01*
X2209587Y-2046960D02*
X2200063Y-2037436D01*
X2200063Y-2037436D02*
X2190539Y-2018388D01*
X2190539Y-2018388D02*
X2181015Y-1980293D01*
X2181015Y-1980293D02*
X2181015Y-1932674D01*
X2181015Y-1932674D02*
X2190539Y-1894579D01*
X2190539Y-1894579D02*
X2200063Y-1875531D01*
X2200063Y-1875531D02*
X2209587Y-1866008D01*
X2209587Y-1866008D02*
X2228634Y-1856484D01*
X2381015Y-2037436D02*
X2390539Y-2046960D01*
X2390539Y-2046960D02*
X2381015Y-2056484D01*
X2381015Y-2056484D02*
X2371491Y-2046960D01*
X2371491Y-2046960D02*
X2381015Y-2037436D01*
X2381015Y-2037436D02*
X2381015Y-2056484D01*
X2514348Y-1856484D02*
X2533396Y-1856484D01*
X2533396Y-1856484D02*
X2552444Y-1866008D01*
X2552444Y-1866008D02*
X2561968Y-1875531D01*
X2561968Y-1875531D02*
X2571491Y-1894579D01*
X2571491Y-1894579D02*
X2581015Y-1932674D01*
X2581015Y-1932674D02*
X2581015Y-1980293D01*
X2581015Y-1980293D02*
X2571491Y-2018388D01*
X2571491Y-2018388D02*
X2561968Y-2037436D01*
X2561968Y-2037436D02*
X2552444Y-2046960D01*
X2552444Y-2046960D02*
X2533396Y-2056484D01*
X2533396Y-2056484D02*
X2514348Y-2056484D01*
X2514348Y-2056484D02*
X2495301Y-2046960D01*
X2495301Y-2046960D02*
X2485777Y-2037436D01*
X2485777Y-2037436D02*
X2476253Y-2018388D01*
X2476253Y-2018388D02*
X2466729Y-1980293D01*
X2466729Y-1980293D02*
X2466729Y-1932674D01*
X2466729Y-1932674D02*
X2476253Y-1894579D01*
X2476253Y-1894579D02*
X2485777Y-1875531D01*
X2485777Y-1875531D02*
X2495301Y-1866008D01*
X2495301Y-1866008D02*
X2514348Y-1856484D01*
X2752444Y-1923150D02*
X2752444Y-2056484D01*
X2704825Y-1846960D02*
X2657206Y-1989817D01*
X2657206Y-1989817D02*
X2781015Y-1989817D01*
X2838158Y-1856484D02*
X2961967Y-1856484D01*
X2961967Y-1856484D02*
X2895301Y-1932674D01*
X2895301Y-1932674D02*
X2923872Y-1932674D01*
X2923872Y-1932674D02*
X2942920Y-1942198D01*
X2942920Y-1942198D02*
X2952444Y-1951722D01*
X2952444Y-1951722D02*
X2961967Y-1970769D01*
X2961967Y-1970769D02*
X2961967Y-2018388D01*
X2961967Y-2018388D02*
X2952444Y-2037436D01*
X2952444Y-2037436D02*
X2942920Y-2046960D01*
X2942920Y-2046960D02*
X2923872Y-2056484D01*
X2923872Y-2056484D02*
X2866729Y-2056484D01*
X2866729Y-2056484D02*
X2847682Y-2046960D01*
X2847682Y-2046960D02*
X2838158Y-2037436D01*
X3028634Y-1856484D02*
X3152444Y-1856484D01*
X3152444Y-1856484D02*
X3085777Y-1932674D01*
X3085777Y-1932674D02*
X3114348Y-1932674D01*
X3114348Y-1932674D02*
X3133396Y-1942198D01*
X3133396Y-1942198D02*
X3142920Y-1951722D01*
X3142920Y-1951722D02*
X3152444Y-1970769D01*
X3152444Y-1970769D02*
X3152444Y-2018388D01*
X3152444Y-2018388D02*
X3142920Y-2037436D01*
X3142920Y-2037436D02*
X3133396Y-2046960D01*
X3133396Y-2046960D02*
X3114348Y-2056484D01*
X3114348Y-2056484D02*
X3057206Y-2056484D01*
X3057206Y-2056484D02*
X3038158Y-2046960D01*
X3038158Y-2046960D02*
X3028634Y-2037436D01*
X3228634Y-1856484D02*
X3228634Y-1894579D01*
X3304825Y-1856484D02*
X3304825Y-1894579D01*
X3600063Y-2132674D02*
X3590539Y-2123150D01*
X3590539Y-2123150D02*
X3571491Y-2094579D01*
X3571491Y-2094579D02*
X3561968Y-2075531D01*
X3561968Y-2075531D02*
X3552444Y-2046960D01*
X3552444Y-2046960D02*
X3542920Y-1999341D01*
X3542920Y-1999341D02*
X3542920Y-1961246D01*
X3542920Y-1961246D02*
X3552444Y-1913627D01*
X3552444Y-1913627D02*
X3561968Y-1885055D01*
X3561968Y-1885055D02*
X3571491Y-1866008D01*
X3571491Y-1866008D02*
X3590539Y-1837436D01*
X3590539Y-1837436D02*
X3600063Y-1827912D01*
X3761968Y-1923150D02*
X3761968Y-2056484D01*
X3714348Y-1846960D02*
X3666729Y-1989817D01*
X3666729Y-1989817D02*
X3790539Y-1989817D01*
X4019110Y-2056484D02*
X4019110Y-1856484D01*
X4104825Y-2056484D02*
X4104825Y-1951722D01*
X4104825Y-1951722D02*
X4095301Y-1932674D01*
X4095301Y-1932674D02*
X4076253Y-1923150D01*
X4076253Y-1923150D02*
X4047682Y-1923150D01*
X4047682Y-1923150D02*
X4028634Y-1932674D01*
X4028634Y-1932674D02*
X4019110Y-1942198D01*
X4228634Y-2056484D02*
X4209587Y-2046960D01*
X4209587Y-2046960D02*
X4200063Y-2037436D01*
X4200063Y-2037436D02*
X4190539Y-2018388D01*
X4190539Y-2018388D02*
X4190539Y-1961246D01*
X4190539Y-1961246D02*
X4200063Y-1942198D01*
X4200063Y-1942198D02*
X4209587Y-1932674D01*
X4209587Y-1932674D02*
X4228634Y-1923150D01*
X4228634Y-1923150D02*
X4257206Y-1923150D01*
X4257206Y-1923150D02*
X4276253Y-1932674D01*
X4276253Y-1932674D02*
X4285777Y-1942198D01*
X4285777Y-1942198D02*
X4295301Y-1961246D01*
X4295301Y-1961246D02*
X4295301Y-2018388D01*
X4295301Y-2018388D02*
X4285777Y-2037436D01*
X4285777Y-2037436D02*
X4276253Y-2046960D01*
X4276253Y-2046960D02*
X4257206Y-2056484D01*
X4257206Y-2056484D02*
X4228634Y-2056484D01*
X4409587Y-2056484D02*
X4390539Y-2046960D01*
X4390539Y-2046960D02*
X4381015Y-2027912D01*
X4381015Y-2027912D02*
X4381015Y-1856484D01*
X4561968Y-2046960D02*
X4542920Y-2056484D01*
X4542920Y-2056484D02*
X4504825Y-2056484D01*
X4504825Y-2056484D02*
X4485777Y-2046960D01*
X4485777Y-2046960D02*
X4476253Y-2027912D01*
X4476253Y-2027912D02*
X4476253Y-1951722D01*
X4476253Y-1951722D02*
X4485777Y-1932674D01*
X4485777Y-1932674D02*
X4504825Y-1923150D01*
X4504825Y-1923150D02*
X4542920Y-1923150D01*
X4542920Y-1923150D02*
X4561968Y-1932674D01*
X4561968Y-1932674D02*
X4571492Y-1951722D01*
X4571492Y-1951722D02*
X4571492Y-1970769D01*
X4571492Y-1970769D02*
X4476253Y-1989817D01*
X4647682Y-2046960D02*
X4666730Y-2056484D01*
X4666730Y-2056484D02*
X4704825Y-2056484D01*
X4704825Y-2056484D02*
X4723873Y-2046960D01*
X4723873Y-2046960D02*
X4733396Y-2027912D01*
X4733396Y-2027912D02*
X4733396Y-2018388D01*
X4733396Y-2018388D02*
X4723873Y-1999341D01*
X4723873Y-1999341D02*
X4704825Y-1989817D01*
X4704825Y-1989817D02*
X4676253Y-1989817D01*
X4676253Y-1989817D02*
X4657206Y-1980293D01*
X4657206Y-1980293D02*
X4647682Y-1961246D01*
X4647682Y-1961246D02*
X4647682Y-1951722D01*
X4647682Y-1951722D02*
X4657206Y-1932674D01*
X4657206Y-1932674D02*
X4676253Y-1923150D01*
X4676253Y-1923150D02*
X4704825Y-1923150D01*
X4704825Y-1923150D02*
X4723873Y-1932674D01*
X4800063Y-2132674D02*
X4809587Y-2123150D01*
X4809587Y-2123150D02*
X4828634Y-2094579D01*
X4828634Y-2094579D02*
X4838158Y-2075531D01*
X4838158Y-2075531D02*
X4847682Y-2046960D01*
X4847682Y-2046960D02*
X4857206Y-1999341D01*
X4857206Y-1999341D02*
X4857206Y-1961246D01*
X4857206Y-1961246D02*
X4847682Y-1913627D01*
X4847682Y-1913627D02*
X4838158Y-1885055D01*
X4838158Y-1885055D02*
X4828634Y-1866008D01*
X4828634Y-1866008D02*
X4809587Y-1837436D01*
X4809587Y-1837436D02*
X4800063Y-1827912D01*
D13*
X-95000Y-2169000D02*
X25000Y-2289000D01*
X25000Y-2169000D02*
X-95000Y-2289000D01*
X-35000Y-2169000D02*
X-35000Y-2289000D01*
X-95000Y-2229000D02*
X25000Y-2229000D01*
D11*
X390539Y-2320484D02*
X276253Y-2320484D01*
X333396Y-2320484D02*
X333396Y-2120484D01*
X333396Y-2120484D02*
X314348Y-2149055D01*
X314348Y-2149055D02*
X295301Y-2168103D01*
X295301Y-2168103D02*
X276253Y-2177627D01*
X476253Y-2301436D02*
X485777Y-2310960D01*
X485777Y-2310960D02*
X476253Y-2320484D01*
X476253Y-2320484D02*
X466729Y-2310960D01*
X466729Y-2310960D02*
X476253Y-2301436D01*
X476253Y-2301436D02*
X476253Y-2320484D01*
X561967Y-2139531D02*
X571491Y-2130008D01*
X571491Y-2130008D02*
X590539Y-2120484D01*
X590539Y-2120484D02*
X638158Y-2120484D01*
X638158Y-2120484D02*
X657205Y-2130008D01*
X657205Y-2130008D02*
X666729Y-2139531D01*
X666729Y-2139531D02*
X676253Y-2158579D01*
X676253Y-2158579D02*
X676253Y-2177627D01*
X676253Y-2177627D02*
X666729Y-2206198D01*
X666729Y-2206198D02*
X552444Y-2320484D01*
X552444Y-2320484D02*
X676253Y-2320484D01*
X800062Y-2120484D02*
X819110Y-2120484D01*
X819110Y-2120484D02*
X838158Y-2130008D01*
X838158Y-2130008D02*
X847682Y-2139531D01*
X847682Y-2139531D02*
X857205Y-2158579D01*
X857205Y-2158579D02*
X866729Y-2196674D01*
X866729Y-2196674D02*
X866729Y-2244293D01*
X866729Y-2244293D02*
X857205Y-2282389D01*
X857205Y-2282389D02*
X847682Y-2301436D01*
X847682Y-2301436D02*
X838158Y-2310960D01*
X838158Y-2310960D02*
X819110Y-2320484D01*
X819110Y-2320484D02*
X800062Y-2320484D01*
X800062Y-2320484D02*
X781015Y-2310960D01*
X781015Y-2310960D02*
X771491Y-2301436D01*
X771491Y-2301436D02*
X761967Y-2282389D01*
X761967Y-2282389D02*
X752443Y-2244293D01*
X752443Y-2244293D02*
X752443Y-2196674D01*
X752443Y-2196674D02*
X761967Y-2158579D01*
X761967Y-2158579D02*
X771491Y-2139531D01*
X771491Y-2139531D02*
X781015Y-2130008D01*
X781015Y-2130008D02*
X800062Y-2120484D01*
X990539Y-2120484D02*
X1009586Y-2120484D01*
X1009586Y-2120484D02*
X1028634Y-2130008D01*
X1028634Y-2130008D02*
X1038158Y-2139531D01*
X1038158Y-2139531D02*
X1047682Y-2158579D01*
X1047682Y-2158579D02*
X1057205Y-2196674D01*
X1057205Y-2196674D02*
X1057205Y-2244293D01*
X1057205Y-2244293D02*
X1047682Y-2282389D01*
X1047682Y-2282389D02*
X1038158Y-2301436D01*
X1038158Y-2301436D02*
X1028634Y-2310960D01*
X1028634Y-2310960D02*
X1009586Y-2320484D01*
X1009586Y-2320484D02*
X990539Y-2320484D01*
X990539Y-2320484D02*
X971491Y-2310960D01*
X971491Y-2310960D02*
X961967Y-2301436D01*
X961967Y-2301436D02*
X952443Y-2282389D01*
X952443Y-2282389D02*
X942920Y-2244293D01*
X942920Y-2244293D02*
X942920Y-2196674D01*
X942920Y-2196674D02*
X952443Y-2158579D01*
X952443Y-2158579D02*
X961967Y-2139531D01*
X961967Y-2139531D02*
X971491Y-2130008D01*
X971491Y-2130008D02*
X990539Y-2120484D01*
X1142920Y-2320484D02*
X1142920Y-2187150D01*
X1142920Y-2206198D02*
X1152444Y-2196674D01*
X1152444Y-2196674D02*
X1171491Y-2187150D01*
X1171491Y-2187150D02*
X1200063Y-2187150D01*
X1200063Y-2187150D02*
X1219110Y-2196674D01*
X1219110Y-2196674D02*
X1228634Y-2215722D01*
X1228634Y-2215722D02*
X1228634Y-2320484D01*
X1228634Y-2215722D02*
X1238158Y-2196674D01*
X1238158Y-2196674D02*
X1257205Y-2187150D01*
X1257205Y-2187150D02*
X1285777Y-2187150D01*
X1285777Y-2187150D02*
X1304825Y-2196674D01*
X1304825Y-2196674D02*
X1314348Y-2215722D01*
X1314348Y-2215722D02*
X1314348Y-2320484D01*
X1409586Y-2320484D02*
X1409586Y-2187150D01*
X1409586Y-2206198D02*
X1419110Y-2196674D01*
X1419110Y-2196674D02*
X1438158Y-2187150D01*
X1438158Y-2187150D02*
X1466729Y-2187150D01*
X1466729Y-2187150D02*
X1485777Y-2196674D01*
X1485777Y-2196674D02*
X1495301Y-2215722D01*
X1495301Y-2215722D02*
X1495301Y-2320484D01*
X1495301Y-2215722D02*
X1504824Y-2196674D01*
X1504824Y-2196674D02*
X1523872Y-2187150D01*
X1523872Y-2187150D02*
X1552443Y-2187150D01*
X1552443Y-2187150D02*
X1571491Y-2196674D01*
X1571491Y-2196674D02*
X1581015Y-2215722D01*
X1581015Y-2215722D02*
X1581015Y-2320484D01*
X1971491Y-2110960D02*
X1800063Y-2368103D01*
X2228634Y-2120484D02*
X2247682Y-2120484D01*
X2247682Y-2120484D02*
X2266729Y-2130008D01*
X2266729Y-2130008D02*
X2276253Y-2139531D01*
X2276253Y-2139531D02*
X2285777Y-2158579D01*
X2285777Y-2158579D02*
X2295301Y-2196674D01*
X2295301Y-2196674D02*
X2295301Y-2244293D01*
X2295301Y-2244293D02*
X2285777Y-2282389D01*
X2285777Y-2282389D02*
X2276253Y-2301436D01*
X2276253Y-2301436D02*
X2266729Y-2310960D01*
X2266729Y-2310960D02*
X2247682Y-2320484D01*
X2247682Y-2320484D02*
X2228634Y-2320484D01*
X2228634Y-2320484D02*
X2209587Y-2310960D01*
X2209587Y-2310960D02*
X2200063Y-2301436D01*
X2200063Y-2301436D02*
X2190539Y-2282389D01*
X2190539Y-2282389D02*
X2181015Y-2244293D01*
X2181015Y-2244293D02*
X2181015Y-2196674D01*
X2181015Y-2196674D02*
X2190539Y-2158579D01*
X2190539Y-2158579D02*
X2200063Y-2139531D01*
X2200063Y-2139531D02*
X2209587Y-2130008D01*
X2209587Y-2130008D02*
X2228634Y-2120484D01*
X2381015Y-2301436D02*
X2390539Y-2310960D01*
X2390539Y-2310960D02*
X2381015Y-2320484D01*
X2381015Y-2320484D02*
X2371491Y-2310960D01*
X2371491Y-2310960D02*
X2381015Y-2301436D01*
X2381015Y-2301436D02*
X2381015Y-2320484D01*
X2514348Y-2120484D02*
X2533396Y-2120484D01*
X2533396Y-2120484D02*
X2552444Y-2130008D01*
X2552444Y-2130008D02*
X2561968Y-2139531D01*
X2561968Y-2139531D02*
X2571491Y-2158579D01*
X2571491Y-2158579D02*
X2581015Y-2196674D01*
X2581015Y-2196674D02*
X2581015Y-2244293D01*
X2581015Y-2244293D02*
X2571491Y-2282389D01*
X2571491Y-2282389D02*
X2561968Y-2301436D01*
X2561968Y-2301436D02*
X2552444Y-2310960D01*
X2552444Y-2310960D02*
X2533396Y-2320484D01*
X2533396Y-2320484D02*
X2514348Y-2320484D01*
X2514348Y-2320484D02*
X2495301Y-2310960D01*
X2495301Y-2310960D02*
X2485777Y-2301436D01*
X2485777Y-2301436D02*
X2476253Y-2282389D01*
X2476253Y-2282389D02*
X2466729Y-2244293D01*
X2466729Y-2244293D02*
X2466729Y-2196674D01*
X2466729Y-2196674D02*
X2476253Y-2158579D01*
X2476253Y-2158579D02*
X2485777Y-2139531D01*
X2485777Y-2139531D02*
X2495301Y-2130008D01*
X2495301Y-2130008D02*
X2514348Y-2120484D01*
X2752444Y-2187150D02*
X2752444Y-2320484D01*
X2704825Y-2110960D02*
X2657206Y-2253817D01*
X2657206Y-2253817D02*
X2781015Y-2253817D01*
X2838158Y-2120484D02*
X2971491Y-2120484D01*
X2971491Y-2120484D02*
X2885777Y-2320484D01*
X3038158Y-2139531D02*
X3047682Y-2130008D01*
X3047682Y-2130008D02*
X3066729Y-2120484D01*
X3066729Y-2120484D02*
X3114348Y-2120484D01*
X3114348Y-2120484D02*
X3133396Y-2130008D01*
X3133396Y-2130008D02*
X3142920Y-2139531D01*
X3142920Y-2139531D02*
X3152444Y-2158579D01*
X3152444Y-2158579D02*
X3152444Y-2177627D01*
X3152444Y-2177627D02*
X3142920Y-2206198D01*
X3142920Y-2206198D02*
X3028634Y-2320484D01*
X3028634Y-2320484D02*
X3152444Y-2320484D01*
X3228634Y-2120484D02*
X3228634Y-2158579D01*
X3304825Y-2120484D02*
X3304825Y-2158579D01*
X3600063Y-2396674D02*
X3590539Y-2387150D01*
X3590539Y-2387150D02*
X3571491Y-2358579D01*
X3571491Y-2358579D02*
X3561968Y-2339531D01*
X3561968Y-2339531D02*
X3552444Y-2310960D01*
X3552444Y-2310960D02*
X3542920Y-2263341D01*
X3542920Y-2263341D02*
X3542920Y-2225246D01*
X3542920Y-2225246D02*
X3552444Y-2177627D01*
X3552444Y-2177627D02*
X3561968Y-2149055D01*
X3561968Y-2149055D02*
X3571491Y-2130008D01*
X3571491Y-2130008D02*
X3590539Y-2101436D01*
X3590539Y-2101436D02*
X3600063Y-2091912D01*
X3761968Y-2187150D02*
X3761968Y-2320484D01*
X3714348Y-2110960D02*
X3666729Y-2253817D01*
X3666729Y-2253817D02*
X3790539Y-2253817D01*
X4019110Y-2320484D02*
X4019110Y-2120484D01*
X4104825Y-2320484D02*
X4104825Y-2215722D01*
X4104825Y-2215722D02*
X4095301Y-2196674D01*
X4095301Y-2196674D02*
X4076253Y-2187150D01*
X4076253Y-2187150D02*
X4047682Y-2187150D01*
X4047682Y-2187150D02*
X4028634Y-2196674D01*
X4028634Y-2196674D02*
X4019110Y-2206198D01*
X4228634Y-2320484D02*
X4209587Y-2310960D01*
X4209587Y-2310960D02*
X4200063Y-2301436D01*
X4200063Y-2301436D02*
X4190539Y-2282389D01*
X4190539Y-2282389D02*
X4190539Y-2225246D01*
X4190539Y-2225246D02*
X4200063Y-2206198D01*
X4200063Y-2206198D02*
X4209587Y-2196674D01*
X4209587Y-2196674D02*
X4228634Y-2187150D01*
X4228634Y-2187150D02*
X4257206Y-2187150D01*
X4257206Y-2187150D02*
X4276253Y-2196674D01*
X4276253Y-2196674D02*
X4285777Y-2206198D01*
X4285777Y-2206198D02*
X4295301Y-2225246D01*
X4295301Y-2225246D02*
X4295301Y-2282389D01*
X4295301Y-2282389D02*
X4285777Y-2301436D01*
X4285777Y-2301436D02*
X4276253Y-2310960D01*
X4276253Y-2310960D02*
X4257206Y-2320484D01*
X4257206Y-2320484D02*
X4228634Y-2320484D01*
X4409587Y-2320484D02*
X4390539Y-2310960D01*
X4390539Y-2310960D02*
X4381015Y-2291912D01*
X4381015Y-2291912D02*
X4381015Y-2120484D01*
X4561968Y-2310960D02*
X4542920Y-2320484D01*
X4542920Y-2320484D02*
X4504825Y-2320484D01*
X4504825Y-2320484D02*
X4485777Y-2310960D01*
X4485777Y-2310960D02*
X4476253Y-2291912D01*
X4476253Y-2291912D02*
X4476253Y-2215722D01*
X4476253Y-2215722D02*
X4485777Y-2196674D01*
X4485777Y-2196674D02*
X4504825Y-2187150D01*
X4504825Y-2187150D02*
X4542920Y-2187150D01*
X4542920Y-2187150D02*
X4561968Y-2196674D01*
X4561968Y-2196674D02*
X4571492Y-2215722D01*
X4571492Y-2215722D02*
X4571492Y-2234770D01*
X4571492Y-2234770D02*
X4476253Y-2253817D01*
X4647682Y-2310960D02*
X4666730Y-2320484D01*
X4666730Y-2320484D02*
X4704825Y-2320484D01*
X4704825Y-2320484D02*
X4723873Y-2310960D01*
X4723873Y-2310960D02*
X4733396Y-2291912D01*
X4733396Y-2291912D02*
X4733396Y-2282389D01*
X4733396Y-2282389D02*
X4723873Y-2263341D01*
X4723873Y-2263341D02*
X4704825Y-2253817D01*
X4704825Y-2253817D02*
X4676253Y-2253817D01*
X4676253Y-2253817D02*
X4657206Y-2244293D01*
X4657206Y-2244293D02*
X4647682Y-2225246D01*
X4647682Y-2225246D02*
X4647682Y-2215722D01*
X4647682Y-2215722D02*
X4657206Y-2196674D01*
X4657206Y-2196674D02*
X4676253Y-2187150D01*
X4676253Y-2187150D02*
X4704825Y-2187150D01*
X4704825Y-2187150D02*
X4723873Y-2196674D01*
X4800063Y-2396674D02*
X4809587Y-2387150D01*
X4809587Y-2387150D02*
X4828634Y-2358579D01*
X4828634Y-2358579D02*
X4838158Y-2339531D01*
X4838158Y-2339531D02*
X4847682Y-2310960D01*
X4847682Y-2310960D02*
X4857206Y-2263341D01*
X4857206Y-2263341D02*
X4857206Y-2225246D01*
X4857206Y-2225246D02*
X4847682Y-2177627D01*
X4847682Y-2177627D02*
X4838158Y-2149055D01*
X4838158Y-2149055D02*
X4828634Y-2130008D01*
X4828634Y-2130008D02*
X4809587Y-2101436D01*
X4809587Y-2101436D02*
X4800063Y-2091912D01*
D14*
X-135000Y-2413000D02*
X25000Y-2573000D01*
X25000Y-2413000D02*
X-135000Y-2573000D01*
X1569Y-2549569D02*
X1569Y-2436431D01*
X-111569Y-2436431D01*
X-111569Y-2549569D01*
X1569Y-2549569D01*
D11*
X390539Y-2584484D02*
X276253Y-2584484D01*
X333396Y-2584484D02*
X333396Y-2384484D01*
X333396Y-2384484D02*
X314348Y-2413055D01*
X314348Y-2413055D02*
X295301Y-2432103D01*
X295301Y-2432103D02*
X276253Y-2441627D01*
X476253Y-2565436D02*
X485777Y-2574960D01*
X485777Y-2574960D02*
X476253Y-2584484D01*
X476253Y-2584484D02*
X466729Y-2574960D01*
X466729Y-2574960D02*
X476253Y-2565436D01*
X476253Y-2565436D02*
X476253Y-2584484D01*
X657205Y-2384484D02*
X619110Y-2384484D01*
X619110Y-2384484D02*
X600063Y-2394008D01*
X600063Y-2394008D02*
X590539Y-2403531D01*
X590539Y-2403531D02*
X571491Y-2432103D01*
X571491Y-2432103D02*
X561967Y-2470198D01*
X561967Y-2470198D02*
X561967Y-2546389D01*
X561967Y-2546389D02*
X571491Y-2565436D01*
X571491Y-2565436D02*
X581015Y-2574960D01*
X581015Y-2574960D02*
X600063Y-2584484D01*
X600063Y-2584484D02*
X638158Y-2584484D01*
X638158Y-2584484D02*
X657205Y-2574960D01*
X657205Y-2574960D02*
X666729Y-2565436D01*
X666729Y-2565436D02*
X676253Y-2546389D01*
X676253Y-2546389D02*
X676253Y-2498770D01*
X676253Y-2498770D02*
X666729Y-2479722D01*
X666729Y-2479722D02*
X657205Y-2470198D01*
X657205Y-2470198D02*
X638158Y-2460674D01*
X638158Y-2460674D02*
X600063Y-2460674D01*
X600063Y-2460674D02*
X581015Y-2470198D01*
X581015Y-2470198D02*
X571491Y-2479722D01*
X571491Y-2479722D02*
X561967Y-2498770D01*
X800062Y-2384484D02*
X819110Y-2384484D01*
X819110Y-2384484D02*
X838158Y-2394008D01*
X838158Y-2394008D02*
X847682Y-2403531D01*
X847682Y-2403531D02*
X857205Y-2422579D01*
X857205Y-2422579D02*
X866729Y-2460674D01*
X866729Y-2460674D02*
X866729Y-2508293D01*
X866729Y-2508293D02*
X857205Y-2546389D01*
X857205Y-2546389D02*
X847682Y-2565436D01*
X847682Y-2565436D02*
X838158Y-2574960D01*
X838158Y-2574960D02*
X819110Y-2584484D01*
X819110Y-2584484D02*
X800062Y-2584484D01*
X800062Y-2584484D02*
X781015Y-2574960D01*
X781015Y-2574960D02*
X771491Y-2565436D01*
X771491Y-2565436D02*
X761967Y-2546389D01*
X761967Y-2546389D02*
X752443Y-2508293D01*
X752443Y-2508293D02*
X752443Y-2460674D01*
X752443Y-2460674D02*
X761967Y-2422579D01*
X761967Y-2422579D02*
X771491Y-2403531D01*
X771491Y-2403531D02*
X781015Y-2394008D01*
X781015Y-2394008D02*
X800062Y-2384484D01*
X990539Y-2384484D02*
X1009586Y-2384484D01*
X1009586Y-2384484D02*
X1028634Y-2394008D01*
X1028634Y-2394008D02*
X1038158Y-2403531D01*
X1038158Y-2403531D02*
X1047682Y-2422579D01*
X1047682Y-2422579D02*
X1057205Y-2460674D01*
X1057205Y-2460674D02*
X1057205Y-2508293D01*
X1057205Y-2508293D02*
X1047682Y-2546389D01*
X1047682Y-2546389D02*
X1038158Y-2565436D01*
X1038158Y-2565436D02*
X1028634Y-2574960D01*
X1028634Y-2574960D02*
X1009586Y-2584484D01*
X1009586Y-2584484D02*
X990539Y-2584484D01*
X990539Y-2584484D02*
X971491Y-2574960D01*
X971491Y-2574960D02*
X961967Y-2565436D01*
X961967Y-2565436D02*
X952443Y-2546389D01*
X952443Y-2546389D02*
X942920Y-2508293D01*
X942920Y-2508293D02*
X942920Y-2460674D01*
X942920Y-2460674D02*
X952443Y-2422579D01*
X952443Y-2422579D02*
X961967Y-2403531D01*
X961967Y-2403531D02*
X971491Y-2394008D01*
X971491Y-2394008D02*
X990539Y-2384484D01*
X1142920Y-2584484D02*
X1142920Y-2451150D01*
X1142920Y-2470198D02*
X1152444Y-2460674D01*
X1152444Y-2460674D02*
X1171491Y-2451150D01*
X1171491Y-2451150D02*
X1200063Y-2451150D01*
X1200063Y-2451150D02*
X1219110Y-2460674D01*
X1219110Y-2460674D02*
X1228634Y-2479722D01*
X1228634Y-2479722D02*
X1228634Y-2584484D01*
X1228634Y-2479722D02*
X1238158Y-2460674D01*
X1238158Y-2460674D02*
X1257205Y-2451150D01*
X1257205Y-2451150D02*
X1285777Y-2451150D01*
X1285777Y-2451150D02*
X1304825Y-2460674D01*
X1304825Y-2460674D02*
X1314348Y-2479722D01*
X1314348Y-2479722D02*
X1314348Y-2584484D01*
X1409586Y-2584484D02*
X1409586Y-2451150D01*
X1409586Y-2470198D02*
X1419110Y-2460674D01*
X1419110Y-2460674D02*
X1438158Y-2451150D01*
X1438158Y-2451150D02*
X1466729Y-2451150D01*
X1466729Y-2451150D02*
X1485777Y-2460674D01*
X1485777Y-2460674D02*
X1495301Y-2479722D01*
X1495301Y-2479722D02*
X1495301Y-2584484D01*
X1495301Y-2479722D02*
X1504824Y-2460674D01*
X1504824Y-2460674D02*
X1523872Y-2451150D01*
X1523872Y-2451150D02*
X1552443Y-2451150D01*
X1552443Y-2451150D02*
X1571491Y-2460674D01*
X1571491Y-2460674D02*
X1581015Y-2479722D01*
X1581015Y-2479722D02*
X1581015Y-2584484D01*
X1971491Y-2374960D02*
X1800063Y-2632103D01*
X2228634Y-2384484D02*
X2247682Y-2384484D01*
X2247682Y-2384484D02*
X2266729Y-2394008D01*
X2266729Y-2394008D02*
X2276253Y-2403531D01*
X2276253Y-2403531D02*
X2285777Y-2422579D01*
X2285777Y-2422579D02*
X2295301Y-2460674D01*
X2295301Y-2460674D02*
X2295301Y-2508293D01*
X2295301Y-2508293D02*
X2285777Y-2546389D01*
X2285777Y-2546389D02*
X2276253Y-2565436D01*
X2276253Y-2565436D02*
X2266729Y-2574960D01*
X2266729Y-2574960D02*
X2247682Y-2584484D01*
X2247682Y-2584484D02*
X2228634Y-2584484D01*
X2228634Y-2584484D02*
X2209587Y-2574960D01*
X2209587Y-2574960D02*
X2200063Y-2565436D01*
X2200063Y-2565436D02*
X2190539Y-2546389D01*
X2190539Y-2546389D02*
X2181015Y-2508293D01*
X2181015Y-2508293D02*
X2181015Y-2460674D01*
X2181015Y-2460674D02*
X2190539Y-2422579D01*
X2190539Y-2422579D02*
X2200063Y-2403531D01*
X2200063Y-2403531D02*
X2209587Y-2394008D01*
X2209587Y-2394008D02*
X2228634Y-2384484D01*
X2381015Y-2565436D02*
X2390539Y-2574960D01*
X2390539Y-2574960D02*
X2381015Y-2584484D01*
X2381015Y-2584484D02*
X2371491Y-2574960D01*
X2371491Y-2574960D02*
X2381015Y-2565436D01*
X2381015Y-2565436D02*
X2381015Y-2584484D01*
X2514348Y-2384484D02*
X2533396Y-2384484D01*
X2533396Y-2384484D02*
X2552444Y-2394008D01*
X2552444Y-2394008D02*
X2561968Y-2403531D01*
X2561968Y-2403531D02*
X2571491Y-2422579D01*
X2571491Y-2422579D02*
X2581015Y-2460674D01*
X2581015Y-2460674D02*
X2581015Y-2508293D01*
X2581015Y-2508293D02*
X2571491Y-2546389D01*
X2571491Y-2546389D02*
X2561968Y-2565436D01*
X2561968Y-2565436D02*
X2552444Y-2574960D01*
X2552444Y-2574960D02*
X2533396Y-2584484D01*
X2533396Y-2584484D02*
X2514348Y-2584484D01*
X2514348Y-2584484D02*
X2495301Y-2574960D01*
X2495301Y-2574960D02*
X2485777Y-2565436D01*
X2485777Y-2565436D02*
X2476253Y-2546389D01*
X2476253Y-2546389D02*
X2466729Y-2508293D01*
X2466729Y-2508293D02*
X2466729Y-2460674D01*
X2466729Y-2460674D02*
X2476253Y-2422579D01*
X2476253Y-2422579D02*
X2485777Y-2403531D01*
X2485777Y-2403531D02*
X2495301Y-2394008D01*
X2495301Y-2394008D02*
X2514348Y-2384484D01*
X2752444Y-2384484D02*
X2714348Y-2384484D01*
X2714348Y-2384484D02*
X2695301Y-2394008D01*
X2695301Y-2394008D02*
X2685777Y-2403531D01*
X2685777Y-2403531D02*
X2666729Y-2432103D01*
X2666729Y-2432103D02*
X2657206Y-2470198D01*
X2657206Y-2470198D02*
X2657206Y-2546389D01*
X2657206Y-2546389D02*
X2666729Y-2565436D01*
X2666729Y-2565436D02*
X2676253Y-2574960D01*
X2676253Y-2574960D02*
X2695301Y-2584484D01*
X2695301Y-2584484D02*
X2733396Y-2584484D01*
X2733396Y-2584484D02*
X2752444Y-2574960D01*
X2752444Y-2574960D02*
X2761968Y-2565436D01*
X2761968Y-2565436D02*
X2771491Y-2546389D01*
X2771491Y-2546389D02*
X2771491Y-2498770D01*
X2771491Y-2498770D02*
X2761968Y-2479722D01*
X2761968Y-2479722D02*
X2752444Y-2470198D01*
X2752444Y-2470198D02*
X2733396Y-2460674D01*
X2733396Y-2460674D02*
X2695301Y-2460674D01*
X2695301Y-2460674D02*
X2676253Y-2470198D01*
X2676253Y-2470198D02*
X2666729Y-2479722D01*
X2666729Y-2479722D02*
X2657206Y-2498770D01*
X2838158Y-2384484D02*
X2961967Y-2384484D01*
X2961967Y-2384484D02*
X2895301Y-2460674D01*
X2895301Y-2460674D02*
X2923872Y-2460674D01*
X2923872Y-2460674D02*
X2942920Y-2470198D01*
X2942920Y-2470198D02*
X2952444Y-2479722D01*
X2952444Y-2479722D02*
X2961967Y-2498770D01*
X2961967Y-2498770D02*
X2961967Y-2546389D01*
X2961967Y-2546389D02*
X2952444Y-2565436D01*
X2952444Y-2565436D02*
X2942920Y-2574960D01*
X2942920Y-2574960D02*
X2923872Y-2584484D01*
X2923872Y-2584484D02*
X2866729Y-2584484D01*
X2866729Y-2584484D02*
X2847682Y-2574960D01*
X2847682Y-2574960D02*
X2838158Y-2565436D01*
X3085777Y-2384484D02*
X3104825Y-2384484D01*
X3104825Y-2384484D02*
X3123872Y-2394008D01*
X3123872Y-2394008D02*
X3133396Y-2403531D01*
X3133396Y-2403531D02*
X3142920Y-2422579D01*
X3142920Y-2422579D02*
X3152444Y-2460674D01*
X3152444Y-2460674D02*
X3152444Y-2508293D01*
X3152444Y-2508293D02*
X3142920Y-2546389D01*
X3142920Y-2546389D02*
X3133396Y-2565436D01*
X3133396Y-2565436D02*
X3123872Y-2574960D01*
X3123872Y-2574960D02*
X3104825Y-2584484D01*
X3104825Y-2584484D02*
X3085777Y-2584484D01*
X3085777Y-2584484D02*
X3066729Y-2574960D01*
X3066729Y-2574960D02*
X3057206Y-2565436D01*
X3057206Y-2565436D02*
X3047682Y-2546389D01*
X3047682Y-2546389D02*
X3038158Y-2508293D01*
X3038158Y-2508293D02*
X3038158Y-2460674D01*
X3038158Y-2460674D02*
X3047682Y-2422579D01*
X3047682Y-2422579D02*
X3057206Y-2403531D01*
X3057206Y-2403531D02*
X3066729Y-2394008D01*
X3066729Y-2394008D02*
X3085777Y-2384484D01*
X3228634Y-2384484D02*
X3228634Y-2422579D01*
X3304825Y-2384484D02*
X3304825Y-2422579D01*
X3600063Y-2660674D02*
X3590539Y-2651150D01*
X3590539Y-2651150D02*
X3571491Y-2622579D01*
X3571491Y-2622579D02*
X3561968Y-2603531D01*
X3561968Y-2603531D02*
X3552444Y-2574960D01*
X3552444Y-2574960D02*
X3542920Y-2527341D01*
X3542920Y-2527341D02*
X3542920Y-2489246D01*
X3542920Y-2489246D02*
X3552444Y-2441627D01*
X3552444Y-2441627D02*
X3561968Y-2413055D01*
X3561968Y-2413055D02*
X3571491Y-2394008D01*
X3571491Y-2394008D02*
X3590539Y-2365436D01*
X3590539Y-2365436D02*
X3600063Y-2355912D01*
X3761968Y-2451150D02*
X3761968Y-2584484D01*
X3714348Y-2374960D02*
X3666729Y-2517817D01*
X3666729Y-2517817D02*
X3790539Y-2517817D01*
X4019110Y-2584484D02*
X4019110Y-2384484D01*
X4104825Y-2584484D02*
X4104825Y-2479722D01*
X4104825Y-2479722D02*
X4095301Y-2460674D01*
X4095301Y-2460674D02*
X4076253Y-2451150D01*
X4076253Y-2451150D02*
X4047682Y-2451150D01*
X4047682Y-2451150D02*
X4028634Y-2460674D01*
X4028634Y-2460674D02*
X4019110Y-2470198D01*
X4228634Y-2584484D02*
X4209587Y-2574960D01*
X4209587Y-2574960D02*
X4200063Y-2565436D01*
X4200063Y-2565436D02*
X4190539Y-2546389D01*
X4190539Y-2546389D02*
X4190539Y-2489246D01*
X4190539Y-2489246D02*
X4200063Y-2470198D01*
X4200063Y-2470198D02*
X4209587Y-2460674D01*
X4209587Y-2460674D02*
X4228634Y-2451150D01*
X4228634Y-2451150D02*
X4257206Y-2451150D01*
X4257206Y-2451150D02*
X4276253Y-2460674D01*
X4276253Y-2460674D02*
X4285777Y-2470198D01*
X4285777Y-2470198D02*
X4295301Y-2489246D01*
X4295301Y-2489246D02*
X4295301Y-2546389D01*
X4295301Y-2546389D02*
X4285777Y-2565436D01*
X4285777Y-2565436D02*
X4276253Y-2574960D01*
X4276253Y-2574960D02*
X4257206Y-2584484D01*
X4257206Y-2584484D02*
X4228634Y-2584484D01*
X4409587Y-2584484D02*
X4390539Y-2574960D01*
X4390539Y-2574960D02*
X4381015Y-2555912D01*
X4381015Y-2555912D02*
X4381015Y-2384484D01*
X4561968Y-2574960D02*
X4542920Y-2584484D01*
X4542920Y-2584484D02*
X4504825Y-2584484D01*
X4504825Y-2584484D02*
X4485777Y-2574960D01*
X4485777Y-2574960D02*
X4476253Y-2555912D01*
X4476253Y-2555912D02*
X4476253Y-2479722D01*
X4476253Y-2479722D02*
X4485777Y-2460674D01*
X4485777Y-2460674D02*
X4504825Y-2451150D01*
X4504825Y-2451150D02*
X4542920Y-2451150D01*
X4542920Y-2451150D02*
X4561968Y-2460674D01*
X4561968Y-2460674D02*
X4571492Y-2479722D01*
X4571492Y-2479722D02*
X4571492Y-2498770D01*
X4571492Y-2498770D02*
X4476253Y-2517817D01*
X4647682Y-2574960D02*
X4666730Y-2584484D01*
X4666730Y-2584484D02*
X4704825Y-2584484D01*
X4704825Y-2584484D02*
X4723873Y-2574960D01*
X4723873Y-2574960D02*
X4733396Y-2555912D01*
X4733396Y-2555912D02*
X4733396Y-2546389D01*
X4733396Y-2546389D02*
X4723873Y-2527341D01*
X4723873Y-2527341D02*
X4704825Y-2517817D01*
X4704825Y-2517817D02*
X4676253Y-2517817D01*
X4676253Y-2517817D02*
X4657206Y-2508293D01*
X4657206Y-2508293D02*
X4647682Y-2489246D01*
X4647682Y-2489246D02*
X4647682Y-2479722D01*
X4647682Y-2479722D02*
X4657206Y-2460674D01*
X4657206Y-2460674D02*
X4676253Y-2451150D01*
X4676253Y-2451150D02*
X4704825Y-2451150D01*
X4704825Y-2451150D02*
X4723873Y-2460674D01*
X4800063Y-2660674D02*
X4809587Y-2651150D01*
X4809587Y-2651150D02*
X4828634Y-2622579D01*
X4828634Y-2622579D02*
X4838158Y-2603531D01*
X4838158Y-2603531D02*
X4847682Y-2574960D01*
X4847682Y-2574960D02*
X4857206Y-2527341D01*
X4857206Y-2527341D02*
X4857206Y-2489246D01*
X4857206Y-2489246D02*
X4847682Y-2441627D01*
X4847682Y-2441627D02*
X4838158Y-2413055D01*
X4838158Y-2413055D02*
X4828634Y-2394008D01*
X4828634Y-2394008D02*
X4809587Y-2365436D01*
X4809587Y-2365436D02*
X4800063Y-2355912D01*
X-175000Y-2673000D02*
X25000Y-2873000D01*
X25000Y-2673000D02*
X-175000Y-2873000D01*
X-75000Y-2873000D02*
X25000Y-2773000D01*
X-75000Y-2673000D01*
X-175000Y-2773000D01*
X-75000Y-2873000D01*
X266729Y-2664484D02*
X390539Y-2664484D01*
X390539Y-2664484D02*
X323872Y-2740674D01*
X323872Y-2740674D02*
X352443Y-2740674D01*
X352443Y-2740674D02*
X371491Y-2750198D01*
X371491Y-2750198D02*
X381015Y-2759722D01*
X381015Y-2759722D02*
X390539Y-2778770D01*
X390539Y-2778770D02*
X390539Y-2826388D01*
X390539Y-2826388D02*
X381015Y-2845436D01*
X381015Y-2845436D02*
X371491Y-2854960D01*
X371491Y-2854960D02*
X352443Y-2864484D01*
X352443Y-2864484D02*
X295301Y-2864484D01*
X295301Y-2864484D02*
X276253Y-2854960D01*
X276253Y-2854960D02*
X266729Y-2845436D01*
X476253Y-2845436D02*
X485777Y-2854960D01*
X485777Y-2854960D02*
X476253Y-2864484D01*
X476253Y-2864484D02*
X466729Y-2854960D01*
X466729Y-2854960D02*
X476253Y-2845436D01*
X476253Y-2845436D02*
X476253Y-2864484D01*
X561967Y-2683531D02*
X571491Y-2674008D01*
X571491Y-2674008D02*
X590539Y-2664484D01*
X590539Y-2664484D02*
X638158Y-2664484D01*
X638158Y-2664484D02*
X657205Y-2674008D01*
X657205Y-2674008D02*
X666729Y-2683531D01*
X666729Y-2683531D02*
X676253Y-2702579D01*
X676253Y-2702579D02*
X676253Y-2721627D01*
X676253Y-2721627D02*
X666729Y-2750198D01*
X666729Y-2750198D02*
X552444Y-2864484D01*
X552444Y-2864484D02*
X676253Y-2864484D01*
X800062Y-2664484D02*
X819110Y-2664484D01*
X819110Y-2664484D02*
X838158Y-2674008D01*
X838158Y-2674008D02*
X847682Y-2683531D01*
X847682Y-2683531D02*
X857205Y-2702579D01*
X857205Y-2702579D02*
X866729Y-2740674D01*
X866729Y-2740674D02*
X866729Y-2788293D01*
X866729Y-2788293D02*
X857205Y-2826388D01*
X857205Y-2826388D02*
X847682Y-2845436D01*
X847682Y-2845436D02*
X838158Y-2854960D01*
X838158Y-2854960D02*
X819110Y-2864484D01*
X819110Y-2864484D02*
X800062Y-2864484D01*
X800062Y-2864484D02*
X781015Y-2854960D01*
X781015Y-2854960D02*
X771491Y-2845436D01*
X771491Y-2845436D02*
X761967Y-2826388D01*
X761967Y-2826388D02*
X752443Y-2788293D01*
X752443Y-2788293D02*
X752443Y-2740674D01*
X752443Y-2740674D02*
X761967Y-2702579D01*
X761967Y-2702579D02*
X771491Y-2683531D01*
X771491Y-2683531D02*
X781015Y-2674008D01*
X781015Y-2674008D02*
X800062Y-2664484D01*
X990539Y-2664484D02*
X1009586Y-2664484D01*
X1009586Y-2664484D02*
X1028634Y-2674008D01*
X1028634Y-2674008D02*
X1038158Y-2683531D01*
X1038158Y-2683531D02*
X1047682Y-2702579D01*
X1047682Y-2702579D02*
X1057205Y-2740674D01*
X1057205Y-2740674D02*
X1057205Y-2788293D01*
X1057205Y-2788293D02*
X1047682Y-2826388D01*
X1047682Y-2826388D02*
X1038158Y-2845436D01*
X1038158Y-2845436D02*
X1028634Y-2854960D01*
X1028634Y-2854960D02*
X1009586Y-2864484D01*
X1009586Y-2864484D02*
X990539Y-2864484D01*
X990539Y-2864484D02*
X971491Y-2854960D01*
X971491Y-2854960D02*
X961967Y-2845436D01*
X961967Y-2845436D02*
X952443Y-2826388D01*
X952443Y-2826388D02*
X942920Y-2788293D01*
X942920Y-2788293D02*
X942920Y-2740674D01*
X942920Y-2740674D02*
X952443Y-2702579D01*
X952443Y-2702579D02*
X961967Y-2683531D01*
X961967Y-2683531D02*
X971491Y-2674008D01*
X971491Y-2674008D02*
X990539Y-2664484D01*
X1142920Y-2864484D02*
X1142920Y-2731150D01*
X1142920Y-2750198D02*
X1152444Y-2740674D01*
X1152444Y-2740674D02*
X1171491Y-2731150D01*
X1171491Y-2731150D02*
X1200063Y-2731150D01*
X1200063Y-2731150D02*
X1219110Y-2740674D01*
X1219110Y-2740674D02*
X1228634Y-2759722D01*
X1228634Y-2759722D02*
X1228634Y-2864484D01*
X1228634Y-2759722D02*
X1238158Y-2740674D01*
X1238158Y-2740674D02*
X1257205Y-2731150D01*
X1257205Y-2731150D02*
X1285777Y-2731150D01*
X1285777Y-2731150D02*
X1304825Y-2740674D01*
X1304825Y-2740674D02*
X1314348Y-2759722D01*
X1314348Y-2759722D02*
X1314348Y-2864484D01*
X1409586Y-2864484D02*
X1409586Y-2731150D01*
X1409586Y-2750198D02*
X1419110Y-2740674D01*
X1419110Y-2740674D02*
X1438158Y-2731150D01*
X1438158Y-2731150D02*
X1466729Y-2731150D01*
X1466729Y-2731150D02*
X1485777Y-2740674D01*
X1485777Y-2740674D02*
X1495301Y-2759722D01*
X1495301Y-2759722D02*
X1495301Y-2864484D01*
X1495301Y-2759722D02*
X1504824Y-2740674D01*
X1504824Y-2740674D02*
X1523872Y-2731150D01*
X1523872Y-2731150D02*
X1552443Y-2731150D01*
X1552443Y-2731150D02*
X1571491Y-2740674D01*
X1571491Y-2740674D02*
X1581015Y-2759722D01*
X1581015Y-2759722D02*
X1581015Y-2864484D01*
X1971491Y-2654960D02*
X1800063Y-2912103D01*
X2228634Y-2664484D02*
X2247682Y-2664484D01*
X2247682Y-2664484D02*
X2266729Y-2674008D01*
X2266729Y-2674008D02*
X2276253Y-2683531D01*
X2276253Y-2683531D02*
X2285777Y-2702579D01*
X2285777Y-2702579D02*
X2295301Y-2740674D01*
X2295301Y-2740674D02*
X2295301Y-2788293D01*
X2295301Y-2788293D02*
X2285777Y-2826388D01*
X2285777Y-2826388D02*
X2276253Y-2845436D01*
X2276253Y-2845436D02*
X2266729Y-2854960D01*
X2266729Y-2854960D02*
X2247682Y-2864484D01*
X2247682Y-2864484D02*
X2228634Y-2864484D01*
X2228634Y-2864484D02*
X2209587Y-2854960D01*
X2209587Y-2854960D02*
X2200063Y-2845436D01*
X2200063Y-2845436D02*
X2190539Y-2826388D01*
X2190539Y-2826388D02*
X2181015Y-2788293D01*
X2181015Y-2788293D02*
X2181015Y-2740674D01*
X2181015Y-2740674D02*
X2190539Y-2702579D01*
X2190539Y-2702579D02*
X2200063Y-2683531D01*
X2200063Y-2683531D02*
X2209587Y-2674008D01*
X2209587Y-2674008D02*
X2228634Y-2664484D01*
X2381015Y-2845436D02*
X2390539Y-2854960D01*
X2390539Y-2854960D02*
X2381015Y-2864484D01*
X2381015Y-2864484D02*
X2371491Y-2854960D01*
X2371491Y-2854960D02*
X2381015Y-2845436D01*
X2381015Y-2845436D02*
X2381015Y-2864484D01*
X2581015Y-2864484D02*
X2466729Y-2864484D01*
X2523872Y-2864484D02*
X2523872Y-2664484D01*
X2523872Y-2664484D02*
X2504825Y-2693055D01*
X2504825Y-2693055D02*
X2485777Y-2712103D01*
X2485777Y-2712103D02*
X2466729Y-2721627D01*
X2657206Y-2683531D02*
X2666729Y-2674008D01*
X2666729Y-2674008D02*
X2685777Y-2664484D01*
X2685777Y-2664484D02*
X2733396Y-2664484D01*
X2733396Y-2664484D02*
X2752444Y-2674008D01*
X2752444Y-2674008D02*
X2761968Y-2683531D01*
X2761968Y-2683531D02*
X2771491Y-2702579D01*
X2771491Y-2702579D02*
X2771491Y-2721627D01*
X2771491Y-2721627D02*
X2761968Y-2750198D01*
X2761968Y-2750198D02*
X2647682Y-2864484D01*
X2647682Y-2864484D02*
X2771491Y-2864484D01*
X2942920Y-2664484D02*
X2904825Y-2664484D01*
X2904825Y-2664484D02*
X2885777Y-2674008D01*
X2885777Y-2674008D02*
X2876253Y-2683531D01*
X2876253Y-2683531D02*
X2857206Y-2712103D01*
X2857206Y-2712103D02*
X2847682Y-2750198D01*
X2847682Y-2750198D02*
X2847682Y-2826388D01*
X2847682Y-2826388D02*
X2857206Y-2845436D01*
X2857206Y-2845436D02*
X2866729Y-2854960D01*
X2866729Y-2854960D02*
X2885777Y-2864484D01*
X2885777Y-2864484D02*
X2923872Y-2864484D01*
X2923872Y-2864484D02*
X2942920Y-2854960D01*
X2942920Y-2854960D02*
X2952444Y-2845436D01*
X2952444Y-2845436D02*
X2961967Y-2826388D01*
X2961967Y-2826388D02*
X2961967Y-2778770D01*
X2961967Y-2778770D02*
X2952444Y-2759722D01*
X2952444Y-2759722D02*
X2942920Y-2750198D01*
X2942920Y-2750198D02*
X2923872Y-2740674D01*
X2923872Y-2740674D02*
X2885777Y-2740674D01*
X2885777Y-2740674D02*
X2866729Y-2750198D01*
X2866729Y-2750198D02*
X2857206Y-2759722D01*
X2857206Y-2759722D02*
X2847682Y-2778770D01*
X3085777Y-2664484D02*
X3104825Y-2664484D01*
X3104825Y-2664484D02*
X3123872Y-2674008D01*
X3123872Y-2674008D02*
X3133396Y-2683531D01*
X3133396Y-2683531D02*
X3142920Y-2702579D01*
X3142920Y-2702579D02*
X3152444Y-2740674D01*
X3152444Y-2740674D02*
X3152444Y-2788293D01*
X3152444Y-2788293D02*
X3142920Y-2826388D01*
X3142920Y-2826388D02*
X3133396Y-2845436D01*
X3133396Y-2845436D02*
X3123872Y-2854960D01*
X3123872Y-2854960D02*
X3104825Y-2864484D01*
X3104825Y-2864484D02*
X3085777Y-2864484D01*
X3085777Y-2864484D02*
X3066729Y-2854960D01*
X3066729Y-2854960D02*
X3057206Y-2845436D01*
X3057206Y-2845436D02*
X3047682Y-2826388D01*
X3047682Y-2826388D02*
X3038158Y-2788293D01*
X3038158Y-2788293D02*
X3038158Y-2740674D01*
X3038158Y-2740674D02*
X3047682Y-2702579D01*
X3047682Y-2702579D02*
X3057206Y-2683531D01*
X3057206Y-2683531D02*
X3066729Y-2674008D01*
X3066729Y-2674008D02*
X3085777Y-2664484D01*
X3228634Y-2664484D02*
X3228634Y-2702579D01*
X3304825Y-2664484D02*
X3304825Y-2702579D01*
X3600063Y-2940674D02*
X3590539Y-2931150D01*
X3590539Y-2931150D02*
X3571491Y-2902579D01*
X3571491Y-2902579D02*
X3561968Y-2883531D01*
X3561968Y-2883531D02*
X3552444Y-2854960D01*
X3552444Y-2854960D02*
X3542920Y-2807341D01*
X3542920Y-2807341D02*
X3542920Y-2769246D01*
X3542920Y-2769246D02*
X3552444Y-2721627D01*
X3552444Y-2721627D02*
X3561968Y-2693055D01*
X3561968Y-2693055D02*
X3571491Y-2674008D01*
X3571491Y-2674008D02*
X3590539Y-2645436D01*
X3590539Y-2645436D02*
X3600063Y-2635912D01*
X3761968Y-2731150D02*
X3761968Y-2864484D01*
X3714348Y-2654960D02*
X3666729Y-2797817D01*
X3666729Y-2797817D02*
X3790539Y-2797817D01*
X4019110Y-2864484D02*
X4019110Y-2664484D01*
X4104825Y-2864484D02*
X4104825Y-2759722D01*
X4104825Y-2759722D02*
X4095301Y-2740674D01*
X4095301Y-2740674D02*
X4076253Y-2731150D01*
X4076253Y-2731150D02*
X4047682Y-2731150D01*
X4047682Y-2731150D02*
X4028634Y-2740674D01*
X4028634Y-2740674D02*
X4019110Y-2750198D01*
X4228634Y-2864484D02*
X4209587Y-2854960D01*
X4209587Y-2854960D02*
X4200063Y-2845436D01*
X4200063Y-2845436D02*
X4190539Y-2826388D01*
X4190539Y-2826388D02*
X4190539Y-2769246D01*
X4190539Y-2769246D02*
X4200063Y-2750198D01*
X4200063Y-2750198D02*
X4209587Y-2740674D01*
X4209587Y-2740674D02*
X4228634Y-2731150D01*
X4228634Y-2731150D02*
X4257206Y-2731150D01*
X4257206Y-2731150D02*
X4276253Y-2740674D01*
X4276253Y-2740674D02*
X4285777Y-2750198D01*
X4285777Y-2750198D02*
X4295301Y-2769246D01*
X4295301Y-2769246D02*
X4295301Y-2826388D01*
X4295301Y-2826388D02*
X4285777Y-2845436D01*
X4285777Y-2845436D02*
X4276253Y-2854960D01*
X4276253Y-2854960D02*
X4257206Y-2864484D01*
X4257206Y-2864484D02*
X4228634Y-2864484D01*
X4409587Y-2864484D02*
X4390539Y-2854960D01*
X4390539Y-2854960D02*
X4381015Y-2835912D01*
X4381015Y-2835912D02*
X4381015Y-2664484D01*
X4561968Y-2854960D02*
X4542920Y-2864484D01*
X4542920Y-2864484D02*
X4504825Y-2864484D01*
X4504825Y-2864484D02*
X4485777Y-2854960D01*
X4485777Y-2854960D02*
X4476253Y-2835912D01*
X4476253Y-2835912D02*
X4476253Y-2759722D01*
X4476253Y-2759722D02*
X4485777Y-2740674D01*
X4485777Y-2740674D02*
X4504825Y-2731150D01*
X4504825Y-2731150D02*
X4542920Y-2731150D01*
X4542920Y-2731150D02*
X4561968Y-2740674D01*
X4561968Y-2740674D02*
X4571492Y-2759722D01*
X4571492Y-2759722D02*
X4571492Y-2778770D01*
X4571492Y-2778770D02*
X4476253Y-2797817D01*
X4647682Y-2854960D02*
X4666730Y-2864484D01*
X4666730Y-2864484D02*
X4704825Y-2864484D01*
X4704825Y-2864484D02*
X4723873Y-2854960D01*
X4723873Y-2854960D02*
X4733396Y-2835912D01*
X4733396Y-2835912D02*
X4733396Y-2826388D01*
X4733396Y-2826388D02*
X4723873Y-2807341D01*
X4723873Y-2807341D02*
X4704825Y-2797817D01*
X4704825Y-2797817D02*
X4676253Y-2797817D01*
X4676253Y-2797817D02*
X4657206Y-2788293D01*
X4657206Y-2788293D02*
X4647682Y-2769246D01*
X4647682Y-2769246D02*
X4647682Y-2759722D01*
X4647682Y-2759722D02*
X4657206Y-2740674D01*
X4657206Y-2740674D02*
X4676253Y-2731150D01*
X4676253Y-2731150D02*
X4704825Y-2731150D01*
X4704825Y-2731150D02*
X4723873Y-2740674D01*
X4800063Y-2940674D02*
X4809587Y-2931150D01*
X4809587Y-2931150D02*
X4828634Y-2902579D01*
X4828634Y-2902579D02*
X4838158Y-2883531D01*
X4838158Y-2883531D02*
X4847682Y-2854960D01*
X4847682Y-2854960D02*
X4857206Y-2807341D01*
X4857206Y-2807341D02*
X4857206Y-2769246D01*
X4857206Y-2769246D02*
X4847682Y-2721627D01*
X4847682Y-2721627D02*
X4838158Y-2693055D01*
X4838158Y-2693055D02*
X4828634Y-2674008D01*
X4828634Y-2674008D02*
X4809587Y-2645436D01*
X4809587Y-2645436D02*
X4800063Y-2635912D01*
X-75000Y-2993000D02*
X-75000Y-3193000D01*
X-175000Y-3093000D02*
X25000Y-3093000D01*
X25000Y-3093000D02*
G75*
G03*
X25000Y-3093000I-100000J0D01*
G01*
X371491Y-3051150D02*
X371491Y-3184484D01*
X323872Y-2974960D02*
X276253Y-3117817D01*
X276253Y-3117817D02*
X400062Y-3117817D01*
X476253Y-3165436D02*
X485777Y-3174960D01*
X485777Y-3174960D02*
X476253Y-3184484D01*
X476253Y-3184484D02*
X466729Y-3174960D01*
X466729Y-3174960D02*
X476253Y-3165436D01*
X476253Y-3165436D02*
X476253Y-3184484D01*
X666729Y-2984484D02*
X571491Y-2984484D01*
X571491Y-2984484D02*
X561967Y-3079722D01*
X561967Y-3079722D02*
X571491Y-3070198D01*
X571491Y-3070198D02*
X590539Y-3060674D01*
X590539Y-3060674D02*
X638158Y-3060674D01*
X638158Y-3060674D02*
X657205Y-3070198D01*
X657205Y-3070198D02*
X666729Y-3079722D01*
X666729Y-3079722D02*
X676253Y-3098769D01*
X676253Y-3098769D02*
X676253Y-3146388D01*
X676253Y-3146388D02*
X666729Y-3165436D01*
X666729Y-3165436D02*
X657205Y-3174960D01*
X657205Y-3174960D02*
X638158Y-3184484D01*
X638158Y-3184484D02*
X590539Y-3184484D01*
X590539Y-3184484D02*
X571491Y-3174960D01*
X571491Y-3174960D02*
X561967Y-3165436D01*
X800062Y-2984484D02*
X819110Y-2984484D01*
X819110Y-2984484D02*
X838158Y-2994008D01*
X838158Y-2994008D02*
X847682Y-3003531D01*
X847682Y-3003531D02*
X857205Y-3022579D01*
X857205Y-3022579D02*
X866729Y-3060674D01*
X866729Y-3060674D02*
X866729Y-3108293D01*
X866729Y-3108293D02*
X857205Y-3146388D01*
X857205Y-3146388D02*
X847682Y-3165436D01*
X847682Y-3165436D02*
X838158Y-3174960D01*
X838158Y-3174960D02*
X819110Y-3184484D01*
X819110Y-3184484D02*
X800062Y-3184484D01*
X800062Y-3184484D02*
X781015Y-3174960D01*
X781015Y-3174960D02*
X771491Y-3165436D01*
X771491Y-3165436D02*
X761967Y-3146388D01*
X761967Y-3146388D02*
X752443Y-3108293D01*
X752443Y-3108293D02*
X752443Y-3060674D01*
X752443Y-3060674D02*
X761967Y-3022579D01*
X761967Y-3022579D02*
X771491Y-3003531D01*
X771491Y-3003531D02*
X781015Y-2994008D01*
X781015Y-2994008D02*
X800062Y-2984484D01*
X990539Y-2984484D02*
X1009586Y-2984484D01*
X1009586Y-2984484D02*
X1028634Y-2994008D01*
X1028634Y-2994008D02*
X1038158Y-3003531D01*
X1038158Y-3003531D02*
X1047682Y-3022579D01*
X1047682Y-3022579D02*
X1057205Y-3060674D01*
X1057205Y-3060674D02*
X1057205Y-3108293D01*
X1057205Y-3108293D02*
X1047682Y-3146388D01*
X1047682Y-3146388D02*
X1038158Y-3165436D01*
X1038158Y-3165436D02*
X1028634Y-3174960D01*
X1028634Y-3174960D02*
X1009586Y-3184484D01*
X1009586Y-3184484D02*
X990539Y-3184484D01*
X990539Y-3184484D02*
X971491Y-3174960D01*
X971491Y-3174960D02*
X961967Y-3165436D01*
X961967Y-3165436D02*
X952443Y-3146388D01*
X952443Y-3146388D02*
X942920Y-3108293D01*
X942920Y-3108293D02*
X942920Y-3060674D01*
X942920Y-3060674D02*
X952443Y-3022579D01*
X952443Y-3022579D02*
X961967Y-3003531D01*
X961967Y-3003531D02*
X971491Y-2994008D01*
X971491Y-2994008D02*
X990539Y-2984484D01*
X1142920Y-3184484D02*
X1142920Y-3051150D01*
X1142920Y-3070198D02*
X1152444Y-3060674D01*
X1152444Y-3060674D02*
X1171491Y-3051150D01*
X1171491Y-3051150D02*
X1200063Y-3051150D01*
X1200063Y-3051150D02*
X1219110Y-3060674D01*
X1219110Y-3060674D02*
X1228634Y-3079722D01*
X1228634Y-3079722D02*
X1228634Y-3184484D01*
X1228634Y-3079722D02*
X1238158Y-3060674D01*
X1238158Y-3060674D02*
X1257205Y-3051150D01*
X1257205Y-3051150D02*
X1285777Y-3051150D01*
X1285777Y-3051150D02*
X1304825Y-3060674D01*
X1304825Y-3060674D02*
X1314348Y-3079722D01*
X1314348Y-3079722D02*
X1314348Y-3184484D01*
X1409586Y-3184484D02*
X1409586Y-3051150D01*
X1409586Y-3070198D02*
X1419110Y-3060674D01*
X1419110Y-3060674D02*
X1438158Y-3051150D01*
X1438158Y-3051150D02*
X1466729Y-3051150D01*
X1466729Y-3051150D02*
X1485777Y-3060674D01*
X1485777Y-3060674D02*
X1495301Y-3079722D01*
X1495301Y-3079722D02*
X1495301Y-3184484D01*
X1495301Y-3079722D02*
X1504824Y-3060674D01*
X1504824Y-3060674D02*
X1523872Y-3051150D01*
X1523872Y-3051150D02*
X1552443Y-3051150D01*
X1552443Y-3051150D02*
X1571491Y-3060674D01*
X1571491Y-3060674D02*
X1581015Y-3079722D01*
X1581015Y-3079722D02*
X1581015Y-3184484D01*
X1971491Y-2974960D02*
X1800063Y-3232103D01*
X2228634Y-2984484D02*
X2247682Y-2984484D01*
X2247682Y-2984484D02*
X2266729Y-2994008D01*
X2266729Y-2994008D02*
X2276253Y-3003531D01*
X2276253Y-3003531D02*
X2285777Y-3022579D01*
X2285777Y-3022579D02*
X2295301Y-3060674D01*
X2295301Y-3060674D02*
X2295301Y-3108293D01*
X2295301Y-3108293D02*
X2285777Y-3146388D01*
X2285777Y-3146388D02*
X2276253Y-3165436D01*
X2276253Y-3165436D02*
X2266729Y-3174960D01*
X2266729Y-3174960D02*
X2247682Y-3184484D01*
X2247682Y-3184484D02*
X2228634Y-3184484D01*
X2228634Y-3184484D02*
X2209587Y-3174960D01*
X2209587Y-3174960D02*
X2200063Y-3165436D01*
X2200063Y-3165436D02*
X2190539Y-3146388D01*
X2190539Y-3146388D02*
X2181015Y-3108293D01*
X2181015Y-3108293D02*
X2181015Y-3060674D01*
X2181015Y-3060674D02*
X2190539Y-3022579D01*
X2190539Y-3022579D02*
X2200063Y-3003531D01*
X2200063Y-3003531D02*
X2209587Y-2994008D01*
X2209587Y-2994008D02*
X2228634Y-2984484D01*
X2381015Y-3165436D02*
X2390539Y-3174960D01*
X2390539Y-3174960D02*
X2381015Y-3184484D01*
X2381015Y-3184484D02*
X2371491Y-3174960D01*
X2371491Y-3174960D02*
X2381015Y-3165436D01*
X2381015Y-3165436D02*
X2381015Y-3184484D01*
X2581015Y-3184484D02*
X2466729Y-3184484D01*
X2523872Y-3184484D02*
X2523872Y-2984484D01*
X2523872Y-2984484D02*
X2504825Y-3013055D01*
X2504825Y-3013055D02*
X2485777Y-3032103D01*
X2485777Y-3032103D02*
X2466729Y-3041627D01*
X2647682Y-2984484D02*
X2781015Y-2984484D01*
X2781015Y-2984484D02*
X2695301Y-3184484D01*
X2838158Y-2984484D02*
X2971491Y-2984484D01*
X2971491Y-2984484D02*
X2885777Y-3184484D01*
X3038158Y-3003531D02*
X3047682Y-2994008D01*
X3047682Y-2994008D02*
X3066729Y-2984484D01*
X3066729Y-2984484D02*
X3114348Y-2984484D01*
X3114348Y-2984484D02*
X3133396Y-2994008D01*
X3133396Y-2994008D02*
X3142920Y-3003531D01*
X3142920Y-3003531D02*
X3152444Y-3022579D01*
X3152444Y-3022579D02*
X3152444Y-3041627D01*
X3152444Y-3041627D02*
X3142920Y-3070198D01*
X3142920Y-3070198D02*
X3028634Y-3184484D01*
X3028634Y-3184484D02*
X3152444Y-3184484D01*
X3228634Y-2984484D02*
X3228634Y-3022579D01*
X3304825Y-2984484D02*
X3304825Y-3022579D01*
X3600063Y-3260674D02*
X3590539Y-3251150D01*
X3590539Y-3251150D02*
X3571491Y-3222579D01*
X3571491Y-3222579D02*
X3561968Y-3203531D01*
X3561968Y-3203531D02*
X3552444Y-3174960D01*
X3552444Y-3174960D02*
X3542920Y-3127341D01*
X3542920Y-3127341D02*
X3542920Y-3089246D01*
X3542920Y-3089246D02*
X3552444Y-3041627D01*
X3552444Y-3041627D02*
X3561968Y-3013055D01*
X3561968Y-3013055D02*
X3571491Y-2994008D01*
X3571491Y-2994008D02*
X3590539Y-2965436D01*
X3590539Y-2965436D02*
X3600063Y-2955912D01*
X3781015Y-3184484D02*
X3666729Y-3184484D01*
X3723872Y-3184484D02*
X3723872Y-2984484D01*
X3723872Y-2984484D02*
X3704825Y-3013055D01*
X3704825Y-3013055D02*
X3685777Y-3032103D01*
X3685777Y-3032103D02*
X3666729Y-3041627D01*
X3952444Y-3051150D02*
X3952444Y-3184484D01*
X3904825Y-2974960D02*
X3857206Y-3117817D01*
X3857206Y-3117817D02*
X3981015Y-3117817D01*
X4209587Y-3184484D02*
X4209587Y-2984484D01*
X4295301Y-3184484D02*
X4295301Y-3079722D01*
X4295301Y-3079722D02*
X4285777Y-3060674D01*
X4285777Y-3060674D02*
X4266730Y-3051150D01*
X4266730Y-3051150D02*
X4238158Y-3051150D01*
X4238158Y-3051150D02*
X4219111Y-3060674D01*
X4219111Y-3060674D02*
X4209587Y-3070198D01*
X4419111Y-3184484D02*
X4400063Y-3174960D01*
X4400063Y-3174960D02*
X4390539Y-3165436D01*
X4390539Y-3165436D02*
X4381015Y-3146388D01*
X4381015Y-3146388D02*
X4381015Y-3089246D01*
X4381015Y-3089246D02*
X4390539Y-3070198D01*
X4390539Y-3070198D02*
X4400063Y-3060674D01*
X4400063Y-3060674D02*
X4419111Y-3051150D01*
X4419111Y-3051150D02*
X4447682Y-3051150D01*
X4447682Y-3051150D02*
X4466730Y-3060674D01*
X4466730Y-3060674D02*
X4476253Y-3070198D01*
X4476253Y-3070198D02*
X4485777Y-3089246D01*
X4485777Y-3089246D02*
X4485777Y-3146388D01*
X4485777Y-3146388D02*
X4476253Y-3165436D01*
X4476253Y-3165436D02*
X4466730Y-3174960D01*
X4466730Y-3174960D02*
X4447682Y-3184484D01*
X4447682Y-3184484D02*
X4419111Y-3184484D01*
X4600063Y-3184484D02*
X4581015Y-3174960D01*
X4581015Y-3174960D02*
X4571492Y-3155912D01*
X4571492Y-3155912D02*
X4571492Y-2984484D01*
X4752444Y-3174960D02*
X4733396Y-3184484D01*
X4733396Y-3184484D02*
X4695301Y-3184484D01*
X4695301Y-3184484D02*
X4676253Y-3174960D01*
X4676253Y-3174960D02*
X4666730Y-3155912D01*
X4666730Y-3155912D02*
X4666730Y-3079722D01*
X4666730Y-3079722D02*
X4676253Y-3060674D01*
X4676253Y-3060674D02*
X4695301Y-3051150D01*
X4695301Y-3051150D02*
X4733396Y-3051150D01*
X4733396Y-3051150D02*
X4752444Y-3060674D01*
X4752444Y-3060674D02*
X4761968Y-3079722D01*
X4761968Y-3079722D02*
X4761968Y-3098769D01*
X4761968Y-3098769D02*
X4666730Y-3117817D01*
X4838158Y-3174960D02*
X4857206Y-3184484D01*
X4857206Y-3184484D02*
X4895301Y-3184484D01*
X4895301Y-3184484D02*
X4914349Y-3174960D01*
X4914349Y-3174960D02*
X4923873Y-3155912D01*
X4923873Y-3155912D02*
X4923873Y-3146388D01*
X4923873Y-3146388D02*
X4914349Y-3127341D01*
X4914349Y-3127341D02*
X4895301Y-3117817D01*
X4895301Y-3117817D02*
X4866730Y-3117817D01*
X4866730Y-3117817D02*
X4847682Y-3108293D01*
X4847682Y-3108293D02*
X4838158Y-3089246D01*
X4838158Y-3089246D02*
X4838158Y-3079722D01*
X4838158Y-3079722D02*
X4847682Y-3060674D01*
X4847682Y-3060674D02*
X4866730Y-3051150D01*
X4866730Y-3051150D02*
X4895301Y-3051150D01*
X4895301Y-3051150D02*
X4914349Y-3060674D01*
X4990539Y-3260674D02*
X5000063Y-3251150D01*
X5000063Y-3251150D02*
X5019111Y-3222579D01*
X5019111Y-3222579D02*
X5028634Y-3203531D01*
X5028634Y-3203531D02*
X5038158Y-3174960D01*
X5038158Y-3174960D02*
X5047682Y-3127341D01*
X5047682Y-3127341D02*
X5047682Y-3089246D01*
X5047682Y-3089246D02*
X5038158Y-3041627D01*
X5038158Y-3041627D02*
X5028634Y-3013055D01*
X5028634Y-3013055D02*
X5019111Y-2994008D01*
X5019111Y-2994008D02*
X5000063Y-2965436D01*
X5000063Y-2965436D02*
X4990539Y-2955912D01*
M02*
