%TF.GenerationSoftware,KiCad,Pcbnew,7.0.9*%
%TF.CreationDate,2024-11-04T23:33:06+09:00*%
%TF.ProjectId,schematic_PWRcutoff,73636865-6d61-4746-9963-5f5057526375,rev?*%
%TF.SameCoordinates,PX4b571c0PY86d97c0*%
%TF.FileFunction,Copper,L2,Bot*%
%TF.FilePolarity,Positive*%
%FSLAX46Y46*%
G04 Gerber Fmt 4.6, Leading zero omitted, Abs format (unit mm)*
G04 Created by KiCad (PCBNEW 7.0.9) date 2024-11-04 23:33:06*
%MOMM*%
%LPD*%
G01*
G04 APERTURE LIST*
G04 Aperture macros list*
%AMRoundRect*
0 Rectangle with rounded corners*
0 $1 Rounding radius*
0 $2 $3 $4 $5 $6 $7 $8 $9 X,Y pos of 4 corners*
0 Add a 4 corners polygon primitive as box body*
4,1,4,$2,$3,$4,$5,$6,$7,$8,$9,$2,$3,0*
0 Add four circle primitives for the rounded corners*
1,1,$1+$1,$2,$3*
1,1,$1+$1,$4,$5*
1,1,$1+$1,$6,$7*
1,1,$1+$1,$8,$9*
0 Add four rect primitives between the rounded corners*
20,1,$1+$1,$2,$3,$4,$5,0*
20,1,$1+$1,$4,$5,$6,$7,0*
20,1,$1+$1,$6,$7,$8,$9,0*
20,1,$1+$1,$8,$9,$2,$3,0*%
G04 Aperture macros list end*
%TA.AperFunction,ComponentPad*%
%ADD10C,1.800000*%
%TD*%
%TA.AperFunction,ComponentPad*%
%ADD11R,1.700000X1.700000*%
%TD*%
%TA.AperFunction,ComponentPad*%
%ADD12O,1.700000X1.700000*%
%TD*%
%TA.AperFunction,ComponentPad*%
%ADD13R,2.400000X2.400000*%
%TD*%
%TA.AperFunction,ComponentPad*%
%ADD14C,2.400000*%
%TD*%
%TA.AperFunction,ComponentPad*%
%ADD15C,1.600000*%
%TD*%
%TA.AperFunction,ComponentPad*%
%ADD16R,1.600000X1.600000*%
%TD*%
%TA.AperFunction,ComponentPad*%
%ADD17C,6.000000*%
%TD*%
%TA.AperFunction,ComponentPad*%
%ADD18RoundRect,1.500000X1.500000X1.500000X-1.500000X1.500000X-1.500000X-1.500000X1.500000X-1.500000X0*%
%TD*%
%TA.AperFunction,ComponentPad*%
%ADD19O,1.700000X1.950000*%
%TD*%
%TA.AperFunction,ComponentPad*%
%ADD20RoundRect,0.250000X-0.600000X-0.725000X0.600000X-0.725000X0.600000X0.725000X-0.600000X0.725000X0*%
%TD*%
%TA.AperFunction,ComponentPad*%
%ADD21C,0.800000*%
%TD*%
%TA.AperFunction,ComponentPad*%
%ADD22C,6.400000*%
%TD*%
%TA.AperFunction,ComponentPad*%
%ADD23C,3.000000*%
%TD*%
%TA.AperFunction,ComponentPad*%
%ADD24RoundRect,0.500000X0.500000X0.500000X-0.500000X0.500000X-0.500000X-0.500000X0.500000X-0.500000X0*%
%TD*%
%TA.AperFunction,ComponentPad*%
%ADD25C,2.000000*%
%TD*%
%TA.AperFunction,ComponentPad*%
%ADD26O,2.400000X2.400000*%
%TD*%
%TA.AperFunction,ViaPad*%
%ADD27C,0.800000*%
%TD*%
%TA.AperFunction,Conductor*%
%ADD28C,0.300000*%
%TD*%
%TA.AperFunction,Conductor*%
%ADD29C,1.000000*%
%TD*%
G04 APERTURE END LIST*
D10*
%TO.P,RV1,1*%
%TO.N,+12V*%
X31850000Y88500000D03*
%TO.P,RV1,2*%
%TO.N,GND*%
X39350000Y86700000D03*
%TD*%
D11*
%TO.P,J7,1,Pin_1*%
%TO.N,GNDPWR*%
X52900000Y2960000D03*
D12*
%TO.P,J7,2,Pin_2*%
%TO.N,+24V*%
X52900000Y5500000D03*
%TD*%
D13*
%TO.P,C2,1*%
%TO.N,+24V*%
X65800000Y67300000D03*
D14*
%TO.P,C2,2*%
%TO.N,GNDPWR*%
X65800000Y74800000D03*
%TD*%
D15*
%TO.P,C1,2*%
%TO.N,GND*%
X35797349Y80600000D03*
D16*
%TO.P,C1,1*%
%TO.N,+12V*%
X30797349Y80600000D03*
%TD*%
D17*
%TO.P,J2,2,Pin_2*%
%TO.N,+12V*%
X32000000Y94800000D03*
D18*
%TO.P,J2,1,Pin_1*%
%TO.N,GND*%
X39200000Y94800000D03*
%TD*%
D17*
%TO.P,J3,2,Pin_2*%
%TO.N,+24V*%
X65700000Y94175000D03*
D18*
%TO.P,J3,1,Pin_1*%
%TO.N,GNDPWR*%
X76700000Y94175000D03*
%TD*%
D12*
%TO.P,J8,2,Pin_2*%
%TO.N,12VIN*%
X14965000Y10100000D03*
D11*
%TO.P,J8,1,Pin_1*%
%TO.N,EMC_signal*%
X12425000Y10100000D03*
%TD*%
D19*
%TO.P,J9,2,Pin_2*%
%TO.N,/PWR_Cutoff_Relay Sheet/Relay_Coil_Signal*%
X14950000Y4100000D03*
D20*
%TO.P,J9,1,Pin_1*%
%TO.N,EMC_signal*%
X12450000Y4100000D03*
%TD*%
D18*
%TO.P,J10,1,Pin_1*%
%TO.N,GNDPWR*%
X94100000Y54200000D03*
D17*
%TO.P,J10,2,Pin_2*%
%TO.N,/PWR_Cutoff_Relay Sheet/Relay_SW_OUT*%
X86900000Y54200000D03*
%TD*%
D18*
%TO.P,J11,1,Pin_1*%
%TO.N,GNDPWR*%
X94100000Y40800000D03*
D17*
%TO.P,J11,2,Pin_2*%
%TO.N,/PWR_Cutoff_Relay Sheet/Relay_SW_OUT*%
X86900000Y40800000D03*
%TD*%
D18*
%TO.P,J14,1,Pin_1*%
%TO.N,GNDPWR*%
X93900000Y25700000D03*
D17*
%TO.P,J14,2,Pin_2*%
%TO.N,/PWR_Cutoff_Relay Sheet1/Relay_SW_OUT*%
X86700000Y25700000D03*
%TD*%
D18*
%TO.P,J15,1,Pin_1*%
%TO.N,GNDPWR*%
X93900000Y11700000D03*
D17*
%TO.P,J15,2,Pin_2*%
%TO.N,/PWR_Cutoff_Relay Sheet1/Relay_SW_OUT*%
X86700000Y11700000D03*
%TD*%
D19*
%TO.P,J4,4,Pin_4*%
%TO.N,CANL*%
X11000000Y75250000D03*
%TO.P,J4,3,Pin_3*%
%TO.N,CANH*%
X8500000Y75250000D03*
%TO.P,J4,2,Pin_2*%
%TO.N,12VIN*%
X6000000Y75250000D03*
D20*
%TO.P,J4,1,Pin_1*%
%TO.N,GND*%
X3500000Y75250000D03*
%TD*%
D19*
%TO.P,J6,4,Pin_4*%
%TO.N,CANL*%
X11000000Y66800000D03*
%TO.P,J6,3,Pin_3*%
%TO.N,CANH*%
X8500000Y66800000D03*
%TO.P,J6,2,Pin_2*%
%TO.N,12VIN*%
X6000000Y66800000D03*
D20*
%TO.P,J6,1,Pin_1*%
%TO.N,GND*%
X3500000Y66800000D03*
%TD*%
D12*
%TO.P,J13,8,Pin_8*%
%TO.N,GND*%
X21280000Y16800000D03*
%TO.P,J13,7,Pin_7*%
X18740000Y16800000D03*
%TO.P,J13,6,Pin_6*%
X16200000Y16800000D03*
%TO.P,J13,5,Pin_5*%
%TO.N,EMC_signal*%
X13660000Y16800000D03*
%TO.P,J13,4,Pin_4*%
%TO.N,GND*%
X11120000Y16800000D03*
%TO.P,J13,3,Pin_3*%
X8580000Y16800000D03*
%TO.P,J13,2,Pin_2*%
X6040000Y16800000D03*
D11*
%TO.P,J13,1,Pin_1*%
X3500000Y16800000D03*
%TD*%
D12*
%TO.P,J5,2,Pin_2*%
%TO.N,12VIN*%
X32900000Y57235000D03*
D11*
%TO.P,J5,1,Pin_1*%
%TO.N,+12V*%
X32900000Y59775000D03*
%TD*%
%TO.P,J12,1,Pin_1*%
%TO.N,GND*%
X3500000Y56800000D03*
D12*
%TO.P,J12,2,Pin_2*%
%TO.N,12VIN*%
X6040000Y56800000D03*
%TO.P,J12,3,Pin_3*%
%TO.N,CANH*%
X8580000Y56800000D03*
%TO.P,J12,4,Pin_4*%
%TO.N,CANL*%
X11120000Y56800000D03*
%TO.P,J12,5,Pin_5*%
%TO.N,+12V*%
X13660000Y56800000D03*
%TO.P,J12,6,Pin_6*%
X16200000Y56800000D03*
%TO.P,J12,7,Pin_7*%
X18740000Y56800000D03*
%TO.P,J12,8,Pin_8*%
X21280000Y56800000D03*
%TD*%
D17*
%TO.P,J1,2,Pin_2*%
%TO.N,+12V*%
X4900000Y85400000D03*
D18*
%TO.P,J1,1,Pin_1*%
%TO.N,GND*%
X12100000Y85400000D03*
%TD*%
D21*
%TO.P,H2,1,1*%
%TO.N,GND*%
X1400000Y3500000D03*
X2102944Y5197056D03*
X2102944Y1802944D03*
X3800000Y5900000D03*
D22*
X3800000Y3500000D03*
D21*
X3800000Y1100000D03*
X5497056Y5197056D03*
X5497056Y1802944D03*
X6200000Y3500000D03*
%TD*%
D23*
%TO.P,K2,13*%
%TO.N,+24V*%
X58760000Y26700000D03*
%TO.P,K2,14*%
%TO.N,/PWR_Cutoff_Relay Sheet1/Relay_SW_OUT*%
X61300000Y8900000D03*
D24*
%TO.P,K2,A1*%
%TO.N,Net-(D6-A)*%
X46100000Y22900000D03*
D25*
%TO.P,K2,A2*%
%TO.N,12VIN*%
X46100000Y12700000D03*
%TD*%
D21*
%TO.P,H3,1,1*%
%TO.N,GNDPWR*%
X99200000Y96500000D03*
X98497056Y94802944D03*
X98497056Y98197056D03*
X96800000Y94100000D03*
D22*
X96800000Y96500000D03*
D21*
X96800000Y98900000D03*
X95102944Y94802944D03*
X95102944Y98197056D03*
X94400000Y96500000D03*
%TD*%
%TO.P,H1,1,1*%
%TO.N,GND*%
X1400000Y96500000D03*
X2102944Y98197056D03*
X2102944Y94802944D03*
X3800000Y98900000D03*
D22*
X3800000Y96500000D03*
D21*
X3800000Y94100000D03*
X5497056Y98197056D03*
X5497056Y94802944D03*
X6200000Y96500000D03*
%TD*%
%TO.P,H4,1,1*%
%TO.N,GNDPWR*%
X94400000Y3500000D03*
X95102944Y5197056D03*
X95102944Y1802944D03*
X96800000Y5900000D03*
D22*
X96800000Y3500000D03*
D21*
X96800000Y1100000D03*
X98497056Y5197056D03*
X98497056Y1802944D03*
X99200000Y3500000D03*
%TD*%
D23*
%TO.P,K1,13*%
%TO.N,+24V*%
X58760000Y55400000D03*
%TO.P,K1,14*%
%TO.N,/PWR_Cutoff_Relay Sheet/Relay_SW_OUT*%
X61300000Y37600000D03*
D24*
%TO.P,K1,A1*%
%TO.N,Net-(D4-A)*%
X46100000Y51600000D03*
D25*
%TO.P,K1,A2*%
%TO.N,12VIN*%
X46100000Y41400000D03*
%TD*%
D14*
%TO.P,R1,1*%
%TO.N,+24V*%
X56540000Y84100000D03*
D26*
%TO.P,R1,2*%
%TO.N,GNDPWR*%
X76860000Y84100000D03*
%TD*%
D27*
%TO.N,GND*%
X38400000Y79300000D03*
X35500000Y76300000D03*
X35500000Y78800000D03*
X38400000Y76300000D03*
X43400000Y76300000D03*
X43300000Y65600000D03*
X18400000Y83900000D03*
X11300000Y64300000D03*
X11300000Y59300000D03*
X13400000Y65500000D03*
X15500000Y69300000D03*
X18300000Y74300000D03*
X13400000Y74300000D03*
X18400000Y79300000D03*
X13400000Y69300000D03*
X13400000Y79300000D03*
X8400000Y79300000D03*
X3400000Y79300000D03*
X700000Y79300000D03*
X3400000Y69300000D03*
X700000Y69300000D03*
X3400000Y64300000D03*
X700000Y64300000D03*
X3400000Y59300000D03*
X700000Y59300000D03*
X700000Y54300000D03*
X700000Y29300000D03*
X700000Y34300000D03*
X700000Y44300000D03*
X700000Y49300000D03*
X700000Y39300000D03*
X700000Y19300000D03*
X700000Y24300000D03*
X3400000Y54300000D03*
X31300000Y68100000D03*
X31300000Y72700000D03*
X28400000Y68100000D03*
X26200000Y64300000D03*
X23800000Y59300000D03*
X31300000Y59300000D03*
X31300000Y64300000D03*
X28400000Y64300000D03*
X9800000Y55000000D03*
X13400000Y55000000D03*
X18400000Y55000000D03*
X28500000Y55100000D03*
X28400000Y59300000D03*
X23400000Y55000000D03*
X14700000Y14300000D03*
X23400000Y14300000D03*
X18400000Y14300000D03*
X8400000Y4300000D03*
X8400000Y9300000D03*
X8400000Y14300000D03*
X3400000Y9300000D03*
X3400000Y14300000D03*
X3400000Y19300000D03*
X23400000Y19300000D03*
X28400000Y24300000D03*
X3400000Y24300000D03*
X8400000Y19300000D03*
X13400000Y19300000D03*
X18400000Y24300000D03*
X8400000Y24300000D03*
X23400000Y24300000D03*
X28400000Y19300000D03*
X13400000Y24300000D03*
X18400000Y19300000D03*
X8400000Y49300000D03*
X8400000Y44300000D03*
X3400000Y39300000D03*
X3400000Y49300000D03*
X3400000Y29300000D03*
X8400000Y34300000D03*
X8400000Y39300000D03*
X3400000Y34300000D03*
X8400000Y29300000D03*
X3400000Y44300000D03*
X13400000Y39300000D03*
X13400000Y29300000D03*
X13400000Y49300000D03*
X18400000Y34300000D03*
X18400000Y44300000D03*
X18400000Y49300000D03*
X18400000Y39300000D03*
X13400000Y44300000D03*
X13400000Y34300000D03*
X18400000Y29300000D03*
X23400000Y34300000D03*
X23400000Y44300000D03*
X23400000Y49300000D03*
X23400000Y39300000D03*
X23400000Y29300000D03*
X28400000Y34300000D03*
X28400000Y39300000D03*
X28400000Y44300000D03*
X28400000Y49300000D03*
X28400000Y29300000D03*
X13400000Y400000D03*
X8400000Y400000D03*
X33400000Y14300000D03*
X18400000Y400000D03*
X23400000Y400000D03*
X23400000Y4300000D03*
X28400000Y4300000D03*
X28400000Y9300000D03*
X28400000Y400000D03*
X33400000Y4300000D03*
X33400000Y9300000D03*
X33400000Y400000D03*
X43400000Y400000D03*
X38400000Y400000D03*
X43400000Y4300000D03*
X38400000Y4300000D03*
X38400000Y9300000D03*
X43400000Y9300000D03*
X38400000Y24300000D03*
X43400000Y24300000D03*
X43400000Y36300000D03*
X38400000Y35000000D03*
X35900000Y32400000D03*
X35900000Y44300000D03*
X35900000Y39300000D03*
X38400000Y29300000D03*
X43400000Y29300000D03*
X38400000Y39300000D03*
X43400000Y39300000D03*
X36000000Y57300000D03*
X36000000Y54300000D03*
X36000000Y50100000D03*
X38400000Y50100000D03*
X43400000Y51100000D03*
X38400000Y54300000D03*
X43400000Y54300000D03*
X38400000Y60200000D03*
X43400000Y59300000D03*
X34500000Y64300000D03*
X34500000Y60400000D03*
X38700000Y64000000D03*
X35500000Y82600000D03*
X43400000Y79300000D03*
X38400000Y84300000D03*
X43400000Y84300000D03*
X43400000Y94300000D03*
X43400000Y89300000D03*
X43400000Y99300000D03*
X38400000Y89300000D03*
X38400000Y99300000D03*
X23400000Y89300000D03*
X23400000Y94300000D03*
X23400000Y99300000D03*
X18400000Y94300000D03*
X18400000Y99300000D03*
X8400000Y94300000D03*
X13400000Y94300000D03*
X13400000Y99300000D03*
X8400000Y99300000D03*
%TO.N,GNDPWR*%
X56200000Y92000000D03*
%TO.N,Net-(D6-A)*%
X44738000Y66300000D03*
%TO.N,Net-(D4-A)*%
X45387500Y68200000D03*
%TO.N,/PWR_Cutoff_Relay Sheet/Relay_Coil_Signal*%
X34700000Y49900000D03*
X34700000Y46700000D03*
X34752464Y20852464D03*
X33197536Y19297536D03*
%TD*%
D28*
%TO.N,Net-(D4-A)*%
X46200000Y51700000D02*
X46100000Y51600000D01*
X46200000Y67387500D02*
X46200000Y51700000D01*
X46187500Y67400000D02*
X46200000Y67387500D01*
%TO.N,Net-(D6-A)*%
X45540811Y40050000D02*
X46100000Y40050000D01*
X44500000Y41090811D02*
X45540811Y40050000D01*
X45700000Y53409354D02*
X44500000Y52209354D01*
X44738000Y66262000D02*
X45700000Y65300000D01*
X46100000Y40050000D02*
X46100000Y22900000D01*
X44738000Y66300000D02*
X44738000Y66262000D01*
X45700000Y65300000D02*
X45700000Y53409354D01*
X44500000Y52209354D02*
X44500000Y41090811D01*
D29*
%TO.N,GNDPWR*%
X55560000Y2960000D02*
X55600000Y3000000D01*
X52900000Y2960000D02*
X55560000Y2960000D01*
D28*
%TO.N,/PWR_Cutoff_Relay Sheet/Relay_Coil_Signal*%
X34700000Y49900000D02*
X34700000Y46700000D01*
X33197536Y19297536D02*
X34752464Y20852464D01*
%TO.N,Net-(D4-A)*%
X45387500Y68200000D02*
X46187500Y67400000D01*
%TD*%
%TA.AperFunction,Conductor*%
%TO.N,GNDPWR*%
G36*
X95068745Y99979815D02*
G01*
X95114500Y99927011D01*
X95124444Y99857853D01*
X95095419Y99794297D01*
X95058001Y99765015D01*
X94947456Y99708690D01*
X94622206Y99497469D01*
X94364648Y99288905D01*
X94364648Y99288904D01*
X95262306Y98391246D01*
X95200489Y98432551D01*
X95127568Y98447056D01*
X95078320Y98447056D01*
X95005399Y98432551D01*
X94922704Y98377296D01*
X94867449Y98294601D01*
X94848046Y98197056D01*
X94867449Y98099511D01*
X94908753Y98037695D01*
X94011096Y98935352D01*
X94011095Y98935352D01*
X93802531Y98677794D01*
X93591310Y98352544D01*
X93415244Y98006995D01*
X93276262Y97644937D01*
X93175887Y97270331D01*
X93175886Y97270324D01*
X93115219Y96887288D01*
X93094922Y96500001D01*
X93094922Y96500000D01*
X93115219Y96112713D01*
X93175886Y95729677D01*
X93175887Y95729670D01*
X93276262Y95355064D01*
X93415244Y94993006D01*
X93591310Y94647457D01*
X93802531Y94322207D01*
X94011095Y94064650D01*
X94011096Y94064650D01*
X94908756Y94962311D01*
X94867449Y94900489D01*
X94848046Y94802944D01*
X94867449Y94705399D01*
X94922704Y94622704D01*
X95005399Y94567449D01*
X95078320Y94552944D01*
X95127568Y94552944D01*
X95200489Y94567449D01*
X95262304Y94608753D01*
X94364648Y93711097D01*
X94364649Y93711096D01*
X94622206Y93502532D01*
X94947456Y93291311D01*
X95293005Y93115245D01*
X95655063Y92976263D01*
X96029669Y92875888D01*
X96029676Y92875887D01*
X96412712Y92815220D01*
X96799999Y92794922D01*
X96800001Y92794922D01*
X97187287Y92815220D01*
X97570323Y92875887D01*
X97570330Y92875888D01*
X97944936Y92976263D01*
X98306994Y93115245D01*
X98652543Y93291311D01*
X98977783Y93502524D01*
X98977785Y93502525D01*
X99235349Y93711098D01*
X98337691Y94608756D01*
X98399511Y94567449D01*
X98472432Y94552944D01*
X98521680Y94552944D01*
X98594601Y94567449D01*
X98677296Y94622704D01*
X98732551Y94705399D01*
X98751954Y94802944D01*
X98732551Y94900489D01*
X98691244Y94962309D01*
X99588902Y94064651D01*
X99797475Y94322215D01*
X99797476Y94322217D01*
X99972005Y94590968D01*
X100025026Y94636471D01*
X100094231Y94646085D01*
X100157648Y94616758D01*
X100195142Y94557801D01*
X100200000Y94523433D01*
X100200000Y5476568D01*
X100180315Y5409529D01*
X100127511Y5363774D01*
X100058353Y5353830D01*
X99994797Y5382855D01*
X99972005Y5409033D01*
X99797468Y5677794D01*
X99588904Y5935351D01*
X99588903Y5935352D01*
X98691247Y5037696D01*
X98732551Y5099511D01*
X98751954Y5197056D01*
X98732551Y5294601D01*
X98677296Y5377296D01*
X98594601Y5432551D01*
X98521680Y5447056D01*
X98472432Y5447056D01*
X98399511Y5432551D01*
X98337690Y5391245D01*
X99235350Y6288904D01*
X99235350Y6288905D01*
X98977793Y6497469D01*
X98652543Y6708690D01*
X98306994Y6884756D01*
X97944936Y7023738D01*
X97570330Y7124113D01*
X97570323Y7124114D01*
X97187287Y7184781D01*
X96800001Y7205078D01*
X96799999Y7205078D01*
X96412712Y7184781D01*
X96029676Y7124114D01*
X96029669Y7124113D01*
X95655063Y7023738D01*
X95293005Y6884756D01*
X94947456Y6708690D01*
X94622206Y6497469D01*
X94364648Y6288905D01*
X94364648Y6288904D01*
X95262306Y5391246D01*
X95200489Y5432551D01*
X95127568Y5447056D01*
X95078320Y5447056D01*
X95005399Y5432551D01*
X94922704Y5377296D01*
X94867449Y5294601D01*
X94848046Y5197056D01*
X94867449Y5099511D01*
X94908753Y5037695D01*
X94011096Y5935352D01*
X94011095Y5935352D01*
X93802531Y5677794D01*
X93591310Y5352544D01*
X93415244Y5006995D01*
X93276262Y4644937D01*
X93175887Y4270331D01*
X93175886Y4270324D01*
X93115219Y3887288D01*
X93094922Y3500001D01*
X93094922Y3500000D01*
X93115219Y3112713D01*
X93175886Y2729677D01*
X93175887Y2729670D01*
X93276262Y2355064D01*
X93415244Y1993006D01*
X93591310Y1647457D01*
X93802531Y1322207D01*
X94011095Y1064650D01*
X94011096Y1064650D01*
X94908756Y1962311D01*
X94867449Y1900489D01*
X94848046Y1802944D01*
X94867449Y1705399D01*
X94922704Y1622704D01*
X95005399Y1567449D01*
X95078320Y1552944D01*
X95127568Y1552944D01*
X95200489Y1567449D01*
X95262304Y1608753D01*
X94364648Y711097D01*
X94364649Y711096D01*
X94622206Y502532D01*
X94890967Y327995D01*
X94936470Y274974D01*
X94946084Y205769D01*
X94916757Y142352D01*
X94857800Y104858D01*
X94823432Y100000D01*
X55324000Y100000D01*
X55256961Y119685D01*
X55211206Y172489D01*
X55200000Y224000D01*
X55200000Y3462841D01*
X58494500Y3462841D01*
X58502980Y3370631D01*
X58511230Y3326158D01*
X58536384Y3237054D01*
X58536384Y3237053D01*
X58536385Y3237050D01*
X58536386Y3237049D01*
X58605877Y3112713D01*
X58606582Y3111453D01*
X58648999Y3055937D01*
X58701925Y3004044D01*
X58751737Y2955204D01*
X59170076Y2648422D01*
X60174613Y1911760D01*
X60180970Y1907394D01*
X60187327Y1903027D01*
X60200258Y1894433D01*
X60331135Y1834662D01*
X60373907Y1822103D01*
X60398169Y1814978D01*
X60398174Y1814977D01*
X60398178Y1814976D01*
X60540594Y1794500D01*
X60540597Y1794500D01*
X88961776Y1794500D01*
X88993843Y1796540D01*
X89040958Y1802561D01*
X89061969Y1806616D01*
X89103994Y1814725D01*
X89236686Y1870354D01*
X89286040Y1899924D01*
X89292665Y1903047D01*
X89296618Y1906261D01*
X89296622Y1906263D01*
X89296623Y1906263D01*
X89408267Y1997022D01*
X90546032Y3229601D01*
X90560257Y3246426D01*
X90580195Y3272209D01*
X90605567Y3308147D01*
X90605568Y3308148D01*
X90665335Y3439018D01*
X90665338Y3439024D01*
X90685023Y3506063D01*
X90685024Y3506067D01*
X90705500Y3648483D01*
X90705500Y29265655D01*
X90687157Y29400592D01*
X90669486Y29464389D01*
X90615792Y29589530D01*
X90534302Y29725346D01*
X90069586Y30499873D01*
X90057979Y30514977D01*
X89999021Y30591699D01*
X89959732Y30632216D01*
X89870129Y30705567D01*
X89739252Y30765338D01*
X89720145Y30770949D01*
X89661368Y30808726D01*
X89632345Y30872283D01*
X89642292Y30941441D01*
X89663965Y30974029D01*
X90546032Y31929601D01*
X90560257Y31946426D01*
X90580195Y31972209D01*
X90605567Y32008147D01*
X90605568Y32008148D01*
X90665335Y32139018D01*
X90665338Y32139024D01*
X90685023Y32206063D01*
X90685024Y32206067D01*
X90705500Y32348483D01*
X90705500Y60662739D01*
X90704811Y60681387D01*
X90702774Y60708932D01*
X90698653Y60746000D01*
X90657452Y60883855D01*
X90657451Y60883858D01*
X90657449Y60883863D01*
X90628799Y60945804D01*
X90628396Y60946739D01*
X90628121Y60947270D01*
X90628119Y60947275D01*
X90549747Y61067937D01*
X89944359Y61759810D01*
X89905786Y61803894D01*
X89905786Y61803893D01*
X89880587Y61828909D01*
X89880586Y61828910D01*
X89840873Y61863151D01*
X89840864Y61863158D01*
X89784068Y61905567D01*
X89784065Y61905569D01*
X89784063Y61905570D01*
X89653197Y61965336D01*
X89653192Y61965338D01*
X89653191Y61965338D01*
X89630590Y61971975D01*
X89586157Y61985022D01*
X89586151Y61985024D01*
X89495583Y61998045D01*
X89443732Y62005500D01*
X75361057Y62005500D01*
X75361056Y62005500D01*
X75343757Y62004009D01*
X75274559Y61998045D01*
X75241112Y61992237D01*
X75232750Y61990784D01*
X75232751Y61990784D01*
X75148813Y61968640D01*
X75148809Y61968638D01*
X75021646Y61901350D01*
X75021639Y61901346D01*
X74956201Y61853684D01*
X74950469Y61845897D01*
X74862110Y61759823D01*
X74862098Y61759810D01*
X73918528Y60533169D01*
X73906347Y60515867D01*
X73894435Y60498165D01*
X73894431Y60498159D01*
X73834663Y60367289D01*
X73814978Y60300251D01*
X73814976Y60300246D01*
X73794500Y60157825D01*
X73794500Y45380356D01*
X73774815Y45313317D01*
X73753452Y45288188D01*
X73141390Y44737332D01*
X73078391Y44707116D01*
X73058438Y44705500D01*
X60632194Y44705500D01*
X60614104Y44704846D01*
X60595857Y44703855D01*
X60595852Y44703855D01*
X60455301Y44673146D01*
X60455296Y44673145D01*
X60455293Y44673144D01*
X60455291Y44673144D01*
X60455279Y44673140D01*
X60389856Y44648671D01*
X60389854Y44648670D01*
X60263639Y44579604D01*
X60263633Y44579601D01*
X58746296Y43441597D01*
X58746295Y43441596D01*
X58679468Y43381485D01*
X58649557Y43349329D01*
X58594432Y43278336D01*
X58534663Y43147463D01*
X58514978Y43080425D01*
X58514976Y43080420D01*
X58494500Y42937999D01*
X58494500Y32162841D01*
X58502980Y32070631D01*
X58511230Y32026158D01*
X58536384Y31937054D01*
X58536384Y31937053D01*
X58606582Y31811453D01*
X58648999Y31755937D01*
X58742266Y31664491D01*
X58751737Y31655204D01*
X59429300Y31158324D01*
X60174613Y30611760D01*
X60180970Y30607394D01*
X60187327Y30603027D01*
X60200258Y30594433D01*
X60331135Y30534662D01*
X60373907Y30522103D01*
X60398169Y30514978D01*
X60398174Y30514977D01*
X60398178Y30514976D01*
X60540594Y30494500D01*
X74320423Y30494500D01*
X74387462Y30474815D01*
X74433217Y30422011D01*
X74443161Y30352853D01*
X74414136Y30289297D01*
X74413102Y30288119D01*
X73946968Y29763719D01*
X73942081Y29757770D01*
X73934481Y29748519D01*
X73916907Y29725346D01*
X73894435Y29693195D01*
X73894434Y29693194D01*
X73834663Y29562319D01*
X73814978Y29495281D01*
X73814976Y29495276D01*
X73794500Y29352855D01*
X73794500Y16680356D01*
X73774815Y16613317D01*
X73753452Y16588188D01*
X73141390Y16037332D01*
X73078391Y16007116D01*
X73058438Y16005500D01*
X60632194Y16005500D01*
X60614104Y16004846D01*
X60595857Y16003855D01*
X60595852Y16003855D01*
X60455301Y15973146D01*
X60455296Y15973145D01*
X60455293Y15973144D01*
X60455291Y15973144D01*
X60455279Y15973140D01*
X60389856Y15948671D01*
X60389854Y15948670D01*
X60263639Y15879604D01*
X60263633Y15879601D01*
X58746296Y14741597D01*
X58746295Y14741596D01*
X58679468Y14681485D01*
X58649557Y14649329D01*
X58594432Y14578336D01*
X58534663Y14447463D01*
X58514978Y14380425D01*
X58514976Y14380420D01*
X58494500Y14237999D01*
X58494500Y3462841D01*
X55200000Y3462841D01*
X55200000Y26699999D01*
X56754390Y26699999D01*
X56774804Y26414567D01*
X56835628Y26134963D01*
X56935635Y25866834D01*
X57072770Y25615691D01*
X57072775Y25615683D01*
X57244254Y25386613D01*
X57244270Y25386595D01*
X57446594Y25184271D01*
X57446612Y25184255D01*
X57675682Y25012776D01*
X57675690Y25012771D01*
X57926833Y24875636D01*
X57926832Y24875636D01*
X57926836Y24875635D01*
X57926839Y24875633D01*
X58194954Y24775631D01*
X58194960Y24775630D01*
X58194962Y24775629D01*
X58474566Y24714805D01*
X58474568Y24714805D01*
X58474572Y24714804D01*
X58728220Y24696663D01*
X58759999Y24694390D01*
X58760000Y24694390D01*
X58760001Y24694390D01*
X58788595Y24696436D01*
X59045428Y24714804D01*
X59325046Y24775631D01*
X59593161Y24875633D01*
X59844315Y25012774D01*
X60073395Y25184261D01*
X60275739Y25386605D01*
X60447226Y25615685D01*
X60584367Y25866839D01*
X60684369Y26134954D01*
X60745196Y26414572D01*
X60765610Y26700000D01*
X60745196Y26985428D01*
X60684369Y27265046D01*
X60584367Y27533161D01*
X60447226Y27784315D01*
X60447224Y27784318D01*
X60275745Y28013388D01*
X60275729Y28013406D01*
X60073405Y28215730D01*
X60073387Y28215746D01*
X59844317Y28387225D01*
X59844309Y28387230D01*
X59593166Y28524365D01*
X59593167Y28524365D01*
X59485915Y28564368D01*
X59325046Y28624369D01*
X59325043Y28624370D01*
X59325037Y28624372D01*
X59045433Y28685196D01*
X58760001Y28705610D01*
X58759999Y28705610D01*
X58474566Y28685196D01*
X58194962Y28624372D01*
X57926833Y28524365D01*
X57675690Y28387230D01*
X57675682Y28387225D01*
X57446612Y28215746D01*
X57446594Y28215730D01*
X57244270Y28013406D01*
X57244254Y28013388D01*
X57072775Y27784318D01*
X57072770Y27784310D01*
X56935635Y27533167D01*
X56835628Y27265038D01*
X56774804Y26985434D01*
X56754390Y26700002D01*
X56754390Y26699999D01*
X55200000Y26699999D01*
X55200000Y55399999D01*
X56754390Y55399999D01*
X56774804Y55114567D01*
X56835628Y54834963D01*
X56935635Y54566834D01*
X57072770Y54315691D01*
X57072775Y54315683D01*
X57244254Y54086613D01*
X57244270Y54086595D01*
X57446594Y53884271D01*
X57446612Y53884255D01*
X57675682Y53712776D01*
X57675690Y53712771D01*
X57926833Y53575636D01*
X57926832Y53575636D01*
X57926836Y53575635D01*
X57926839Y53575633D01*
X58194954Y53475631D01*
X58194960Y53475630D01*
X58194962Y53475629D01*
X58474566Y53414805D01*
X58474568Y53414805D01*
X58474572Y53414804D01*
X58728220Y53396663D01*
X58759999Y53394390D01*
X58760000Y53394390D01*
X58760001Y53394390D01*
X58788595Y53396436D01*
X59045428Y53414804D01*
X59325046Y53475631D01*
X59593161Y53575633D01*
X59844315Y53712774D01*
X60073395Y53884261D01*
X60275739Y54086605D01*
X60447226Y54315685D01*
X60584367Y54566839D01*
X60684369Y54834954D01*
X60745196Y55114572D01*
X60765610Y55400000D01*
X60745196Y55685428D01*
X60684369Y55965046D01*
X60584367Y56233161D01*
X60447226Y56484315D01*
X60447224Y56484318D01*
X60275745Y56713388D01*
X60275729Y56713406D01*
X60073405Y56915730D01*
X60073387Y56915746D01*
X59844317Y57087225D01*
X59844309Y57087230D01*
X59593166Y57224365D01*
X59593167Y57224365D01*
X59485915Y57264368D01*
X59325046Y57324369D01*
X59325043Y57324370D01*
X59325037Y57324372D01*
X59045433Y57385196D01*
X58760001Y57405610D01*
X58759999Y57405610D01*
X58474566Y57385196D01*
X58194962Y57324372D01*
X57926833Y57224365D01*
X57675690Y57087230D01*
X57675682Y57087225D01*
X57446612Y56915746D01*
X57446594Y56915730D01*
X57244270Y56713406D01*
X57244254Y56713388D01*
X57072775Y56484318D01*
X57072770Y56484310D01*
X56935635Y56233167D01*
X56835628Y55965038D01*
X56774804Y55685434D01*
X56754390Y55400002D01*
X56754390Y55399999D01*
X55200000Y55399999D01*
X55200000Y69076000D01*
X55219685Y69143039D01*
X55272489Y69188794D01*
X55324000Y69200000D01*
X64357292Y69200000D01*
X64424331Y69180315D01*
X64470086Y69127511D01*
X64480030Y69058353D01*
X64451005Y68994797D01*
X64400625Y68959818D01*
X64357671Y68943798D01*
X64357664Y68943794D01*
X64242455Y68857548D01*
X64242452Y68857545D01*
X64156206Y68742336D01*
X64156202Y68742329D01*
X64105908Y68607483D01*
X64099501Y68547884D01*
X64099501Y68547877D01*
X64099500Y68547865D01*
X64099500Y66052130D01*
X64099501Y66052124D01*
X64105908Y65992517D01*
X64156202Y65857672D01*
X64156206Y65857665D01*
X64242452Y65742456D01*
X64242455Y65742453D01*
X64357664Y65656207D01*
X64357671Y65656203D01*
X64492517Y65605909D01*
X64492516Y65605909D01*
X64499444Y65605165D01*
X64552127Y65599500D01*
X67047872Y65599501D01*
X67107483Y65605909D01*
X67242331Y65656204D01*
X67357546Y65742454D01*
X67443796Y65857669D01*
X67494091Y65992517D01*
X67500500Y66052127D01*
X67500499Y68547872D01*
X67494091Y68607483D01*
X67443796Y68742331D01*
X67443795Y68742332D01*
X67443793Y68742336D01*
X67357547Y68857545D01*
X67357544Y68857548D01*
X67242335Y68943794D01*
X67242328Y68943798D01*
X67199375Y68959818D01*
X67143441Y69001689D01*
X67119024Y69067153D01*
X67133876Y69135426D01*
X67183281Y69184832D01*
X67242708Y69200000D01*
X83900000Y69200000D01*
X83900000Y73300000D01*
X55324000Y73300000D01*
X55256961Y73319685D01*
X55211206Y73372489D01*
X55200000Y73424000D01*
X55200000Y82739375D01*
X55219685Y82806414D01*
X55272489Y82852169D01*
X55341647Y82862113D01*
X55405203Y82833088D01*
X55408300Y82830311D01*
X55476783Y82766768D01*
X55687366Y82623195D01*
X55687371Y82623193D01*
X55687372Y82623192D01*
X55687373Y82623191D01*
X55809328Y82564462D01*
X55916992Y82512613D01*
X55916993Y82512613D01*
X55916996Y82512611D01*
X56160542Y82437487D01*
X56412565Y82399500D01*
X56667435Y82399500D01*
X56919458Y82437487D01*
X57163004Y82512611D01*
X57392634Y82623195D01*
X57603217Y82766768D01*
X57790050Y82940123D01*
X57948959Y83139388D01*
X58076393Y83360112D01*
X58169508Y83597363D01*
X58226222Y83845843D01*
X58245268Y84100000D01*
X58226222Y84354157D01*
X58169508Y84602637D01*
X58076393Y84839888D01*
X57948959Y85060612D01*
X57790050Y85259877D01*
X57603217Y85433232D01*
X57392634Y85576805D01*
X57392630Y85576807D01*
X57392627Y85576809D01*
X57392626Y85576810D01*
X57163006Y85687388D01*
X57163008Y85687388D01*
X56919466Y85762511D01*
X56919462Y85762512D01*
X56919458Y85762513D01*
X56798231Y85780786D01*
X56667440Y85800500D01*
X56667435Y85800500D01*
X56412565Y85800500D01*
X56412559Y85800500D01*
X56255609Y85776843D01*
X56160542Y85762513D01*
X56160539Y85762512D01*
X56160533Y85762511D01*
X55916992Y85687388D01*
X55687373Y85576810D01*
X55687372Y85576809D01*
X55476782Y85433232D01*
X55408341Y85369727D01*
X55345809Y85338559D01*
X55276352Y85346146D01*
X55222023Y85390080D01*
X55200072Y85456411D01*
X55200000Y85460626D01*
X55200000Y94175000D01*
X62194696Y94175000D01*
X62213898Y93808595D01*
X62271294Y93446212D01*
X62271294Y93446210D01*
X62366260Y93091794D01*
X62497746Y92749261D01*
X62664320Y92422344D01*
X62864147Y92114636D01*
X62864149Y92114634D01*
X63095051Y91829494D01*
X63354494Y91570051D01*
X63354498Y91570048D01*
X63639635Y91339148D01*
X63947343Y91139321D01*
X63947348Y91139318D01*
X64274264Y90972745D01*
X64616801Y90841258D01*
X64971206Y90746295D01*
X65333596Y90688898D01*
X65679734Y90670759D01*
X65699999Y90669696D01*
X65700000Y90669696D01*
X65700001Y90669696D01*
X65719203Y90670703D01*
X66066404Y90688898D01*
X66428794Y90746295D01*
X66783199Y90841258D01*
X67125736Y90972745D01*
X67452652Y91139318D01*
X67760366Y91339149D01*
X68045506Y91570051D01*
X68304949Y91829494D01*
X68535851Y92114634D01*
X68735682Y92422348D01*
X68902255Y92749264D01*
X69033742Y93091801D01*
X69128705Y93446206D01*
X69186102Y93808596D01*
X69205304Y94175000D01*
X69186102Y94541404D01*
X69128705Y94903794D01*
X69033742Y95258199D01*
X68902255Y95600736D01*
X68735682Y95927652D01*
X68686073Y96004044D01*
X68535852Y96235365D01*
X68321554Y96500000D01*
X68304949Y96520506D01*
X68045506Y96779949D01*
X67954613Y96853553D01*
X67760364Y97010853D01*
X67452656Y97210680D01*
X67125739Y97377254D01*
X66783206Y97508740D01*
X66783199Y97508742D01*
X66428794Y97603705D01*
X66428790Y97603706D01*
X66428789Y97603706D01*
X66066405Y97661102D01*
X65700001Y97680304D01*
X65699999Y97680304D01*
X65333594Y97661102D01*
X64971211Y97603706D01*
X64971209Y97603706D01*
X64616793Y97508740D01*
X64274260Y97377254D01*
X63947343Y97210680D01*
X63639635Y97010853D01*
X63354498Y96779953D01*
X63354490Y96779946D01*
X63095054Y96520510D01*
X63095047Y96520502D01*
X62864147Y96235365D01*
X62664320Y95927657D01*
X62497746Y95600740D01*
X62366260Y95258207D01*
X62271294Y94903791D01*
X62271294Y94903789D01*
X62213898Y94541406D01*
X62194696Y94175001D01*
X62194696Y94175000D01*
X55200000Y94175000D01*
X55200000Y99875500D01*
X55219685Y99942539D01*
X55272489Y99988294D01*
X55324000Y99999500D01*
X95001706Y99999500D01*
X95068745Y99979815D01*
G37*
%TD.AperFunction*%
%TA.AperFunction,Conductor*%
G36*
X95665130Y2365130D02*
G01*
X95855819Y2202267D01*
X95297135Y1643584D01*
X95338439Y1705399D01*
X95357842Y1802944D01*
X95338439Y1900489D01*
X95283184Y1983184D01*
X95200489Y2038439D01*
X95127568Y2052944D01*
X95078320Y2052944D01*
X95005399Y2038439D01*
X94943577Y1997132D01*
X95502266Y2555820D01*
X95665130Y2365130D01*
G37*
%TD.AperFunction*%
%TA.AperFunction,Conductor*%
G36*
X95855819Y4797734D02*
G01*
X95665130Y4634870D01*
X95502266Y4444182D01*
X94943582Y5002866D01*
X95005399Y4961561D01*
X95078320Y4947056D01*
X95127568Y4947056D01*
X95200489Y4961561D01*
X95283184Y5016816D01*
X95338439Y5099511D01*
X95357842Y5197056D01*
X95338439Y5294601D01*
X95297133Y5356419D01*
X95855819Y4797734D01*
G37*
%TD.AperFunction*%
%TA.AperFunction,Conductor*%
G36*
X98261561Y5294601D02*
G01*
X98242158Y5197056D01*
X98261561Y5099511D01*
X98316816Y5016816D01*
X98399511Y4961561D01*
X98472432Y4947056D01*
X98521680Y4947056D01*
X98594601Y4961561D01*
X98656416Y5002865D01*
X98097733Y4444182D01*
X97934870Y4634870D01*
X97744180Y4797734D01*
X98302867Y5356422D01*
X98261561Y5294601D01*
G37*
%TD.AperFunction*%
%TA.AperFunction,Conductor*%
G36*
X98656420Y94997133D02*
G01*
X98594601Y95038439D01*
X98521680Y95052944D01*
X98472432Y95052944D01*
X98399511Y95038439D01*
X98316816Y94983184D01*
X98261561Y94900489D01*
X98242158Y94802944D01*
X98261561Y94705399D01*
X98302867Y94643580D01*
X97744180Y95202267D01*
X97934870Y95365130D01*
X98097733Y95555820D01*
X98656420Y94997133D01*
G37*
%TD.AperFunction*%
%TA.AperFunction,Conductor*%
G36*
X95665130Y95365130D02*
G01*
X95855819Y95202267D01*
X95297135Y94643584D01*
X95338439Y94705399D01*
X95357842Y94802944D01*
X95338439Y94900489D01*
X95283184Y94983184D01*
X95200489Y95038439D01*
X95127568Y95052944D01*
X95078320Y95052944D01*
X95005399Y95038439D01*
X94943577Y94997132D01*
X95502266Y95555820D01*
X95665130Y95365130D01*
G37*
%TD.AperFunction*%
%TA.AperFunction,Conductor*%
G36*
X95855819Y97797734D02*
G01*
X95665130Y97634870D01*
X95502266Y97444182D01*
X94943582Y98002866D01*
X95005399Y97961561D01*
X95078320Y97947056D01*
X95127568Y97947056D01*
X95200489Y97961561D01*
X95283184Y98016816D01*
X95338439Y98099511D01*
X95357842Y98197056D01*
X95338439Y98294601D01*
X95297133Y98356419D01*
X95855819Y97797734D01*
G37*
%TD.AperFunction*%
%TD*%
%TA.AperFunction,Conductor*%
%TO.N,/PWR_Cutoff_Relay Sheet/Relay_SW_OUT*%
G36*
X89510771Y61480315D02*
G01*
X89537051Y61457656D01*
X89542347Y61451604D01*
X90169320Y60735063D01*
X90198651Y60671648D01*
X90200000Y60653408D01*
X90200000Y32348483D01*
X90180315Y32281444D01*
X90167116Y32264376D01*
X89036824Y31039893D01*
X88976888Y31003984D01*
X88945708Y31000000D01*
X60540594Y31000000D01*
X60473555Y31019685D01*
X60467265Y31024006D01*
X59050671Y32062842D01*
X59008251Y32118360D01*
X59000000Y32162836D01*
X59000000Y42938000D01*
X59019685Y43005039D01*
X59049600Y43037200D01*
X60566933Y44175200D01*
X60632375Y44199676D01*
X60641333Y44200000D01*
X73300000Y44200000D01*
X74300000Y45100000D01*
X74300000Y60157826D01*
X74319685Y60224865D01*
X74325715Y60233430D01*
X75262772Y61451604D01*
X75319249Y61492739D01*
X75361057Y61500000D01*
X89443732Y61500000D01*
X89510771Y61480315D01*
G37*
%TD.AperFunction*%
%TD*%
%TA.AperFunction,Conductor*%
%TO.N,/PWR_Cutoff_Relay Sheet1/Relay_SW_OUT*%
G36*
X89596832Y30280315D02*
G01*
X89636121Y30239798D01*
X90168287Y29352856D01*
X90182329Y29329452D01*
X90200000Y29265655D01*
X90200000Y3648483D01*
X90180315Y3581444D01*
X90167116Y3564376D01*
X89036824Y2339893D01*
X88976888Y2303984D01*
X88945708Y2300000D01*
X60540594Y2300000D01*
X60473555Y2319685D01*
X60467265Y2324006D01*
X59050671Y3362842D01*
X59008251Y3418360D01*
X59000000Y3462836D01*
X59000000Y14238000D01*
X59019685Y14305039D01*
X59049600Y14337200D01*
X60566933Y15475200D01*
X60632375Y15499676D01*
X60641333Y15500000D01*
X73300000Y15500000D01*
X74300000Y16400000D01*
X74300000Y29352856D01*
X74319685Y29419895D01*
X74331316Y29435232D01*
X75063005Y30258382D01*
X75122256Y30295409D01*
X75155684Y30300000D01*
X89529793Y30300000D01*
X89596832Y30280315D01*
G37*
%TD.AperFunction*%
%TD*%
%TA.AperFunction,Conductor*%
%TO.N,GND*%
G36*
X5580507Y17009844D02*
G01*
X5540000Y16871889D01*
X5540000Y16728111D01*
X5580507Y16590156D01*
X5606314Y16550000D01*
X3933686Y16550000D01*
X3959493Y16590156D01*
X4000000Y16728111D01*
X4000000Y16871889D01*
X3959493Y17009844D01*
X3933686Y17050000D01*
X5606314Y17050000D01*
X5580507Y17009844D01*
G37*
%TD.AperFunction*%
%TA.AperFunction,Conductor*%
G36*
X8120507Y17009844D02*
G01*
X8080000Y16871889D01*
X8080000Y16728111D01*
X8120507Y16590156D01*
X8146314Y16550000D01*
X6473686Y16550000D01*
X6499493Y16590156D01*
X6540000Y16728111D01*
X6540000Y16871889D01*
X6499493Y17009844D01*
X6473686Y17050000D01*
X8146314Y17050000D01*
X8120507Y17009844D01*
G37*
%TD.AperFunction*%
%TA.AperFunction,Conductor*%
G36*
X10660507Y17009844D02*
G01*
X10620000Y16871889D01*
X10620000Y16728111D01*
X10660507Y16590156D01*
X10686314Y16550000D01*
X9013686Y16550000D01*
X9039493Y16590156D01*
X9080000Y16728111D01*
X9080000Y16871889D01*
X9039493Y17009844D01*
X9013686Y17050000D01*
X10686314Y17050000D01*
X10660507Y17009844D01*
G37*
%TD.AperFunction*%
%TA.AperFunction,Conductor*%
G36*
X18280507Y17009844D02*
G01*
X18240000Y16871889D01*
X18240000Y16728111D01*
X18280507Y16590156D01*
X18306314Y16550000D01*
X16633686Y16550000D01*
X16659493Y16590156D01*
X16700000Y16728111D01*
X16700000Y16871889D01*
X16659493Y17009844D01*
X16633686Y17050000D01*
X18306314Y17050000D01*
X18280507Y17009844D01*
G37*
%TD.AperFunction*%
%TA.AperFunction,Conductor*%
G36*
X20820507Y17009844D02*
G01*
X20780000Y16871889D01*
X20780000Y16728111D01*
X20820507Y16590156D01*
X20846314Y16550000D01*
X19173686Y16550000D01*
X19199493Y16590156D01*
X19240000Y16728111D01*
X19240000Y16871889D01*
X19199493Y17009844D01*
X19173686Y17050000D01*
X20846314Y17050000D01*
X20820507Y17009844D01*
G37*
%TD.AperFunction*%
%TA.AperFunction,Conductor*%
G36*
X44843039Y99979815D02*
G01*
X44888794Y99927011D01*
X44900000Y99875500D01*
X44900000Y69022072D01*
X44880315Y68955033D01*
X44848887Y68921755D01*
X44781628Y68872888D01*
X44781623Y68872884D01*
X44654966Y68732215D01*
X44560321Y68568285D01*
X44560318Y68568278D01*
X44501827Y68388260D01*
X44501826Y68388256D01*
X44482040Y68200000D01*
X44501826Y68011744D01*
X44501827Y68011741D01*
X44560318Y67831723D01*
X44560321Y67831716D01*
X44654967Y67667784D01*
X44738522Y67574987D01*
X44781629Y67527112D01*
X44781633Y67527108D01*
X44830212Y67491814D01*
X44848884Y67478249D01*
X44891551Y67422920D01*
X44900000Y67377930D01*
X44900000Y67324500D01*
X44880315Y67257461D01*
X44827511Y67211706D01*
X44776000Y67200500D01*
X44643354Y67200500D01*
X44610897Y67193602D01*
X44458197Y67161145D01*
X44458192Y67161143D01*
X44285270Y67084152D01*
X44285265Y67084149D01*
X44132129Y66972889D01*
X44005466Y66832215D01*
X43910821Y66668285D01*
X43910818Y66668278D01*
X43852327Y66488260D01*
X43852326Y66488256D01*
X43832540Y66300000D01*
X43852326Y66111744D01*
X43852327Y66111741D01*
X43910818Y65931723D01*
X43910821Y65931716D01*
X44005467Y65767784D01*
X44123674Y65636502D01*
X44132129Y65627112D01*
X44285265Y65515852D01*
X44285270Y65515849D01*
X44458192Y65438858D01*
X44458197Y65438856D01*
X44643354Y65399500D01*
X44643355Y65399500D01*
X44649711Y65398149D01*
X44649337Y65396393D01*
X44705859Y65373144D01*
X44715972Y65364082D01*
X44863681Y65216373D01*
X44897166Y65155050D01*
X44900000Y65128692D01*
X44900000Y53580663D01*
X44880315Y53513624D01*
X44863681Y53492982D01*
X44100483Y52729785D01*
X44087910Y52719711D01*
X44088065Y52719524D01*
X44082059Y52714556D01*
X44057434Y52688333D01*
X44032809Y52662110D01*
X44021949Y52651250D01*
X44011088Y52640389D01*
X44011078Y52640377D01*
X44006587Y52634589D01*
X44002801Y52630157D01*
X43969552Y52594748D01*
X43959322Y52576141D01*
X43948646Y52559890D01*
X43935640Y52543122D01*
X43935636Y52543116D01*
X43916348Y52498543D01*
X43913777Y52493296D01*
X43890372Y52450724D01*
X43890372Y52450723D01*
X43885091Y52430155D01*
X43878791Y52411753D01*
X43870364Y52392281D01*
X43862766Y52344307D01*
X43861581Y52338584D01*
X43849500Y52291536D01*
X43849500Y52270310D01*
X43847973Y52250910D01*
X43844653Y52229951D01*
X43849225Y52181587D01*
X43849500Y52175748D01*
X43849500Y41176317D01*
X43847732Y41160306D01*
X43847974Y41160283D01*
X43847240Y41152517D01*
X43849500Y41080608D01*
X43849500Y41049891D01*
X43849501Y41049871D01*
X43850418Y41042605D01*
X43850876Y41036787D01*
X43852402Y40988244D01*
X43852403Y40988241D01*
X43858323Y40967863D01*
X43862268Y40948815D01*
X43864928Y40927757D01*
X43864931Y40927747D01*
X43882813Y40882581D01*
X43884705Y40877053D01*
X43898254Y40830416D01*
X43898255Y40830414D01*
X43909060Y40812145D01*
X43917617Y40794677D01*
X43923226Y40780511D01*
X43925432Y40774939D01*
X43953983Y40735641D01*
X43957188Y40730762D01*
X43981919Y40688946D01*
X43981923Y40688942D01*
X43996925Y40673940D01*
X44009563Y40659142D01*
X44022033Y40641978D01*
X44022036Y40641975D01*
X44022037Y40641974D01*
X44059476Y40611002D01*
X44063776Y40607089D01*
X44531339Y40139526D01*
X44863681Y39807184D01*
X44897166Y39745861D01*
X44900000Y39719503D01*
X44900000Y24168880D01*
X44880315Y24101841D01*
X44872102Y24090519D01*
X44760304Y23953410D01*
X44666089Y23773046D01*
X44610114Y23577417D01*
X44610113Y23577414D01*
X44599500Y23458035D01*
X44599500Y23458034D01*
X44599501Y22341968D01*
X44599501Y22341967D01*
X44610113Y22222585D01*
X44666089Y22026955D01*
X44666090Y22026952D01*
X44666091Y22026951D01*
X44760302Y21846593D01*
X44760304Y21846591D01*
X44872102Y21709481D01*
X44899211Y21645085D01*
X44900000Y21631120D01*
X44900000Y13643586D01*
X44880315Y13576547D01*
X44879809Y13575765D01*
X44775826Y13416607D01*
X44675936Y13188882D01*
X44614892Y12947825D01*
X44614890Y12947813D01*
X44594357Y12700006D01*
X44594357Y12699995D01*
X44614890Y12452188D01*
X44614892Y12452176D01*
X44675936Y12211119D01*
X44775826Y11983394D01*
X44879809Y11824236D01*
X44899996Y11757347D01*
X44900000Y11756415D01*
X44900000Y124500D01*
X44880315Y57461D01*
X44827511Y11706D01*
X44776000Y500D01*
X5598294Y500D01*
X5531255Y20185D01*
X5485500Y72989D01*
X5475556Y142147D01*
X5504581Y205703D01*
X5541999Y234985D01*
X5652543Y291311D01*
X5977783Y502524D01*
X5977785Y502525D01*
X6235349Y711098D01*
X5337691Y1608756D01*
X5399511Y1567449D01*
X5472432Y1552944D01*
X5521680Y1552944D01*
X5594601Y1567449D01*
X5677296Y1622704D01*
X5732551Y1705399D01*
X5751954Y1802944D01*
X5732551Y1900489D01*
X5691244Y1962309D01*
X6588902Y1064651D01*
X6797475Y1322215D01*
X6797476Y1322217D01*
X7008689Y1647457D01*
X7184755Y1993006D01*
X7323737Y2355064D01*
X7424112Y2729670D01*
X7424113Y2729677D01*
X7484780Y3112713D01*
X7495906Y3324999D01*
X11099500Y3324999D01*
X11099501Y3324982D01*
X11110000Y3222204D01*
X11110001Y3222201D01*
X11165185Y3055669D01*
X11165187Y3055664D01*
X11200069Y2999112D01*
X11257288Y2906344D01*
X11381344Y2782288D01*
X11530666Y2690186D01*
X11697203Y2635001D01*
X11799991Y2624500D01*
X13100008Y2624501D01*
X13202797Y2635001D01*
X13369334Y2690186D01*
X13518656Y2782288D01*
X13642712Y2906344D01*
X13734814Y3055666D01*
X13734814Y3055669D01*
X13738178Y3061121D01*
X13790126Y3107846D01*
X13859088Y3119069D01*
X13923170Y3091226D01*
X13931398Y3083706D01*
X14078599Y2936505D01*
X14121675Y2906343D01*
X14272165Y2800968D01*
X14272167Y2800967D01*
X14272170Y2800965D01*
X14486337Y2701097D01*
X14714592Y2639937D01*
X14891034Y2624500D01*
X14949999Y2619341D01*
X14950000Y2619341D01*
X14950001Y2619341D01*
X15008966Y2624500D01*
X15185408Y2639937D01*
X15413663Y2701097D01*
X15627829Y2800965D01*
X15821401Y2936505D01*
X15988495Y3103599D01*
X16124035Y3297171D01*
X16223903Y3511337D01*
X16285063Y3739592D01*
X16300500Y3916034D01*
X16300500Y4283966D01*
X16285063Y4460408D01*
X16223903Y4688663D01*
X16124035Y4902829D01*
X16105105Y4929865D01*
X15988494Y5096403D01*
X15821402Y5263494D01*
X15821395Y5263499D01*
X15627834Y5399033D01*
X15627830Y5399035D01*
X15555955Y5432551D01*
X15413663Y5498903D01*
X15413659Y5498904D01*
X15413655Y5498906D01*
X15185413Y5560062D01*
X15185403Y5560064D01*
X14950001Y5580659D01*
X14949999Y5580659D01*
X14714596Y5560064D01*
X14714586Y5560062D01*
X14486344Y5498906D01*
X14486335Y5498902D01*
X14272171Y5399036D01*
X14272169Y5399035D01*
X14078597Y5263495D01*
X13931398Y5116295D01*
X13870075Y5082810D01*
X13800383Y5087794D01*
X13744450Y5129666D01*
X13738178Y5138880D01*
X13642712Y5293656D01*
X13518657Y5417711D01*
X13518656Y5417712D01*
X13425888Y5474931D01*
X13369336Y5509813D01*
X13369331Y5509815D01*
X13367862Y5510302D01*
X13202797Y5564999D01*
X13202795Y5565000D01*
X13100010Y5575500D01*
X11799998Y5575500D01*
X11799981Y5575499D01*
X11697203Y5565000D01*
X11697200Y5564999D01*
X11530668Y5509815D01*
X11530663Y5509813D01*
X11381342Y5417711D01*
X11257289Y5293658D01*
X11165187Y5144337D01*
X11165185Y5144332D01*
X11146450Y5087794D01*
X11110001Y4977797D01*
X11110001Y4977796D01*
X11110000Y4977796D01*
X11099500Y4875017D01*
X11099500Y3324999D01*
X7495906Y3324999D01*
X7505078Y3500000D01*
X7505078Y3500001D01*
X7484780Y3887288D01*
X7424113Y4270324D01*
X7424112Y4270331D01*
X7323737Y4644937D01*
X7184755Y5006995D01*
X7008689Y5352544D01*
X6797468Y5677794D01*
X6588904Y5935351D01*
X6588903Y5935352D01*
X5691247Y5037697D01*
X5732551Y5099511D01*
X5751954Y5197056D01*
X5732551Y5294601D01*
X5677296Y5377296D01*
X5594601Y5432551D01*
X5521680Y5447056D01*
X5472432Y5447056D01*
X5399511Y5432551D01*
X5337690Y5391245D01*
X6235350Y6288904D01*
X6235350Y6288905D01*
X5977793Y6497469D01*
X5652543Y6708690D01*
X5306994Y6884756D01*
X4944936Y7023738D01*
X4570330Y7124113D01*
X4570323Y7124114D01*
X4187287Y7184781D01*
X3800001Y7205078D01*
X3799999Y7205078D01*
X3412712Y7184781D01*
X3029676Y7124114D01*
X3029669Y7124113D01*
X2655063Y7023738D01*
X2293005Y6884756D01*
X1947456Y6708690D01*
X1622206Y6497469D01*
X1364648Y6288905D01*
X1364648Y6288904D01*
X2262306Y5391246D01*
X2200489Y5432551D01*
X2127568Y5447056D01*
X2078320Y5447056D01*
X2005399Y5432551D01*
X1922704Y5377296D01*
X1867449Y5294601D01*
X1848046Y5197056D01*
X1867449Y5099511D01*
X1908753Y5037694D01*
X1011096Y5935352D01*
X1011095Y5935352D01*
X802531Y5677794D01*
X591310Y5352544D01*
X534985Y5241999D01*
X487010Y5191203D01*
X419189Y5174408D01*
X353055Y5196945D01*
X309603Y5251660D01*
X300500Y5298294D01*
X300500Y9202130D01*
X11074500Y9202130D01*
X11074501Y9202124D01*
X11080908Y9142517D01*
X11131202Y9007672D01*
X11131206Y9007665D01*
X11217452Y8892456D01*
X11217455Y8892453D01*
X11332664Y8806207D01*
X11332671Y8806203D01*
X11467517Y8755909D01*
X11467516Y8755909D01*
X11474444Y8755165D01*
X11527127Y8749500D01*
X13322872Y8749501D01*
X13382483Y8755909D01*
X13517331Y8806204D01*
X13632546Y8892454D01*
X13718796Y9007669D01*
X13767810Y9139084D01*
X13809681Y9195016D01*
X13875145Y9219434D01*
X13943418Y9204583D01*
X13971673Y9183431D01*
X14093599Y9061505D01*
X14190384Y8993735D01*
X14287165Y8925968D01*
X14287167Y8925967D01*
X14287170Y8925965D01*
X14501337Y8826097D01*
X14729592Y8764937D01*
X14906034Y8749500D01*
X14964999Y8744341D01*
X14965000Y8744341D01*
X14965001Y8744341D01*
X15023966Y8749500D01*
X15200408Y8764937D01*
X15428663Y8826097D01*
X15642830Y8925965D01*
X15836401Y9061505D01*
X16003495Y9228599D01*
X16139035Y9422170D01*
X16238903Y9636337D01*
X16300063Y9864592D01*
X16320659Y10100000D01*
X16300063Y10335408D01*
X16238903Y10563663D01*
X16139035Y10777829D01*
X16003495Y10971401D01*
X16003494Y10971403D01*
X15836402Y11138494D01*
X15836395Y11138499D01*
X15642834Y11274033D01*
X15642830Y11274035D01*
X15642828Y11274036D01*
X15428663Y11373903D01*
X15428659Y11373904D01*
X15428655Y11373906D01*
X15200413Y11435062D01*
X15200403Y11435064D01*
X14965001Y11455659D01*
X14964999Y11455659D01*
X14729596Y11435064D01*
X14729586Y11435062D01*
X14501344Y11373906D01*
X14501335Y11373902D01*
X14287171Y11274036D01*
X14287169Y11274035D01*
X14093600Y11138497D01*
X13971673Y11016570D01*
X13910350Y10983086D01*
X13840658Y10988070D01*
X13784725Y11029942D01*
X13767810Y11060919D01*
X13718797Y11192329D01*
X13718793Y11192336D01*
X13632547Y11307545D01*
X13632544Y11307548D01*
X13517335Y11393794D01*
X13517328Y11393798D01*
X13382482Y11444092D01*
X13382483Y11444092D01*
X13322883Y11450499D01*
X13322881Y11450500D01*
X13322873Y11450500D01*
X13322864Y11450500D01*
X11527129Y11450500D01*
X11527123Y11450499D01*
X11467516Y11444092D01*
X11332671Y11393798D01*
X11332664Y11393794D01*
X11217455Y11307548D01*
X11217452Y11307545D01*
X11131206Y11192336D01*
X11131202Y11192329D01*
X11080908Y11057483D01*
X11074501Y10997884D01*
X11074500Y10997865D01*
X11074500Y9202130D01*
X300500Y9202130D01*
X300500Y15902156D01*
X2150000Y15902156D01*
X2156401Y15842628D01*
X2156403Y15842621D01*
X2206645Y15707914D01*
X2206649Y15707907D01*
X2292809Y15592813D01*
X2292812Y15592810D01*
X2407906Y15506650D01*
X2407913Y15506646D01*
X2542620Y15456404D01*
X2542627Y15456402D01*
X2602155Y15450001D01*
X2602172Y15450000D01*
X3250000Y15450000D01*
X3250000Y16364499D01*
X3357685Y16315320D01*
X3464237Y16300000D01*
X3535763Y16300000D01*
X3642315Y16315320D01*
X3750000Y16364499D01*
X3750000Y15450000D01*
X4397828Y15450000D01*
X4397844Y15450001D01*
X4457372Y15456402D01*
X4457379Y15456404D01*
X4592086Y15506646D01*
X4592093Y15506650D01*
X4707187Y15592810D01*
X4707190Y15592813D01*
X4793350Y15707907D01*
X4793354Y15707914D01*
X4842614Y15839987D01*
X4884485Y15895921D01*
X4949949Y15920338D01*
X5018222Y15905487D01*
X5046477Y15884335D01*
X5168917Y15761895D01*
X5362421Y15626400D01*
X5576507Y15526571D01*
X5576516Y15526567D01*
X5790000Y15469366D01*
X5790000Y16364499D01*
X5897685Y16315320D01*
X6004237Y16300000D01*
X6075763Y16300000D01*
X6182315Y16315320D01*
X6290000Y16364499D01*
X6290000Y15469367D01*
X6503483Y15526567D01*
X6503492Y15526571D01*
X6717578Y15626400D01*
X6911082Y15761895D01*
X7078105Y15928918D01*
X7208425Y16115032D01*
X7263002Y16158656D01*
X7332501Y16165849D01*
X7394855Y16134327D01*
X7411575Y16115032D01*
X7541894Y15928918D01*
X7708917Y15761895D01*
X7902421Y15626400D01*
X8116507Y15526571D01*
X8116516Y15526567D01*
X8330000Y15469366D01*
X8330000Y16364499D01*
X8437685Y16315320D01*
X8544237Y16300000D01*
X8615763Y16300000D01*
X8722315Y16315320D01*
X8830000Y16364499D01*
X8830000Y15469367D01*
X9043483Y15526567D01*
X9043492Y15526571D01*
X9257578Y15626400D01*
X9451082Y15761895D01*
X9618105Y15928918D01*
X9748425Y16115032D01*
X9803002Y16158656D01*
X9872501Y16165849D01*
X9934855Y16134327D01*
X9951575Y16115032D01*
X10081894Y15928918D01*
X10248917Y15761895D01*
X10442421Y15626400D01*
X10656507Y15526571D01*
X10656516Y15526567D01*
X10870000Y15469366D01*
X10870000Y16364499D01*
X10977685Y16315320D01*
X11084237Y16300000D01*
X11155763Y16300000D01*
X11262315Y16315320D01*
X11370000Y16364499D01*
X11370000Y15469366D01*
X11583483Y15526567D01*
X11583492Y15526571D01*
X11797578Y15626400D01*
X11991082Y15761895D01*
X12158105Y15928918D01*
X12288119Y16114595D01*
X12342696Y16158219D01*
X12412195Y16165412D01*
X12474549Y16133890D01*
X12491269Y16114595D01*
X12621505Y15928599D01*
X12788599Y15761505D01*
X12865135Y15707914D01*
X12982165Y15625968D01*
X12982167Y15625967D01*
X12982170Y15625965D01*
X13196337Y15526097D01*
X13424592Y15464937D01*
X13595319Y15450000D01*
X13659999Y15444341D01*
X13660000Y15444341D01*
X13660001Y15444341D01*
X13724681Y15450000D01*
X13895408Y15464937D01*
X14123663Y15526097D01*
X14337830Y15625965D01*
X14531401Y15761505D01*
X14698495Y15928599D01*
X14828730Y16114595D01*
X14883307Y16158219D01*
X14952805Y16165413D01*
X15015160Y16133890D01*
X15031879Y16114595D01*
X15161890Y15928922D01*
X15328917Y15761895D01*
X15522421Y15626400D01*
X15736507Y15526571D01*
X15736516Y15526567D01*
X15950000Y15469366D01*
X15950000Y16364499D01*
X16057685Y16315320D01*
X16164237Y16300000D01*
X16235763Y16300000D01*
X16342315Y16315320D01*
X16450000Y16364499D01*
X16450000Y15469367D01*
X16663483Y15526567D01*
X16663492Y15526571D01*
X16877578Y15626400D01*
X17071082Y15761895D01*
X17238105Y15928918D01*
X17368425Y16115032D01*
X17423002Y16158656D01*
X17492501Y16165849D01*
X17554855Y16134327D01*
X17571575Y16115032D01*
X17701894Y15928918D01*
X17868917Y15761895D01*
X18062421Y15626400D01*
X18276507Y15526571D01*
X18276516Y15526567D01*
X18490000Y15469366D01*
X18490000Y16364499D01*
X18597685Y16315320D01*
X18704237Y16300000D01*
X18775763Y16300000D01*
X18882315Y16315320D01*
X18990000Y16364499D01*
X18990000Y15469366D01*
X19203483Y15526567D01*
X19203492Y15526571D01*
X19417578Y15626400D01*
X19611082Y15761895D01*
X19778105Y15928918D01*
X19908425Y16115032D01*
X19963002Y16158656D01*
X20032501Y16165849D01*
X20094855Y16134327D01*
X20111575Y16115032D01*
X20241894Y15928918D01*
X20408917Y15761895D01*
X20602421Y15626400D01*
X20816507Y15526571D01*
X20816516Y15526567D01*
X21030000Y15469366D01*
X21030000Y16364499D01*
X21137685Y16315320D01*
X21244237Y16300000D01*
X21315763Y16300000D01*
X21422315Y16315320D01*
X21530000Y16364499D01*
X21530000Y15469367D01*
X21743483Y15526567D01*
X21743492Y15526571D01*
X21957578Y15626400D01*
X22151082Y15761895D01*
X22318105Y15928918D01*
X22453600Y16122422D01*
X22553429Y16336508D01*
X22553432Y16336514D01*
X22610636Y16550000D01*
X21713686Y16550000D01*
X21739493Y16590156D01*
X21780000Y16728111D01*
X21780000Y16871889D01*
X21739493Y17009844D01*
X21713686Y17050000D01*
X22610636Y17050000D01*
X22610635Y17050001D01*
X22553432Y17263487D01*
X22553429Y17263493D01*
X22453600Y17477578D01*
X22453599Y17477580D01*
X22318113Y17671074D01*
X22318108Y17671080D01*
X22151082Y17838106D01*
X21957578Y17973601D01*
X21743492Y18073430D01*
X21743486Y18073433D01*
X21530000Y18130636D01*
X21530000Y17235502D01*
X21422315Y17284680D01*
X21315763Y17300000D01*
X21244237Y17300000D01*
X21137685Y17284680D01*
X21030000Y17235502D01*
X21030000Y18130636D01*
X21029999Y18130636D01*
X20816513Y18073433D01*
X20816507Y18073430D01*
X20602422Y17973601D01*
X20602420Y17973600D01*
X20408926Y17838114D01*
X20408920Y17838109D01*
X20241891Y17671080D01*
X20241890Y17671078D01*
X20111575Y17484969D01*
X20056998Y17441345D01*
X19987499Y17434152D01*
X19925145Y17465674D01*
X19908425Y17484969D01*
X19778109Y17671078D01*
X19778108Y17671080D01*
X19611082Y17838106D01*
X19417578Y17973601D01*
X19203492Y18073430D01*
X19203486Y18073433D01*
X18990000Y18130636D01*
X18990000Y17235502D01*
X18882315Y17284680D01*
X18775763Y17300000D01*
X18704237Y17300000D01*
X18597685Y17284680D01*
X18490000Y17235502D01*
X18490000Y18130636D01*
X18489999Y18130636D01*
X18276513Y18073433D01*
X18276507Y18073430D01*
X18062422Y17973601D01*
X18062420Y17973600D01*
X17868926Y17838114D01*
X17868920Y17838109D01*
X17701891Y17671080D01*
X17701890Y17671078D01*
X17571575Y17484969D01*
X17516998Y17441345D01*
X17447499Y17434152D01*
X17385145Y17465674D01*
X17368425Y17484969D01*
X17238109Y17671078D01*
X17238108Y17671080D01*
X17071082Y17838106D01*
X16877578Y17973601D01*
X16663492Y18073430D01*
X16663486Y18073433D01*
X16450000Y18130636D01*
X16450000Y17235502D01*
X16342315Y17284680D01*
X16235763Y17300000D01*
X16164237Y17300000D01*
X16057685Y17284680D01*
X15950000Y17235502D01*
X15950000Y18130636D01*
X15949999Y18130636D01*
X15736513Y18073433D01*
X15736507Y18073430D01*
X15522422Y17973601D01*
X15522420Y17973600D01*
X15328926Y17838114D01*
X15328920Y17838109D01*
X15161891Y17671080D01*
X15161890Y17671078D01*
X15031880Y17485405D01*
X14977303Y17441781D01*
X14907804Y17434588D01*
X14845450Y17466110D01*
X14828730Y17485406D01*
X14698494Y17671403D01*
X14531402Y17838494D01*
X14531395Y17838499D01*
X14337834Y17974033D01*
X14337830Y17974035D01*
X14266727Y18007191D01*
X14123663Y18073903D01*
X14123659Y18073904D01*
X14123655Y18073906D01*
X13895413Y18135062D01*
X13895403Y18135064D01*
X13660001Y18155659D01*
X13659999Y18155659D01*
X13424596Y18135064D01*
X13424586Y18135062D01*
X13196344Y18073906D01*
X13196335Y18073902D01*
X12982171Y17974036D01*
X12982169Y17974035D01*
X12788597Y17838495D01*
X12621508Y17671406D01*
X12491269Y17485405D01*
X12436692Y17441781D01*
X12367193Y17434588D01*
X12304839Y17466110D01*
X12288119Y17485406D01*
X12158113Y17671074D01*
X12158108Y17671080D01*
X11991082Y17838106D01*
X11797578Y17973601D01*
X11583492Y18073430D01*
X11583486Y18073433D01*
X11370000Y18130636D01*
X11370000Y17235502D01*
X11262315Y17284680D01*
X11155763Y17300000D01*
X11084237Y17300000D01*
X10977685Y17284680D01*
X10870000Y17235502D01*
X10870000Y18130636D01*
X10869999Y18130636D01*
X10656513Y18073433D01*
X10656507Y18073430D01*
X10442422Y17973601D01*
X10442420Y17973600D01*
X10248926Y17838114D01*
X10248920Y17838109D01*
X10081891Y17671080D01*
X10081890Y17671078D01*
X9951575Y17484969D01*
X9896998Y17441345D01*
X9827499Y17434152D01*
X9765145Y17465674D01*
X9748425Y17484969D01*
X9618109Y17671078D01*
X9618108Y17671080D01*
X9451082Y17838106D01*
X9257578Y17973601D01*
X9043492Y18073430D01*
X9043486Y18073433D01*
X8830000Y18130636D01*
X8830000Y17235502D01*
X8722315Y17284680D01*
X8615763Y17300000D01*
X8544237Y17300000D01*
X8437685Y17284680D01*
X8330000Y17235502D01*
X8330000Y18130636D01*
X8329999Y18130636D01*
X8116513Y18073433D01*
X8116507Y18073430D01*
X7902422Y17973601D01*
X7902420Y17973600D01*
X7708926Y17838114D01*
X7708920Y17838109D01*
X7541891Y17671080D01*
X7541890Y17671078D01*
X7411575Y17484969D01*
X7356998Y17441345D01*
X7287499Y17434152D01*
X7225145Y17465674D01*
X7208425Y17484969D01*
X7078109Y17671078D01*
X7078108Y17671080D01*
X6911082Y17838106D01*
X6717578Y17973601D01*
X6503492Y18073430D01*
X6503486Y18073433D01*
X6290000Y18130636D01*
X6290000Y17235502D01*
X6182315Y17284680D01*
X6075763Y17300000D01*
X6004237Y17300000D01*
X5897685Y17284680D01*
X5790000Y17235502D01*
X5790000Y18130636D01*
X5789999Y18130636D01*
X5576513Y18073433D01*
X5576507Y18073430D01*
X5362422Y17973601D01*
X5362420Y17973600D01*
X5168926Y17838114D01*
X5046477Y17715665D01*
X4985154Y17682181D01*
X4915462Y17687165D01*
X4859529Y17729037D01*
X4842614Y17760014D01*
X4793354Y17892087D01*
X4793350Y17892094D01*
X4707190Y18007188D01*
X4707187Y18007191D01*
X4592093Y18093351D01*
X4592086Y18093355D01*
X4457379Y18143597D01*
X4457372Y18143599D01*
X4397844Y18150000D01*
X3750000Y18150000D01*
X3750000Y17235502D01*
X3642315Y17284680D01*
X3535763Y17300000D01*
X3464237Y17300000D01*
X3357685Y17284680D01*
X3250000Y17235502D01*
X3250000Y18150000D01*
X2602155Y18150000D01*
X2542627Y18143599D01*
X2542620Y18143597D01*
X2407913Y18093355D01*
X2407906Y18093351D01*
X2292812Y18007191D01*
X2292809Y18007188D01*
X2206649Y17892094D01*
X2206645Y17892087D01*
X2156403Y17757380D01*
X2156401Y17757373D01*
X2150000Y17697845D01*
X2150000Y17050000D01*
X3066314Y17050000D01*
X3040507Y17009844D01*
X3000000Y16871889D01*
X3000000Y16728111D01*
X3040507Y16590156D01*
X3066314Y16550000D01*
X2150000Y16550000D01*
X2150000Y15902156D01*
X300500Y15902156D01*
X300500Y19297536D01*
X32292076Y19297536D01*
X32311862Y19109280D01*
X32311863Y19109277D01*
X32370354Y18929259D01*
X32370357Y18929252D01*
X32465003Y18765320D01*
X32591665Y18624648D01*
X32744801Y18513388D01*
X32744806Y18513385D01*
X32917728Y18436394D01*
X32917733Y18436392D01*
X33102890Y18397036D01*
X33102891Y18397036D01*
X33292180Y18397036D01*
X33292182Y18397036D01*
X33477339Y18436392D01*
X33650266Y18513385D01*
X33803407Y18624648D01*
X33930069Y18765320D01*
X34024715Y18929252D01*
X34083210Y19109280D01*
X34096704Y19237681D01*
X34123288Y19302294D01*
X34132334Y19312390D01*
X34735591Y19915645D01*
X34796914Y19949130D01*
X34823272Y19951964D01*
X34847108Y19951964D01*
X34847110Y19951964D01*
X35032267Y19991320D01*
X35205194Y20068313D01*
X35358335Y20179576D01*
X35484997Y20320248D01*
X35579643Y20484180D01*
X35638138Y20664208D01*
X35657924Y20852464D01*
X35638138Y21040720D01*
X35579643Y21220748D01*
X35484997Y21384680D01*
X35358335Y21525352D01*
X35358334Y21525353D01*
X35205198Y21636613D01*
X35205193Y21636616D01*
X35032271Y21713607D01*
X35032266Y21713609D01*
X34886465Y21744599D01*
X34847110Y21752964D01*
X34657818Y21752964D01*
X34625361Y21746066D01*
X34472661Y21713609D01*
X34472656Y21713607D01*
X34299734Y21636616D01*
X34299729Y21636613D01*
X34146593Y21525353D01*
X34019930Y21384679D01*
X33925285Y21220749D01*
X33925282Y21220742D01*
X33866791Y21040725D01*
X33866790Y21040723D01*
X33853295Y20912321D01*
X33826710Y20847707D01*
X33817655Y20837602D01*
X33214409Y20234355D01*
X33153086Y20200870D01*
X33126728Y20198036D01*
X33102890Y20198036D01*
X33070433Y20191138D01*
X32917733Y20158681D01*
X32917728Y20158679D01*
X32744806Y20081688D01*
X32744801Y20081685D01*
X32591665Y19970425D01*
X32465002Y19829751D01*
X32370357Y19665821D01*
X32370354Y19665814D01*
X32311863Y19485796D01*
X32311862Y19485792D01*
X32292076Y19297536D01*
X300500Y19297536D01*
X300500Y46700000D01*
X33794540Y46700000D01*
X33814326Y46511744D01*
X33814327Y46511741D01*
X33872818Y46331723D01*
X33872821Y46331716D01*
X33967467Y46167784D01*
X34094129Y46027112D01*
X34247265Y45915852D01*
X34247270Y45915849D01*
X34420192Y45838858D01*
X34420197Y45838856D01*
X34605354Y45799500D01*
X34605355Y45799500D01*
X34794644Y45799500D01*
X34794646Y45799500D01*
X34979803Y45838856D01*
X35152730Y45915849D01*
X35305871Y46027112D01*
X35432533Y46167784D01*
X35527179Y46331716D01*
X35585674Y46511744D01*
X35605460Y46700000D01*
X35585674Y46888256D01*
X35527179Y47068284D01*
X35432533Y47232216D01*
X35382350Y47287950D01*
X35352120Y47350942D01*
X35350500Y47370922D01*
X35350500Y49229079D01*
X35370185Y49296118D01*
X35382351Y49312052D01*
X35432533Y49367784D01*
X35527179Y49531716D01*
X35585674Y49711744D01*
X35605460Y49900000D01*
X35585674Y50088256D01*
X35527179Y50268284D01*
X35432533Y50432216D01*
X35305871Y50572888D01*
X35305870Y50572889D01*
X35152734Y50684149D01*
X35152729Y50684152D01*
X34979807Y50761143D01*
X34979802Y50761145D01*
X34834001Y50792135D01*
X34794646Y50800500D01*
X34605354Y50800500D01*
X34572897Y50793602D01*
X34420197Y50761145D01*
X34420192Y50761143D01*
X34247270Y50684152D01*
X34247265Y50684149D01*
X34094129Y50572889D01*
X33967466Y50432215D01*
X33872821Y50268285D01*
X33872818Y50268278D01*
X33817979Y50099500D01*
X33814326Y50088256D01*
X33794540Y49900000D01*
X33814326Y49711744D01*
X33814327Y49711741D01*
X33872818Y49531723D01*
X33872821Y49531716D01*
X33967466Y49367785D01*
X34017649Y49312052D01*
X34047880Y49249060D01*
X34049500Y49229079D01*
X34049500Y47370922D01*
X34029815Y47303883D01*
X34017650Y47287950D01*
X33967466Y47232215D01*
X33872821Y47068285D01*
X33872818Y47068278D01*
X33814327Y46888260D01*
X33814326Y46888256D01*
X33794540Y46700000D01*
X300500Y46700000D01*
X300500Y55902156D01*
X2150000Y55902156D01*
X2156401Y55842628D01*
X2156403Y55842621D01*
X2206645Y55707914D01*
X2206649Y55707907D01*
X2292809Y55592813D01*
X2292812Y55592810D01*
X2407906Y55506650D01*
X2407913Y55506646D01*
X2542620Y55456404D01*
X2542627Y55456402D01*
X2602155Y55450001D01*
X2602172Y55450000D01*
X3250000Y55450000D01*
X3250000Y56364499D01*
X3357685Y56315320D01*
X3464237Y56300000D01*
X3535763Y56300000D01*
X3642315Y56315320D01*
X3750000Y56364499D01*
X3750000Y55450000D01*
X4397828Y55450000D01*
X4397844Y55450001D01*
X4457372Y55456402D01*
X4457379Y55456404D01*
X4592086Y55506646D01*
X4592093Y55506650D01*
X4707187Y55592810D01*
X4707190Y55592813D01*
X4793350Y55707907D01*
X4793354Y55707914D01*
X4842422Y55839471D01*
X4884293Y55895405D01*
X4949757Y55919822D01*
X5018030Y55904970D01*
X5046285Y55883819D01*
X5168599Y55761505D01*
X5245135Y55707914D01*
X5362165Y55625968D01*
X5362167Y55625967D01*
X5362170Y55625965D01*
X5576337Y55526097D01*
X5804592Y55464937D01*
X5975319Y55450000D01*
X6039999Y55444341D01*
X6040000Y55444341D01*
X6040001Y55444341D01*
X6104681Y55450000D01*
X6275408Y55464937D01*
X6503663Y55526097D01*
X6717830Y55625965D01*
X6911401Y55761505D01*
X7078495Y55928599D01*
X7208425Y56114158D01*
X7263002Y56157783D01*
X7332500Y56164977D01*
X7394855Y56133454D01*
X7411575Y56114158D01*
X7541500Y55928605D01*
X7541505Y55928599D01*
X7708599Y55761505D01*
X7785135Y55707914D01*
X7902165Y55625968D01*
X7902167Y55625967D01*
X7902170Y55625965D01*
X8116337Y55526097D01*
X8344592Y55464937D01*
X8515319Y55450000D01*
X8579999Y55444341D01*
X8580000Y55444341D01*
X8580001Y55444341D01*
X8644681Y55450000D01*
X8815408Y55464937D01*
X9043663Y55526097D01*
X9257830Y55625965D01*
X9451401Y55761505D01*
X9618495Y55928599D01*
X9748425Y56114158D01*
X9803002Y56157783D01*
X9872500Y56164977D01*
X9934855Y56133454D01*
X9951575Y56114158D01*
X10081500Y55928605D01*
X10081505Y55928599D01*
X10248599Y55761505D01*
X10325135Y55707914D01*
X10442165Y55625968D01*
X10442167Y55625967D01*
X10442170Y55625965D01*
X10656337Y55526097D01*
X10884592Y55464937D01*
X11055319Y55450000D01*
X11119999Y55444341D01*
X11120000Y55444341D01*
X11120001Y55444341D01*
X11184681Y55450000D01*
X11355408Y55464937D01*
X11583663Y55526097D01*
X11797830Y55625965D01*
X11991401Y55761505D01*
X12158495Y55928599D01*
X12288425Y56114158D01*
X12343002Y56157783D01*
X12412500Y56164977D01*
X12474855Y56133454D01*
X12491575Y56114158D01*
X12621500Y55928605D01*
X12621505Y55928599D01*
X12788599Y55761505D01*
X12865135Y55707914D01*
X12982165Y55625968D01*
X12982167Y55625967D01*
X12982170Y55625965D01*
X13196337Y55526097D01*
X13424592Y55464937D01*
X13595319Y55450000D01*
X13659999Y55444341D01*
X13660000Y55444341D01*
X13660001Y55444341D01*
X13724681Y55450000D01*
X13895408Y55464937D01*
X14123663Y55526097D01*
X14337830Y55625965D01*
X14531401Y55761505D01*
X14698495Y55928599D01*
X14828425Y56114158D01*
X14883002Y56157783D01*
X14952500Y56164977D01*
X15014855Y56133454D01*
X15031575Y56114158D01*
X15161500Y55928605D01*
X15161505Y55928599D01*
X15328599Y55761505D01*
X15405135Y55707914D01*
X15522165Y55625968D01*
X15522167Y55625967D01*
X15522170Y55625965D01*
X15736337Y55526097D01*
X15964592Y55464937D01*
X16135319Y55450000D01*
X16199999Y55444341D01*
X16200000Y55444341D01*
X16200001Y55444341D01*
X16264681Y55450000D01*
X16435408Y55464937D01*
X16663663Y55526097D01*
X16877830Y55625965D01*
X17071401Y55761505D01*
X17238495Y55928599D01*
X17368425Y56114158D01*
X17423002Y56157783D01*
X17492500Y56164977D01*
X17554855Y56133454D01*
X17571575Y56114158D01*
X17701500Y55928605D01*
X17701505Y55928599D01*
X17868599Y55761505D01*
X17945135Y55707914D01*
X18062165Y55625968D01*
X18062167Y55625967D01*
X18062170Y55625965D01*
X18276337Y55526097D01*
X18504592Y55464937D01*
X18675319Y55450000D01*
X18739999Y55444341D01*
X18740000Y55444341D01*
X18740001Y55444341D01*
X18804681Y55450000D01*
X18975408Y55464937D01*
X19203663Y55526097D01*
X19417830Y55625965D01*
X19611401Y55761505D01*
X19778495Y55928599D01*
X19908425Y56114158D01*
X19963002Y56157783D01*
X20032500Y56164977D01*
X20094855Y56133454D01*
X20111575Y56114158D01*
X20241500Y55928605D01*
X20241505Y55928599D01*
X20408599Y55761505D01*
X20485135Y55707914D01*
X20602165Y55625968D01*
X20602167Y55625967D01*
X20602170Y55625965D01*
X20816337Y55526097D01*
X21044592Y55464937D01*
X21215319Y55450000D01*
X21279999Y55444341D01*
X21280000Y55444341D01*
X21280001Y55444341D01*
X21344681Y55450000D01*
X21515408Y55464937D01*
X21743663Y55526097D01*
X21957830Y55625965D01*
X22151401Y55761505D01*
X22318495Y55928599D01*
X22454035Y56122170D01*
X22553903Y56336337D01*
X22615063Y56564592D01*
X22635659Y56800000D01*
X22615063Y57035408D01*
X22561583Y57235000D01*
X31544341Y57235000D01*
X31564936Y56999597D01*
X31564938Y56999587D01*
X31626094Y56771345D01*
X31626096Y56771341D01*
X31626097Y56771337D01*
X31646254Y56728111D01*
X31725965Y56557170D01*
X31725967Y56557166D01*
X31730985Y56550000D01*
X31861505Y56363599D01*
X32028599Y56196505D01*
X32073626Y56164977D01*
X32222165Y56060968D01*
X32222167Y56060967D01*
X32222170Y56060965D01*
X32436337Y55961097D01*
X32664592Y55899937D01*
X32848817Y55883819D01*
X32899999Y55879341D01*
X32900000Y55879341D01*
X32900001Y55879341D01*
X32939234Y55882774D01*
X33135408Y55899937D01*
X33363663Y55961097D01*
X33577830Y56060965D01*
X33771401Y56196505D01*
X33938495Y56363599D01*
X34074035Y56557170D01*
X34173903Y56771337D01*
X34235063Y56999592D01*
X34255659Y57235000D01*
X34235063Y57470408D01*
X34173903Y57698663D01*
X34074035Y57912829D01*
X34031178Y57974035D01*
X33938496Y58106400D01*
X33889237Y58155659D01*
X33816567Y58228329D01*
X33783084Y58289649D01*
X33788068Y58359341D01*
X33829939Y58415275D01*
X33860915Y58432190D01*
X33992331Y58481204D01*
X34107546Y58567454D01*
X34193796Y58682669D01*
X34244091Y58817517D01*
X34250500Y58877127D01*
X34250499Y60672872D01*
X34244091Y60732483D01*
X34193796Y60867331D01*
X34193795Y60867332D01*
X34193793Y60867336D01*
X34107547Y60982545D01*
X34107544Y60982548D01*
X33992335Y61068794D01*
X33992328Y61068798D01*
X33857482Y61119092D01*
X33857483Y61119092D01*
X33797883Y61125499D01*
X33797881Y61125500D01*
X33797873Y61125500D01*
X33797864Y61125500D01*
X32002129Y61125500D01*
X32002123Y61125499D01*
X31942516Y61119092D01*
X31807671Y61068798D01*
X31807664Y61068794D01*
X31692455Y60982548D01*
X31692452Y60982545D01*
X31606206Y60867336D01*
X31606202Y60867329D01*
X31555908Y60732483D01*
X31549501Y60672884D01*
X31549501Y60672877D01*
X31549500Y60672865D01*
X31549500Y58877130D01*
X31549501Y58877124D01*
X31555908Y58817517D01*
X31606202Y58682672D01*
X31606206Y58682665D01*
X31692452Y58567456D01*
X31692455Y58567453D01*
X31807664Y58481207D01*
X31807671Y58481203D01*
X31939081Y58432190D01*
X31995015Y58390319D01*
X32019432Y58324855D01*
X32004580Y58256582D01*
X31983430Y58228327D01*
X31861503Y58106400D01*
X31725965Y57912831D01*
X31725964Y57912829D01*
X31626098Y57698665D01*
X31626094Y57698656D01*
X31564938Y57470414D01*
X31564936Y57470404D01*
X31544341Y57235001D01*
X31544341Y57235000D01*
X22561583Y57235000D01*
X22553903Y57263663D01*
X22454035Y57477829D01*
X22448425Y57485842D01*
X22318494Y57671403D01*
X22151402Y57838494D01*
X22151395Y57838499D01*
X21957834Y57974033D01*
X21957830Y57974035D01*
X21886727Y58007191D01*
X21743663Y58073903D01*
X21743659Y58073904D01*
X21743655Y58073906D01*
X21515413Y58135062D01*
X21515403Y58135064D01*
X21280001Y58155659D01*
X21279999Y58155659D01*
X21044596Y58135064D01*
X21044586Y58135062D01*
X20816344Y58073906D01*
X20816335Y58073902D01*
X20602171Y57974036D01*
X20602169Y57974035D01*
X20408597Y57838495D01*
X20241505Y57671403D01*
X20111575Y57485842D01*
X20056998Y57442217D01*
X19987500Y57435023D01*
X19925145Y57466546D01*
X19908425Y57485842D01*
X19778494Y57671403D01*
X19611402Y57838494D01*
X19611395Y57838499D01*
X19417834Y57974033D01*
X19417830Y57974035D01*
X19346727Y58007191D01*
X19203663Y58073903D01*
X19203659Y58073904D01*
X19203655Y58073906D01*
X18975413Y58135062D01*
X18975403Y58135064D01*
X18740001Y58155659D01*
X18739999Y58155659D01*
X18504596Y58135064D01*
X18504586Y58135062D01*
X18276344Y58073906D01*
X18276335Y58073902D01*
X18062171Y57974036D01*
X18062169Y57974035D01*
X17868597Y57838495D01*
X17701505Y57671403D01*
X17571575Y57485842D01*
X17516998Y57442217D01*
X17447500Y57435023D01*
X17385145Y57466546D01*
X17368425Y57485842D01*
X17238494Y57671403D01*
X17071402Y57838494D01*
X17071395Y57838499D01*
X16877834Y57974033D01*
X16877830Y57974035D01*
X16806727Y58007191D01*
X16663663Y58073903D01*
X16663659Y58073904D01*
X16663655Y58073906D01*
X16435413Y58135062D01*
X16435403Y58135064D01*
X16200001Y58155659D01*
X16199999Y58155659D01*
X15964596Y58135064D01*
X15964586Y58135062D01*
X15736344Y58073906D01*
X15736335Y58073902D01*
X15522171Y57974036D01*
X15522169Y57974035D01*
X15328597Y57838495D01*
X15161505Y57671403D01*
X15031575Y57485842D01*
X14976998Y57442217D01*
X14907500Y57435023D01*
X14845145Y57466546D01*
X14828425Y57485842D01*
X14698494Y57671403D01*
X14531402Y57838494D01*
X14531395Y57838499D01*
X14337834Y57974033D01*
X14337830Y57974035D01*
X14266727Y58007191D01*
X14123663Y58073903D01*
X14123659Y58073904D01*
X14123655Y58073906D01*
X13895413Y58135062D01*
X13895403Y58135064D01*
X13660001Y58155659D01*
X13659999Y58155659D01*
X13424596Y58135064D01*
X13424586Y58135062D01*
X13196344Y58073906D01*
X13196335Y58073902D01*
X12982171Y57974036D01*
X12982169Y57974035D01*
X12788597Y57838495D01*
X12621505Y57671403D01*
X12491575Y57485842D01*
X12436998Y57442217D01*
X12367500Y57435023D01*
X12305145Y57466546D01*
X12288425Y57485842D01*
X12158494Y57671403D01*
X11991402Y57838494D01*
X11991395Y57838499D01*
X11797834Y57974033D01*
X11797830Y57974035D01*
X11726727Y58007191D01*
X11583663Y58073903D01*
X11583659Y58073904D01*
X11583655Y58073906D01*
X11355413Y58135062D01*
X11355403Y58135064D01*
X11120001Y58155659D01*
X11119999Y58155659D01*
X10884596Y58135064D01*
X10884586Y58135062D01*
X10656344Y58073906D01*
X10656335Y58073902D01*
X10442171Y57974036D01*
X10442169Y57974035D01*
X10248597Y57838495D01*
X10081505Y57671403D01*
X9951575Y57485842D01*
X9896998Y57442217D01*
X9827500Y57435023D01*
X9765145Y57466546D01*
X9748425Y57485842D01*
X9618494Y57671403D01*
X9451402Y57838494D01*
X9451395Y57838499D01*
X9257834Y57974033D01*
X9257830Y57974035D01*
X9186727Y58007191D01*
X9043663Y58073903D01*
X9043659Y58073904D01*
X9043655Y58073906D01*
X8815413Y58135062D01*
X8815403Y58135064D01*
X8580001Y58155659D01*
X8579999Y58155659D01*
X8344596Y58135064D01*
X8344586Y58135062D01*
X8116344Y58073906D01*
X8116335Y58073902D01*
X7902171Y57974036D01*
X7902169Y57974035D01*
X7708597Y57838495D01*
X7541505Y57671403D01*
X7411575Y57485842D01*
X7356998Y57442217D01*
X7287500Y57435023D01*
X7225145Y57466546D01*
X7208425Y57485842D01*
X7078494Y57671403D01*
X6911402Y57838494D01*
X6911395Y57838499D01*
X6717834Y57974033D01*
X6717830Y57974035D01*
X6646727Y58007191D01*
X6503663Y58073903D01*
X6503659Y58073904D01*
X6503655Y58073906D01*
X6275413Y58135062D01*
X6275403Y58135064D01*
X6040001Y58155659D01*
X6039999Y58155659D01*
X5804596Y58135064D01*
X5804586Y58135062D01*
X5576344Y58073906D01*
X5576335Y58073902D01*
X5362171Y57974036D01*
X5362169Y57974035D01*
X5168600Y57838497D01*
X5046284Y57716181D01*
X4984961Y57682697D01*
X4915269Y57687681D01*
X4859336Y57729553D01*
X4842421Y57760530D01*
X4793354Y57892087D01*
X4793350Y57892094D01*
X4707190Y58007188D01*
X4707187Y58007191D01*
X4592093Y58093351D01*
X4592086Y58093355D01*
X4457379Y58143597D01*
X4457372Y58143599D01*
X4397844Y58150000D01*
X3750000Y58150000D01*
X3750000Y57235502D01*
X3642315Y57284680D01*
X3535763Y57300000D01*
X3464237Y57300000D01*
X3357685Y57284680D01*
X3250000Y57235502D01*
X3250000Y58150000D01*
X2602155Y58150000D01*
X2542627Y58143599D01*
X2542620Y58143597D01*
X2407913Y58093355D01*
X2407906Y58093351D01*
X2292812Y58007191D01*
X2292809Y58007188D01*
X2206649Y57892094D01*
X2206645Y57892087D01*
X2156403Y57757380D01*
X2156401Y57757373D01*
X2150000Y57697845D01*
X2150000Y57050000D01*
X3066314Y57050000D01*
X3040507Y57009844D01*
X3000000Y56871889D01*
X3000000Y56728111D01*
X3040507Y56590156D01*
X3066314Y56550000D01*
X2150000Y56550000D01*
X2150000Y55902156D01*
X300500Y55902156D01*
X300500Y67050000D01*
X2150000Y67050000D01*
X3096031Y67050000D01*
X3063481Y66999351D01*
X3025000Y66868295D01*
X3025000Y66731705D01*
X3063481Y66600649D01*
X3096031Y66550000D01*
X2150001Y66550000D01*
X2150001Y66025014D01*
X2160494Y65922303D01*
X2215641Y65755881D01*
X2215643Y65755876D01*
X2307684Y65606655D01*
X2431654Y65482685D01*
X2580875Y65390644D01*
X2580880Y65390642D01*
X2747302Y65335495D01*
X2747309Y65335494D01*
X2850019Y65325001D01*
X3249999Y65325001D01*
X3250000Y65325002D01*
X3250000Y66391982D01*
X3364801Y66339554D01*
X3466025Y66325000D01*
X3533975Y66325000D01*
X3635199Y66339554D01*
X3750000Y66391982D01*
X3750000Y65325001D01*
X4149972Y65325001D01*
X4149986Y65325002D01*
X4252697Y65335495D01*
X4419119Y65390642D01*
X4419124Y65390644D01*
X4568345Y65482685D01*
X4692315Y65606655D01*
X4787815Y65761484D01*
X4839763Y65808208D01*
X4908726Y65819431D01*
X4972808Y65791587D01*
X4981035Y65784069D01*
X5128599Y65636505D01*
X5128602Y65636503D01*
X5128603Y65636502D01*
X5322165Y65500968D01*
X5322167Y65500967D01*
X5322170Y65500965D01*
X5536337Y65401097D01*
X5536343Y65401096D01*
X5536344Y65401095D01*
X5575356Y65390642D01*
X5764592Y65339937D01*
X5952918Y65323461D01*
X5999999Y65319341D01*
X6000000Y65319341D01*
X6000001Y65319341D01*
X6039234Y65322774D01*
X6235408Y65339937D01*
X6463663Y65401097D01*
X6677829Y65500965D01*
X6871401Y65636505D01*
X7038495Y65803599D01*
X7148426Y65960599D01*
X7203001Y66004222D01*
X7272500Y66011416D01*
X7334855Y65979894D01*
X7351571Y65960602D01*
X7371797Y65931716D01*
X7461506Y65803597D01*
X7563239Y65701865D01*
X7628599Y65636505D01*
X7725384Y65568735D01*
X7822165Y65500968D01*
X7822167Y65500967D01*
X7822170Y65500965D01*
X8036337Y65401097D01*
X8036343Y65401096D01*
X8036344Y65401095D01*
X8075356Y65390642D01*
X8264592Y65339937D01*
X8452918Y65323461D01*
X8499999Y65319341D01*
X8500000Y65319341D01*
X8500001Y65319341D01*
X8539234Y65322774D01*
X8735408Y65339937D01*
X8963663Y65401097D01*
X9177829Y65500965D01*
X9371401Y65636505D01*
X9538495Y65803599D01*
X9648426Y65960599D01*
X9703001Y66004222D01*
X9772500Y66011416D01*
X9834855Y65979894D01*
X9851571Y65960602D01*
X9871797Y65931716D01*
X9961506Y65803597D01*
X10063239Y65701865D01*
X10128599Y65636505D01*
X10225384Y65568735D01*
X10322165Y65500968D01*
X10322167Y65500967D01*
X10322170Y65500965D01*
X10536337Y65401097D01*
X10536343Y65401096D01*
X10536344Y65401095D01*
X10575356Y65390642D01*
X10764592Y65339937D01*
X10952918Y65323461D01*
X10999999Y65319341D01*
X11000000Y65319341D01*
X11000001Y65319341D01*
X11039234Y65322774D01*
X11235408Y65339937D01*
X11463663Y65401097D01*
X11677829Y65500965D01*
X11871401Y65636505D01*
X12038495Y65803599D01*
X12174035Y65997171D01*
X12273903Y66211337D01*
X12335063Y66439592D01*
X12350500Y66616034D01*
X12350500Y66983966D01*
X12335063Y67160408D01*
X12273903Y67388663D01*
X12174035Y67602829D01*
X12161936Y67620109D01*
X12038494Y67796403D01*
X11871402Y67963494D01*
X11871395Y67963499D01*
X11677834Y68099033D01*
X11677830Y68099035D01*
X11638626Y68117316D01*
X11463663Y68198903D01*
X11463659Y68198904D01*
X11463655Y68198906D01*
X11235413Y68260062D01*
X11235403Y68260064D01*
X11000001Y68280659D01*
X10999999Y68280659D01*
X10764596Y68260064D01*
X10764586Y68260062D01*
X10536344Y68198906D01*
X10536335Y68198902D01*
X10322171Y68099036D01*
X10322169Y68099035D01*
X10128597Y67963495D01*
X9961505Y67796403D01*
X9851575Y67639405D01*
X9796998Y67595780D01*
X9727500Y67588586D01*
X9665145Y67620109D01*
X9648425Y67639405D01*
X9538494Y67796403D01*
X9371402Y67963494D01*
X9371395Y67963499D01*
X9177834Y68099033D01*
X9177830Y68099035D01*
X9138626Y68117316D01*
X8963663Y68198903D01*
X8963659Y68198904D01*
X8963655Y68198906D01*
X8735413Y68260062D01*
X8735403Y68260064D01*
X8500001Y68280659D01*
X8499999Y68280659D01*
X8264596Y68260064D01*
X8264586Y68260062D01*
X8036344Y68198906D01*
X8036335Y68198902D01*
X7822171Y68099036D01*
X7822169Y68099035D01*
X7628597Y67963495D01*
X7461505Y67796403D01*
X7351575Y67639405D01*
X7296998Y67595780D01*
X7227500Y67588586D01*
X7165145Y67620109D01*
X7148425Y67639405D01*
X7038494Y67796403D01*
X6871402Y67963494D01*
X6871395Y67963499D01*
X6677834Y68099033D01*
X6677830Y68099035D01*
X6638626Y68117316D01*
X6463663Y68198903D01*
X6463659Y68198904D01*
X6463655Y68198906D01*
X6235413Y68260062D01*
X6235403Y68260064D01*
X6000001Y68280659D01*
X5999999Y68280659D01*
X5764596Y68260064D01*
X5764586Y68260062D01*
X5536344Y68198906D01*
X5536335Y68198902D01*
X5322171Y68099036D01*
X5322169Y68099035D01*
X5128597Y67963495D01*
X4981035Y67815932D01*
X4919712Y67782447D01*
X4850020Y67787431D01*
X4794087Y67829303D01*
X4787815Y67838516D01*
X4692315Y67993346D01*
X4568345Y68117316D01*
X4419124Y68209357D01*
X4419119Y68209359D01*
X4252697Y68264506D01*
X4252690Y68264507D01*
X4149986Y68275000D01*
X3750000Y68275000D01*
X3750000Y67208019D01*
X3635199Y67260446D01*
X3533975Y67275000D01*
X3466025Y67275000D01*
X3364801Y67260446D01*
X3250000Y67208019D01*
X3250000Y68275000D01*
X2850028Y68275000D01*
X2850012Y68274999D01*
X2747302Y68264506D01*
X2580880Y68209359D01*
X2580875Y68209357D01*
X2431654Y68117316D01*
X2307684Y67993346D01*
X2215643Y67844125D01*
X2215641Y67844120D01*
X2160494Y67677698D01*
X2160493Y67677691D01*
X2150000Y67574987D01*
X2150000Y67050000D01*
X300500Y67050000D01*
X300500Y75500000D01*
X2150000Y75500000D01*
X3096031Y75500000D01*
X3063481Y75449351D01*
X3025000Y75318295D01*
X3025000Y75181705D01*
X3063481Y75050649D01*
X3096031Y75000000D01*
X2150001Y75000000D01*
X2150001Y74475014D01*
X2160494Y74372303D01*
X2215641Y74205881D01*
X2215643Y74205876D01*
X2307684Y74056655D01*
X2431654Y73932685D01*
X2580875Y73840644D01*
X2580880Y73840642D01*
X2747302Y73785495D01*
X2747309Y73785494D01*
X2850019Y73775001D01*
X3249999Y73775001D01*
X3250000Y73775002D01*
X3250000Y74841982D01*
X3364801Y74789554D01*
X3466025Y74775000D01*
X3533975Y74775000D01*
X3635199Y74789554D01*
X3750000Y74841982D01*
X3750000Y73775001D01*
X4149972Y73775001D01*
X4149986Y73775002D01*
X4252697Y73785495D01*
X4419119Y73840642D01*
X4419124Y73840644D01*
X4568345Y73932685D01*
X4692315Y74056655D01*
X4787815Y74211484D01*
X4839763Y74258208D01*
X4908726Y74269431D01*
X4972808Y74241587D01*
X4981035Y74234069D01*
X5128599Y74086505D01*
X5128602Y74086503D01*
X5128603Y74086502D01*
X5322165Y73950968D01*
X5322167Y73950967D01*
X5322170Y73950965D01*
X5536337Y73851097D01*
X5536343Y73851096D01*
X5536344Y73851095D01*
X5575356Y73840642D01*
X5764592Y73789937D01*
X5952918Y73773461D01*
X5999999Y73769341D01*
X6000000Y73769341D01*
X6000001Y73769341D01*
X6039234Y73772774D01*
X6235408Y73789937D01*
X6463663Y73851097D01*
X6677829Y73950965D01*
X6871401Y74086505D01*
X7038495Y74253599D01*
X7148426Y74410599D01*
X7203001Y74454222D01*
X7272500Y74461416D01*
X7334855Y74429894D01*
X7351571Y74410602D01*
X7378388Y74372303D01*
X7461506Y74253597D01*
X7628597Y74086507D01*
X7628599Y74086505D01*
X7725384Y74018735D01*
X7822165Y73950968D01*
X7822167Y73950967D01*
X7822170Y73950965D01*
X8036337Y73851097D01*
X8036343Y73851096D01*
X8036344Y73851095D01*
X8075356Y73840642D01*
X8264592Y73789937D01*
X8452918Y73773461D01*
X8499999Y73769341D01*
X8500000Y73769341D01*
X8500001Y73769341D01*
X8539234Y73772774D01*
X8735408Y73789937D01*
X8963663Y73851097D01*
X9177829Y73950965D01*
X9371401Y74086505D01*
X9538495Y74253599D01*
X9648426Y74410599D01*
X9703001Y74454222D01*
X9772500Y74461416D01*
X9834855Y74429894D01*
X9851571Y74410602D01*
X9878388Y74372303D01*
X9961506Y74253597D01*
X10128597Y74086507D01*
X10128599Y74086505D01*
X10225384Y74018735D01*
X10322165Y73950968D01*
X10322167Y73950967D01*
X10322170Y73950965D01*
X10536337Y73851097D01*
X10536343Y73851096D01*
X10536344Y73851095D01*
X10575356Y73840642D01*
X10764592Y73789937D01*
X10952918Y73773461D01*
X10999999Y73769341D01*
X11000000Y73769341D01*
X11000001Y73769341D01*
X11039234Y73772774D01*
X11235408Y73789937D01*
X11463663Y73851097D01*
X11677829Y73950965D01*
X11871401Y74086505D01*
X12038495Y74253599D01*
X12174035Y74447171D01*
X12273903Y74661337D01*
X12335063Y74889592D01*
X12350500Y75066034D01*
X12350500Y75433966D01*
X12335063Y75610408D01*
X12273903Y75838663D01*
X12174035Y76052829D01*
X12161936Y76070109D01*
X12038494Y76246403D01*
X11871402Y76413494D01*
X11871395Y76413499D01*
X11677834Y76549033D01*
X11677830Y76549035D01*
X11638626Y76567316D01*
X11463663Y76648903D01*
X11463659Y76648904D01*
X11463655Y76648906D01*
X11235413Y76710062D01*
X11235403Y76710064D01*
X11000001Y76730659D01*
X10999999Y76730659D01*
X10764596Y76710064D01*
X10764586Y76710062D01*
X10536344Y76648906D01*
X10536335Y76648902D01*
X10322171Y76549036D01*
X10322169Y76549035D01*
X10128597Y76413495D01*
X9961505Y76246403D01*
X9851575Y76089405D01*
X9796998Y76045780D01*
X9727500Y76038586D01*
X9665145Y76070109D01*
X9648425Y76089405D01*
X9538494Y76246403D01*
X9371402Y76413494D01*
X9371395Y76413499D01*
X9177834Y76549033D01*
X9177830Y76549035D01*
X9138626Y76567316D01*
X8963663Y76648903D01*
X8963659Y76648904D01*
X8963655Y76648906D01*
X8735413Y76710062D01*
X8735403Y76710064D01*
X8500001Y76730659D01*
X8499999Y76730659D01*
X8264596Y76710064D01*
X8264586Y76710062D01*
X8036344Y76648906D01*
X8036335Y76648902D01*
X7822171Y76549036D01*
X7822169Y76549035D01*
X7628597Y76413495D01*
X7461505Y76246403D01*
X7351575Y76089405D01*
X7296998Y76045780D01*
X7227500Y76038586D01*
X7165145Y76070109D01*
X7148425Y76089405D01*
X7038494Y76246403D01*
X6871402Y76413494D01*
X6871395Y76413499D01*
X6677834Y76549033D01*
X6677830Y76549035D01*
X6638626Y76567316D01*
X6463663Y76648903D01*
X6463659Y76648904D01*
X6463655Y76648906D01*
X6235413Y76710062D01*
X6235403Y76710064D01*
X6000001Y76730659D01*
X5999999Y76730659D01*
X5764596Y76710064D01*
X5764586Y76710062D01*
X5536344Y76648906D01*
X5536335Y76648902D01*
X5322171Y76549036D01*
X5322169Y76549035D01*
X5128597Y76413495D01*
X4981035Y76265932D01*
X4919712Y76232447D01*
X4850020Y76237431D01*
X4794087Y76279303D01*
X4787815Y76288516D01*
X4692315Y76443346D01*
X4568345Y76567316D01*
X4419124Y76659357D01*
X4419119Y76659359D01*
X4252697Y76714506D01*
X4252690Y76714507D01*
X4149986Y76725000D01*
X3750000Y76725000D01*
X3750000Y75658019D01*
X3635199Y75710446D01*
X3533975Y75725000D01*
X3466025Y75725000D01*
X3364801Y75710446D01*
X3250000Y75658019D01*
X3250000Y76725000D01*
X2850028Y76725000D01*
X2850012Y76724999D01*
X2747302Y76714506D01*
X2580880Y76659359D01*
X2580875Y76659357D01*
X2431654Y76567316D01*
X2307684Y76443346D01*
X2215643Y76294125D01*
X2215641Y76294120D01*
X2160494Y76127698D01*
X2160493Y76127691D01*
X2150000Y76024987D01*
X2150000Y75500000D01*
X300500Y75500000D01*
X300500Y79752130D01*
X29496849Y79752130D01*
X29496850Y79752124D01*
X29503257Y79692517D01*
X29553551Y79557672D01*
X29553555Y79557665D01*
X29639801Y79442456D01*
X29639804Y79442453D01*
X29755013Y79356207D01*
X29755020Y79356203D01*
X29889866Y79305909D01*
X29889865Y79305909D01*
X29896793Y79305165D01*
X29949476Y79299500D01*
X31645221Y79299501D01*
X31704832Y79305909D01*
X31839680Y79356204D01*
X31954895Y79442454D01*
X32041145Y79557669D01*
X32091440Y79692517D01*
X32097849Y79752127D01*
X32097849Y80599998D01*
X34492383Y80599998D01*
X34512207Y80373401D01*
X34512209Y80373390D01*
X34571079Y80153683D01*
X34571083Y80153674D01*
X34667214Y79947519D01*
X34667215Y79947517D01*
X34718322Y79874529D01*
X34718323Y79874528D01*
X35399395Y80555601D01*
X35412184Y80474852D01*
X35469708Y80361955D01*
X35559304Y80272359D01*
X35672201Y80214835D01*
X35752948Y80202047D01*
X35071875Y79520975D01*
X35071875Y79520974D01*
X35144861Y79469869D01*
X35144865Y79469867D01*
X35351022Y79373735D01*
X35351031Y79373731D01*
X35570738Y79314861D01*
X35570749Y79314859D01*
X35797347Y79295034D01*
X35797351Y79295034D01*
X36023948Y79314859D01*
X36023959Y79314861D01*
X36243666Y79373731D01*
X36243680Y79373736D01*
X36449827Y79469864D01*
X36522821Y79520975D01*
X35841750Y80202047D01*
X35922497Y80214835D01*
X36035394Y80272359D01*
X36124990Y80361955D01*
X36182514Y80474852D01*
X36195302Y80555600D01*
X36876374Y79874528D01*
X36927485Y79947522D01*
X37023613Y80153669D01*
X37023618Y80153683D01*
X37082488Y80373390D01*
X37082490Y80373401D01*
X37102315Y80599998D01*
X37102315Y80600003D01*
X37082490Y80826600D01*
X37082488Y80826611D01*
X37023618Y81046318D01*
X37023614Y81046327D01*
X36927482Y81252484D01*
X36927480Y81252488D01*
X36876375Y81325474D01*
X36876374Y81325474D01*
X36195302Y80644402D01*
X36182514Y80725148D01*
X36124990Y80838045D01*
X36035394Y80927641D01*
X35922497Y80985165D01*
X35841749Y80997954D01*
X36522821Y81679026D01*
X36522820Y81679027D01*
X36449832Y81730134D01*
X36449830Y81730135D01*
X36243675Y81826266D01*
X36243666Y81826270D01*
X36023959Y81885140D01*
X36023948Y81885142D01*
X35797351Y81904966D01*
X35797347Y81904966D01*
X35570749Y81885142D01*
X35570738Y81885140D01*
X35351031Y81826270D01*
X35351022Y81826266D01*
X35144862Y81730132D01*
X35071876Y81679028D01*
X35071875Y81679027D01*
X35752949Y80997954D01*
X35672201Y80985165D01*
X35559304Y80927641D01*
X35469708Y80838045D01*
X35412184Y80725148D01*
X35399395Y80644401D01*
X34718322Y81325474D01*
X34718321Y81325473D01*
X34667217Y81252487D01*
X34571083Y81046327D01*
X34571079Y81046318D01*
X34512209Y80826611D01*
X34512207Y80826600D01*
X34492383Y80600003D01*
X34492383Y80599998D01*
X32097849Y80599998D01*
X32097848Y81447872D01*
X32091440Y81507483D01*
X32041145Y81642331D01*
X32041144Y81642332D01*
X32041142Y81642336D01*
X31954896Y81757545D01*
X31954893Y81757548D01*
X31839684Y81843794D01*
X31839677Y81843798D01*
X31704831Y81894092D01*
X31704832Y81894092D01*
X31645232Y81900499D01*
X31645230Y81900500D01*
X31645222Y81900500D01*
X31645213Y81900500D01*
X29949478Y81900500D01*
X29949472Y81900499D01*
X29889865Y81894092D01*
X29755020Y81843798D01*
X29755013Y81843794D01*
X29639804Y81757548D01*
X29639801Y81757545D01*
X29553555Y81642336D01*
X29553551Y81642329D01*
X29503257Y81507483D01*
X29496850Y81447884D01*
X29496850Y81447877D01*
X29496849Y81447865D01*
X29496849Y79752130D01*
X300500Y79752130D01*
X300500Y85400000D01*
X1394696Y85400000D01*
X1413898Y85033595D01*
X1471294Y84671212D01*
X1471294Y84671210D01*
X1566260Y84316794D01*
X1697746Y83974261D01*
X1864320Y83647344D01*
X2064147Y83339636D01*
X2064149Y83339634D01*
X2295051Y83054494D01*
X2554494Y82795051D01*
X2554498Y82795048D01*
X2839635Y82564148D01*
X3147343Y82364321D01*
X3147348Y82364318D01*
X3474264Y82197745D01*
X3816801Y82066258D01*
X4171206Y81971295D01*
X4533596Y81913898D01*
X4879734Y81895759D01*
X4899999Y81894696D01*
X4900000Y81894696D01*
X4900001Y81894696D01*
X4919203Y81895703D01*
X5266404Y81913898D01*
X5628794Y81971295D01*
X5983199Y82066258D01*
X6325736Y82197745D01*
X6652652Y82364318D01*
X6960366Y82564149D01*
X7245506Y82795051D01*
X7504949Y83054494D01*
X7735851Y83339634D01*
X7935682Y83647348D01*
X8102255Y83974264D01*
X8233742Y84316801D01*
X8328705Y84671206D01*
X8386102Y85033596D01*
X8405304Y85400000D01*
X8386102Y85766404D01*
X8328705Y86128794D01*
X8233742Y86483199D01*
X8150522Y86699995D01*
X37945202Y86699995D01*
X37964361Y86468782D01*
X38021317Y86243865D01*
X38114516Y86031391D01*
X38198811Y85902367D01*
X38952046Y86655600D01*
X38964835Y86574852D01*
X39022359Y86461955D01*
X39111955Y86372359D01*
X39224852Y86314835D01*
X39305599Y86302047D01*
X38551199Y85547649D01*
X38581650Y85523950D01*
X38785697Y85413524D01*
X38785706Y85413521D01*
X39005139Y85338189D01*
X39233993Y85300000D01*
X39466007Y85300000D01*
X39694860Y85338189D01*
X39914293Y85413521D01*
X39914302Y85413524D01*
X40118350Y85523950D01*
X40148798Y85547649D01*
X39394400Y86302047D01*
X39475148Y86314835D01*
X39588045Y86372359D01*
X39677641Y86461955D01*
X39735165Y86574852D01*
X39747953Y86655600D01*
X40501186Y85902366D01*
X40585484Y86031394D01*
X40678682Y86243865D01*
X40735638Y86468782D01*
X40754798Y86699995D01*
X40754798Y86700006D01*
X40735638Y86931219D01*
X40678682Y87156136D01*
X40585483Y87368610D01*
X40501186Y87497636D01*
X39747953Y86744402D01*
X39735165Y86825148D01*
X39677641Y86938045D01*
X39588045Y87027641D01*
X39475148Y87085165D01*
X39394401Y87097954D01*
X40148799Y87852352D01*
X40148799Y87852353D01*
X40118349Y87876051D01*
X39914302Y87986477D01*
X39914293Y87986480D01*
X39694860Y88061812D01*
X39466007Y88100000D01*
X39233993Y88100000D01*
X39005139Y88061812D01*
X38785706Y87986480D01*
X38785698Y87986477D01*
X38581644Y87876048D01*
X38551200Y87852354D01*
X38551200Y87852353D01*
X39305599Y87097954D01*
X39224852Y87085165D01*
X39111955Y87027641D01*
X39022359Y86938045D01*
X38964835Y86825148D01*
X38952046Y86744401D01*
X38198812Y87497635D01*
X38114516Y87368609D01*
X38114514Y87368605D01*
X38021317Y87156136D01*
X37964361Y86931219D01*
X37945202Y86700006D01*
X37945202Y86699995D01*
X8150522Y86699995D01*
X8102255Y86825736D01*
X7935682Y87152652D01*
X7935679Y87152657D01*
X7735852Y87460365D01*
X7592939Y87636847D01*
X7504949Y87745506D01*
X7245506Y88004949D01*
X6960366Y88235851D01*
X6960364Y88235853D01*
X6652656Y88435680D01*
X6526434Y88499994D01*
X30444700Y88499994D01*
X30463864Y88268703D01*
X30463866Y88268692D01*
X30520842Y88043700D01*
X30614075Y87831152D01*
X30741016Y87636853D01*
X30741019Y87636849D01*
X30741021Y87636847D01*
X30898216Y87466087D01*
X30898219Y87466085D01*
X30898222Y87466082D01*
X31081365Y87323536D01*
X31081371Y87323532D01*
X31081374Y87323530D01*
X31285497Y87213064D01*
X31399487Y87173932D01*
X31505015Y87137703D01*
X31505017Y87137703D01*
X31505019Y87137702D01*
X31733951Y87099500D01*
X31733952Y87099500D01*
X31966048Y87099500D01*
X31966049Y87099500D01*
X32194981Y87137702D01*
X32414503Y87213064D01*
X32618626Y87323530D01*
X32801784Y87466087D01*
X32958979Y87636847D01*
X33085924Y87831151D01*
X33179157Y88043700D01*
X33236134Y88268695D01*
X33236135Y88268703D01*
X33255300Y88499994D01*
X33255300Y88500007D01*
X33236135Y88731298D01*
X33236133Y88731309D01*
X33179157Y88956301D01*
X33085924Y89168849D01*
X32958983Y89363148D01*
X32958980Y89363151D01*
X32958979Y89363153D01*
X32801784Y89533913D01*
X32801779Y89533917D01*
X32801777Y89533919D01*
X32618634Y89676465D01*
X32618628Y89676469D01*
X32414504Y89786936D01*
X32414495Y89786939D01*
X32194984Y89862298D01*
X32023282Y89890950D01*
X31966049Y89900500D01*
X31733951Y89900500D01*
X31688164Y89892860D01*
X31505015Y89862298D01*
X31285504Y89786939D01*
X31285495Y89786936D01*
X31081371Y89676469D01*
X31081365Y89676465D01*
X30898222Y89533919D01*
X30898219Y89533916D01*
X30741016Y89363148D01*
X30614075Y89168849D01*
X30520842Y88956301D01*
X30463866Y88731309D01*
X30463864Y88731298D01*
X30444700Y88500007D01*
X30444700Y88499994D01*
X6526434Y88499994D01*
X6325739Y88602254D01*
X5983206Y88733740D01*
X5983199Y88733742D01*
X5628794Y88828705D01*
X5628790Y88828706D01*
X5628789Y88828706D01*
X5266405Y88886102D01*
X4900001Y88905304D01*
X4899999Y88905304D01*
X4533594Y88886102D01*
X4171211Y88828706D01*
X4171209Y88828706D01*
X3816793Y88733740D01*
X3474260Y88602254D01*
X3147343Y88435680D01*
X2839635Y88235853D01*
X2554498Y88004953D01*
X2554490Y88004946D01*
X2295054Y87745510D01*
X2295047Y87745502D01*
X2064147Y87460365D01*
X1864320Y87152657D01*
X1697746Y86825740D01*
X1566260Y86483207D01*
X1471294Y86128791D01*
X1471294Y86128789D01*
X1413898Y85766406D01*
X1394696Y85400001D01*
X1394696Y85400000D01*
X300500Y85400000D01*
X300500Y94701707D01*
X320185Y94768746D01*
X372989Y94814501D01*
X442147Y94824445D01*
X505703Y94795420D01*
X534985Y94758001D01*
X591307Y94647462D01*
X591308Y94647459D01*
X802531Y94322207D01*
X1011095Y94064650D01*
X1011096Y94064650D01*
X1908757Y94962312D01*
X1867449Y94900489D01*
X1848046Y94802944D01*
X1867449Y94705399D01*
X1922704Y94622704D01*
X2005399Y94567449D01*
X2078320Y94552944D01*
X2127568Y94552944D01*
X2200489Y94567449D01*
X2262304Y94608753D01*
X1364648Y93711097D01*
X1364649Y93711096D01*
X1622206Y93502532D01*
X1947456Y93291311D01*
X2293005Y93115245D01*
X2655063Y92976263D01*
X3029669Y92875888D01*
X3029676Y92875887D01*
X3412712Y92815220D01*
X3799999Y92794922D01*
X3800001Y92794922D01*
X4187287Y92815220D01*
X4570323Y92875887D01*
X4570330Y92875888D01*
X4944936Y92976263D01*
X5306994Y93115245D01*
X5652543Y93291311D01*
X5977783Y93502524D01*
X5977785Y93502525D01*
X6235349Y93711098D01*
X5337691Y94608756D01*
X5399511Y94567449D01*
X5472432Y94552944D01*
X5521680Y94552944D01*
X5594601Y94567449D01*
X5677296Y94622704D01*
X5732551Y94705399D01*
X5751954Y94802944D01*
X5732551Y94900489D01*
X5691244Y94962309D01*
X6588902Y94064651D01*
X6797475Y94322215D01*
X6797476Y94322217D01*
X7008689Y94647457D01*
X7086414Y94800000D01*
X28494696Y94800000D01*
X28513898Y94433595D01*
X28571294Y94071212D01*
X28571294Y94071210D01*
X28666260Y93716794D01*
X28797746Y93374261D01*
X28964320Y93047344D01*
X29164147Y92739636D01*
X29164149Y92739634D01*
X29395051Y92454494D01*
X29654494Y92195051D01*
X29654498Y92195048D01*
X29939635Y91964148D01*
X30247343Y91764321D01*
X30247348Y91764318D01*
X30574264Y91597745D01*
X30916801Y91466258D01*
X31271206Y91371295D01*
X31633596Y91313898D01*
X31979734Y91295759D01*
X31999999Y91294696D01*
X32000000Y91294696D01*
X32000001Y91294696D01*
X32019203Y91295703D01*
X32366404Y91313898D01*
X32728794Y91371295D01*
X33083199Y91466258D01*
X33425736Y91597745D01*
X33752652Y91764318D01*
X34060366Y91964149D01*
X34345506Y92195051D01*
X34604949Y92454494D01*
X34835851Y92739634D01*
X35035682Y93047348D01*
X35202255Y93374264D01*
X35333742Y93716801D01*
X35428705Y94071206D01*
X35486102Y94433596D01*
X35505304Y94800000D01*
X35486102Y95166404D01*
X35428705Y95528794D01*
X35333742Y95883199D01*
X35202255Y96225736D01*
X35035682Y96552652D01*
X35035679Y96552657D01*
X34835852Y96860365D01*
X34604952Y97145502D01*
X34604949Y97145506D01*
X34345506Y97404949D01*
X34208554Y97515851D01*
X34060364Y97635853D01*
X33752656Y97835680D01*
X33425739Y98002254D01*
X33083206Y98133740D01*
X33083199Y98133742D01*
X32728794Y98228705D01*
X32728790Y98228706D01*
X32728789Y98228706D01*
X32366405Y98286102D01*
X32000001Y98305304D01*
X31999999Y98305304D01*
X31633594Y98286102D01*
X31271211Y98228706D01*
X31271209Y98228706D01*
X30916793Y98133740D01*
X30574260Y98002254D01*
X30247343Y97835680D01*
X29939635Y97635853D01*
X29654498Y97404953D01*
X29654490Y97404946D01*
X29395054Y97145510D01*
X29395047Y97145502D01*
X29164147Y96860365D01*
X28964320Y96552657D01*
X28797746Y96225740D01*
X28666260Y95883207D01*
X28571294Y95528791D01*
X28571294Y95528789D01*
X28513898Y95166406D01*
X28494696Y94800001D01*
X28494696Y94800000D01*
X7086414Y94800000D01*
X7184755Y94993006D01*
X7323737Y95355064D01*
X7424112Y95729670D01*
X7424113Y95729677D01*
X7484780Y96112713D01*
X7505078Y96500000D01*
X7505078Y96500001D01*
X7484780Y96887288D01*
X7424113Y97270324D01*
X7424112Y97270331D01*
X7323737Y97644937D01*
X7184755Y98006995D01*
X7008689Y98352544D01*
X6797468Y98677794D01*
X6588904Y98935351D01*
X6588903Y98935352D01*
X5691247Y98037697D01*
X5732551Y98099511D01*
X5751954Y98197056D01*
X5732551Y98294601D01*
X5677296Y98377296D01*
X5594601Y98432551D01*
X5521680Y98447056D01*
X5472432Y98447056D01*
X5399511Y98432551D01*
X5337688Y98391243D01*
X6235350Y99288904D01*
X6235350Y99288905D01*
X5977793Y99497469D01*
X5689289Y99684827D01*
X5643786Y99737848D01*
X5634172Y99807053D01*
X5663499Y99870470D01*
X5722456Y99907964D01*
X5756540Y99912821D01*
X44675500Y99999500D01*
X44776000Y99999500D01*
X44843039Y99979815D01*
G37*
%TD.AperFunction*%
%TA.AperFunction,Conductor*%
G36*
X5656420Y1997133D02*
G01*
X5594601Y2038439D01*
X5521680Y2052944D01*
X5472432Y2052944D01*
X5399511Y2038439D01*
X5316816Y1983184D01*
X5261561Y1900489D01*
X5242158Y1802944D01*
X5261561Y1705399D01*
X5302867Y1643580D01*
X4744180Y2202267D01*
X4934870Y2365130D01*
X5097733Y2555820D01*
X5656420Y1997133D01*
G37*
%TD.AperFunction*%
%TA.AperFunction,Conductor*%
G36*
X2855819Y4797734D02*
G01*
X2665130Y4634870D01*
X2502266Y4444181D01*
X1943581Y5002866D01*
X2005399Y4961561D01*
X2078320Y4947056D01*
X2127568Y4947056D01*
X2200489Y4961561D01*
X2283184Y5016816D01*
X2338439Y5099511D01*
X2357842Y5197056D01*
X2338439Y5294601D01*
X2297133Y5356419D01*
X2855819Y4797734D01*
G37*
%TD.AperFunction*%
%TA.AperFunction,Conductor*%
G36*
X5261561Y5294601D02*
G01*
X5242158Y5197056D01*
X5261561Y5099511D01*
X5316816Y5016816D01*
X5399511Y4961561D01*
X5472432Y4947056D01*
X5521680Y4947056D01*
X5594601Y4961561D01*
X5656415Y5002865D01*
X5097732Y4444182D01*
X4934870Y4634870D01*
X4744180Y4797734D01*
X5302867Y5356422D01*
X5261561Y5294601D01*
G37*
%TD.AperFunction*%
%TA.AperFunction,Conductor*%
G36*
X5656420Y94997133D02*
G01*
X5594601Y95038439D01*
X5521680Y95052944D01*
X5472432Y95052944D01*
X5399511Y95038439D01*
X5316816Y94983184D01*
X5261561Y94900489D01*
X5242158Y94802944D01*
X5261561Y94705399D01*
X5302867Y94643580D01*
X4744180Y95202267D01*
X4934870Y95365130D01*
X5097733Y95555820D01*
X5656420Y94997133D01*
G37*
%TD.AperFunction*%
%TA.AperFunction,Conductor*%
G36*
X2665130Y95365130D02*
G01*
X2855819Y95202267D01*
X2297135Y94643584D01*
X2338439Y94705399D01*
X2357842Y94802944D01*
X2338439Y94900489D01*
X2283184Y94983184D01*
X2200489Y95038439D01*
X2127568Y95052944D01*
X2078320Y95052944D01*
X2005399Y95038439D01*
X1943576Y94997131D01*
X2502266Y95555821D01*
X2665130Y95365130D01*
G37*
%TD.AperFunction*%
%TA.AperFunction,Conductor*%
G36*
X5261561Y98294601D02*
G01*
X5242158Y98197056D01*
X5261561Y98099511D01*
X5316816Y98016816D01*
X5399511Y97961561D01*
X5472432Y97947056D01*
X5521680Y97947056D01*
X5594601Y97961561D01*
X5656415Y98002865D01*
X5097732Y97444182D01*
X4934870Y97634870D01*
X4744179Y97797734D01*
X5302869Y98356424D01*
X5261561Y98294601D01*
G37*
%TD.AperFunction*%
%TD*%
M02*
